<svg viewBox="0 0 40 40" fill="none" xmlns="http://www.w3.org/2000/svg">
<g filter="url(#filter0_b_152_1567)">
<circle cx="20" cy="20" r="20" fill="white"/>
</g>
<path d="M22.1486 18.5976L20.9073 19.9606H19.8481L20.7829 20.8273L27.403 26.9649C27.4173 26.9829 27.4162 27.0102 27.3998 27.0269L25.875 28.5696C25.8667 28.578 25.8586 28.5806 25.8507 28.5806C25.844 28.5806 25.8372 28.5787 25.8302 28.573L19.8284 21.951L19.4591 21.5436L19.0885 21.9499L13.0482 28.5728C13.0411 28.5787 13.0342 28.5806 13.0274 28.5806C13.0195 28.5806 13.0114 28.578 13.0031 28.5696L11.4783 27.0269C11.4618 27.0102 11.4608 26.9826 11.4753 26.9646L18.1072 20.7771L18.4679 20.4406L18.1362 20.0753L17.4627 19.334L17.2268 19.0743L16.9024 19.2078C16.3937 19.417 15.5441 19.4215 14.644 19.2106C13.7745 19.0069 12.9826 18.6311 12.5335 18.1993L9.89727 14.0072L9.86812 13.9608L9.82962 13.9218C9.812 13.904 9.812 13.874 9.82962 13.8562C9.83791 13.8478 9.84598 13.8452 9.85386 13.8452C9.86173 13.8452 9.86981 13.8478 9.87809 13.8562L9.87838 13.8565L13.1917 17.2033C13.1917 17.2033 13.1918 17.2034 13.1918 17.2034C13.1919 17.2035 13.1919 17.2035 13.192 17.2036C13.4901 17.5049 13.9875 17.5048 14.2855 17.2033L14.2856 17.2034L14.2944 17.1941C14.5648 16.906 14.5842 16.4433 14.3099 16.1392L11.3921 12.4219L11.3745 12.3994L11.3544 12.3791C11.3368 12.3613 11.3368 12.3313 11.3544 12.3134C11.3627 12.305 11.3708 12.3025 11.3787 12.3025C11.3865 12.3025 11.3946 12.305 11.4029 12.3134L11.423 12.3338L11.4453 12.3517L15.1232 15.3069C15.4209 15.5731 15.8913 15.5786 16.1874 15.279L16.1875 15.2791L16.1963 15.2697C16.4746 14.9734 16.4871 14.4922 16.1874 14.189L12.8738 10.8364C12.8562 10.8186 12.8562 10.7885 12.8738 10.7707C12.8821 10.7623 12.8902 10.7598 12.8981 10.7598C12.9059 10.7598 12.914 10.7623 12.9223 10.7707L12.961 10.8099L13.0074 10.8397L17.1608 13.5119C17.5634 13.9431 17.932 14.7396 18.1384 15.6286C18.3518 16.5478 18.3592 17.4256 18.1561 17.9533L18.0347 18.2689L18.2823 18.4991L19.0797 19.2405L19.4213 19.558L19.7618 19.2393L21.3405 17.762L21.5861 17.5322L21.4658 17.218C21.0217 16.0594 21.2763 14.742 22.1519 13.8562L22.1526 13.8554C22.7679 13.2304 23.848 12.5034 24.9399 12.1187C26.0648 11.7225 26.9839 11.7564 27.5129 12.2916C28.0475 12.8325 28.0861 13.7836 27.7032 14.9353C27.3314 16.0535 26.6224 17.1561 26.0097 17.776C25.135 18.6609 23.834 18.9151 22.7015 18.469L22.3807 18.3427L22.1486 18.5976Z" fill="white" stroke="#878E9F"/>
<defs>
<filter id="filter0_b_152_1567" x="-15.4" y="-15.4" width="70.8" height="70.8" filterUnits="userSpaceOnUse" color-interpolation-filters="sRGB">
<feFlood flood-opacity="0" result="BackgroundImageFix"/>
<feGaussianBlur in="BackgroundImageFix" stdDeviation="7.7"/>
<feComposite in2="SourceAlpha" operator="in" result="effect1_backgroundBlur_152_1567"/>
<feBlend mode="normal" in="SourceGraphic" in2="effect1_backgroundBlur_152_1567" result="shape"/>
</filter>
</defs>
</svg>
