<svg width="138" height="143" viewBox="0 0 138 143" fill="none" xmlns="http://www.w3.org/2000/svg">
<g filter="url(#filter0_d_2797_72)">
<rect x="26" y="39.1526" width="74" height="74" rx="12.3921" transform="rotate(-15 26 39.1526)" fill="white" fill-opacity="0.5" shape-rendering="crispEdges"/>
<g clip-path="url(#clip0_2797_72)">
<path d="M52.7099 65.7435C52.0285 65.2318 51.8926 64.2659 52.4043 63.5845L62.4491 50.233C64.5842 47.3961 68.3572 46.3835 71.6251 47.7743L86.9999 54.3146C87.7834 54.6474 88.149 55.5533 87.8148 56.3372C87.622 56.791 87.2368 57.1049 86.7946 57.2234C86.4744 57.3092 86.1222 57.2934 85.7941 57.1531L70.4194 50.6127C68.4592 49.7781 66.1942 50.385 64.914 52.0879L54.8674 65.4383C54.3538 66.1186 53.389 66.2526 52.7099 65.7435ZM62.8697 77.4814C63.3129 77.6643 63.6476 78.0438 63.7721 78.5084L65.3682 84.465C65.5888 85.2885 65.1016 86.1325 64.2781 86.3531L59.8092 87.5506C58.9857 87.7712 58.1417 87.2839 57.921 86.4605C57.0089 83.0563 58.5152 79.3201 61.5048 77.5758C61.9181 77.3373 62.425 77.2989 62.8697 77.4814ZM93.6618 76.8837C93.8824 77.7072 93.3951 78.5512 92.5716 78.7719L88.1042 79.9689C87.2807 80.1896 86.4367 79.7023 86.2161 78.8788L84.62 72.9223C84.4955 72.4577 84.596 71.9631 84.8881 71.5816C85.1838 71.2023 85.6416 70.9807 86.1158 70.9813C89.5771 70.9971 92.7496 73.4796 93.6618 76.8837ZM59.834 66.7953C57.7775 67.3463 56.5576 69.4591 57.1087 71.5156C57.6597 73.5721 59.7725 74.792 61.829 74.2409C63.8855 73.6899 65.1054 71.5771 64.5543 69.5206C64.0033 67.4641 61.8905 66.2442 59.834 66.7953ZM86.8914 63.5354C86.3403 61.4789 84.2275 60.259 82.171 60.8101C80.1145 61.3611 78.8947 63.4739 79.4457 65.5304C79.9967 67.5869 82.1096 68.8068 84.1661 68.2558C86.2226 67.7047 87.4424 65.5919 86.8914 63.5354ZM69.8055 59.3353C67.749 59.8863 66.5291 61.9991 67.0801 64.0556C67.6312 66.1121 69.744 67.332 71.8005 66.7809C73.857 66.2299 75.0769 64.1171 74.5258 62.0606C73.9748 60.0041 71.862 58.7842 69.8055 59.3353ZM82.0393 75.2098L83.2363 79.6772C83.457 80.5007 82.9697 81.3447 82.1462 81.5654L70.2331 84.7575C69.4096 84.9781 68.5656 84.4909 68.345 83.6674L67.1479 79.2C66.0479 75.0944 68.493 70.8593 72.5985 69.7592C76.7041 68.6591 80.9392 71.1043 82.0393 75.2098Z" fill="white"/>
</g>
</g>
<defs>
<filter id="filter0_d_2797_72" x="-2.34682" y="-2.15079" width="147.325" height="147.325" filterUnits="userSpaceOnUse" color-interpolation-filters="sRGB">
<feFlood flood-opacity="0" result="BackgroundImageFix"/>
<feColorMatrix in="SourceAlpha" type="matrix" values="0 0 0 0 0 0 0 0 0 0 0 0 0 0 0 0 0 0 127 0" result="hardAlpha"/>
<feOffset dy="6.19603"/>
<feGaussianBlur stdDeviation="14.1734"/>
<feComposite in2="hardAlpha" operator="out"/>
<feColorMatrix type="matrix" values="0 0 0 0 0 0 0 0 0 0 0 0 0 0 0 0 0 0 0.11 0"/>
<feBlend mode="normal" in2="BackgroundImageFix" result="effect1_dropShadow_2797_72"/>
<feBlend mode="normal" in="SourceGraphic" in2="effect1_dropShadow_2797_72" result="shape"/>
</filter>
<clipPath id="clip0_2797_72">
<rect width="37" height="37" fill="white" transform="translate(48.7427 52.2113) rotate(-15)"/>
</clipPath>
</defs>
</svg>
