<svg width="120" height="119" viewBox="0 0 120 119" fill="none" xmlns="http://www.w3.org/2000/svg">
<g filter="url(#filter0_d_173_440)">
<rect x="31.165" y="16" width="67" height="67" rx="33.5" transform="rotate(7.86238 31.165 16)" fill="white" fill-opacity="0.5" shape-rendering="crispEdges"/>
<g clip-path="url(#clip0_173_440)">
<path d="M46.7006 47.1057C46.9602 45.2246 48.6948 43.9109 50.5759 44.1705C52.4569 44.4302 53.7707 46.1648 53.511 48.0458C53.2513 49.9269 51.5167 51.2406 49.6357 50.9809C47.7547 50.7213 46.4409 48.9867 46.7006 47.1057ZM59.7344 48.2109C61.6154 48.4706 63.35 47.1569 63.6097 45.2758C63.8693 43.3948 62.5556 41.6602 60.6745 41.4005C58.7935 41.1409 57.0589 42.4546 56.7993 44.3357C56.5396 46.2167 57.8533 47.9513 59.7344 48.2109ZM69.833 45.441C71.7141 45.7006 73.4487 44.3869 73.7083 42.5058C73.968 40.6248 72.6543 38.8902 70.7732 38.6305C68.8922 38.3709 67.1576 39.6846 66.8979 41.5657C66.6383 43.4467 67.952 45.1813 69.833 45.441ZM70.3261 46.8971L68.964 46.709C65.9592 46.2942 63.1783 48.4004 62.7635 51.4052L62.0114 56.8535C61.7342 58.8612 62.5976 60.7516 64.0879 61.9206L63.0432 69.4883C62.9394 70.2402 63.4654 70.9347 64.2173 71.0385C64.9691 71.1423 65.6636 70.6163 65.7674 69.8644L66.7075 63.054L68.0696 63.242L67.1295 70.0524C67.0257 70.8043 67.5516 71.4988 68.3035 71.6026C69.0554 71.7064 69.7498 71.1804 69.8536 70.4285L70.8983 62.8608C72.6497 62.1393 73.9929 60.5536 74.2701 58.5458L75.0222 53.0975C75.437 50.0928 73.3308 47.3119 70.3261 46.8971ZM59.2872 56.4775L60.0393 51.0291C60.1029 50.5687 60.2126 50.1258 60.3469 49.696C60.306 49.6904 60.2696 49.6729 60.2274 49.667L58.8653 49.479C55.8605 49.0642 53.0796 51.1704 52.6648 54.1752L52.2888 56.8994C52.0116 58.9071 52.8749 60.7974 54.3653 61.9664L53.5086 68.1721C53.4048 68.924 53.9308 69.6184 54.6827 69.7222C55.4345 69.826 56.129 69.3 56.2328 68.5482L56.9849 63.0998L58.347 63.2879C59.3427 63.4253 60.3031 63.265 61.1715 62.9074C59.6753 61.1366 58.9672 58.7957 59.2872 56.4775ZM49.5646 56.5233L49.9407 53.7991C50.0048 53.3347 50.1151 52.8877 50.2513 52.454L48.0856 52.155C45.4568 51.7921 43.0231 53.6353 42.6602 56.2642L42.4721 57.6262C42.2106 59.5209 43.1057 61.3018 44.6042 62.2915L43.9741 66.8558C43.8703 67.6077 44.3962 68.3022 45.1481 68.406C45.9 68.5098 46.5944 67.9838 46.6982 67.2319L47.2623 63.1457L49.3055 63.4277C50.1118 63.539 50.89 63.4216 51.605 63.1594C50.0401 61.4138 49.2197 59.0214 49.5646 56.5233Z" fill="white"/>
</g>
</g>
<defs>
<filter id="filter0_d_173_440" x="-3.76338" y="-4.13204" width="127.062" height="127.062" filterUnits="userSpaceOnUse" color-interpolation-filters="sRGB">
<feFlood flood-opacity="0" result="BackgroundImageFix"/>
<feColorMatrix in="SourceAlpha" type="matrix" values="0 0 0 0 0 0 0 0 0 0 0 0 0 0 0 0 0 0 127 0" result="hardAlpha"/>
<feOffset dy="5.63134"/>
<feGaussianBlur stdDeviation="12.8817"/>
<feComposite in2="hardAlpha" operator="out"/>
<feColorMatrix type="matrix" values="0 0 0 0 0 0 0 0 0 0 0 0 0 0 0 0 0 0 0.11 0"/>
<feBlend mode="normal" in2="BackgroundImageFix" result="effect1_dropShadow_173_440"/>
<feBlend mode="normal" in="SourceGraphic" in2="effect1_dropShadow_173_440" result="shape"/>
</filter>
<clipPath id="clip0_173_440">
<rect width="33" height="33" fill="white" transform="translate(45.5747 35.1519) rotate(7.86)"/>
</clipPath>
</defs>
</svg>
