<svg viewBox="0 0 32 32" fill="none" xmlns="http://www.w3.org/2000/svg">
<circle cx="16" cy="16" r="16" fill="#F4F4F4"/>
<path d="M18.5 10V9C18.5 8.73736 18.4353 8.47728 18.3097 8.23463C18.1841 7.99198 17.9999 7.7715 17.7678 7.58579C17.5356 7.40007 17.26 7.25275 16.9567 7.15224C16.6534 7.05173 16.3283 7 16 7C15.6717 7 15.3466 7.05173 15.0433 7.15224C14.74 7.25275 14.4644 7.40007 14.2322 7.58579C14.0001 7.7715 13.8159 7.99198 13.6903 8.23463C13.5647 8.47728 13.5 8.73736 13.5 9V10M18.5 10H20.5C21.0523 10 21.5 10.4477 21.5 11V21.5C21.5 22.0523 21.0523 22.5 20.5 22.5H11.5C10.9477 22.5 10.5 22.0523 10.5 21.5V11C10.5 10.4477 10.9477 10 11.5 10H13.5M18.5 10H13.5" stroke="#1F4397" stroke-linecap="round"/>
<circle cx="12" cy="23" r="1" fill="#1F4397"/>
<circle cx="20" cy="23" r="1" fill="#1F4397"/>
<line x1="14.5" y1="13" x2="14.5" y2="20" stroke="#1F4397"/>
<line x1="17.5" y1="13" x2="17.5" y2="20" stroke="#1F4397"/>
</svg>
