<svg viewBox="0 0 32 32" fill="none" xmlns="http://www.w3.org/2000/svg">
<circle cx="16" cy="16" r="16" fill="#F4F4F4"/>
<path d="M20.5764 8L20.5764 7.965H20.5414H12.4756H12.4407L12.4406 7.99991L12.4223 15.3494H10.0996V15.2584C10.4024 15.1511 10.6201 14.8666 10.6201 14.5323C10.6201 14.1058 10.2661 13.7602 9.83231 13.7602C9.39854 13.7602 9.04448 14.1058 9.04448 14.5323C9.04448 14.8666 9.26223 15.1511 9.56506 15.2584V20.6703H9.17192C8.50706 20.6703 7.965 21.1999 7.965 21.8526C7.965 22.5054 8.50706 23.035 9.17192 23.035H23.8256V23.0353L23.8281 23.035C23.8281 23.035 23.8281 23.035 23.8281 23.035C24.4929 23.035 25.035 22.5053 25.035 21.8526C25.035 21.1999 24.4929 20.6705 23.8281 20.6705L23.8251 20.6706L23.4325 20.6705V15.2587C23.7353 15.1513 23.9531 14.8668 23.9531 14.5325C23.9531 14.106 23.599 13.7604 23.1653 13.7604C22.7315 13.7604 22.3774 14.106 22.3774 14.5325C22.3774 14.8668 22.5952 15.1513 22.898 15.2587V15.3496H20.5754L20.5764 8ZM23.8256 21.1952V21.1955L23.8281 21.1952C23.8281 21.1952 23.8281 21.1952 23.8281 21.1952C24.1995 21.1952 24.5005 21.4909 24.5005 21.8528C24.5005 22.2146 24.1995 22.5104 23.8281 22.5104L23.8251 22.5105L9.17192 22.5104C8.80049 22.5104 8.49949 22.2146 8.49949 21.8528C8.49949 21.4909 8.80049 21.1952 9.17192 21.1952H23.8256ZM23.1653 14.2851C23.3056 14.2851 23.4186 14.3968 23.4186 14.5324C23.4186 14.668 23.3056 14.7797 23.1653 14.7797C23.0249 14.7797 22.9119 14.668 22.9119 14.5324C22.9119 14.3968 23.0249 14.2851 23.1653 14.2851ZM22.898 20.6705H21.5277V15.8744H22.898V20.6705ZM12.0042 20.6705V15.8744H13.3744V20.6705H12.0042ZM13.909 15.8743H15.2793V20.6704H13.909V15.8743ZM15.8136 15.8743H17.1839V20.6704H15.8136V15.8743ZM17.7184 15.8743H19.0886V20.6704H17.7184V15.8743ZM19.6231 15.8743H20.9933V20.6704H19.6231V15.8743ZM16.766 15.3495V8.48965H20.0409V15.3495H16.766ZM12.9565 8.48965H16.2316V15.3495H12.9565V8.48965ZM9.83231 14.2851C9.97266 14.2851 10.0856 14.3968 10.0856 14.5324C10.0856 14.668 9.97266 14.7797 9.83231 14.7797C9.69197 14.7797 9.57898 14.668 9.57898 14.5324C9.57898 14.3968 9.69197 14.2851 9.83231 14.2851ZM10.0996 15.8743H11.4697V20.6704H10.0996V15.8743Z" fill="#1F4397" stroke="black" stroke-width="0.07"/>
</svg>
