<svg viewBox="0 0 32 32" fill="none" xmlns="http://www.w3.org/2000/svg">
<circle cx="16" cy="16" r="16" fill="#F4F4F4"/>
<path d="M22.7027 17.3873H8.29734C8.08903 17.3873 7.9 17.5393 7.9 17.7515V20.2964C7.9 20.5086 8.08903 20.6606 8.29734 20.6606H22.7027C22.911 20.6606 23.1 20.5086 23.1 20.2964V17.7515C23.1 17.5393 22.911 17.3873 22.7027 17.3873ZM22.3053 19.9322H8.69469V18.1157H22.3053V19.9322Z" fill="#1F4397" stroke="#1F4397" stroke-width="0.2"/>
<path d="M9.95264 14.789H9.95344V14.689C9.95344 11.9882 12.4306 9.77137 15.499 9.77137C18.5674 9.77137 21.0466 11.9882 21.0466 14.689C21.0466 15.0839 20.9917 15.4746 20.8867 15.8553H10.1113C10.0152 15.5067 9.96112 15.1487 9.95264 14.789ZM8.29734 16.5837H22.7027C22.911 16.5837 23.1 16.4317 23.1 16.2195C23.1 16.0073 22.911 15.8553 22.7027 15.8553H21.7029C21.7939 15.4735 21.8432 15.083 21.8432 14.689C21.8432 11.6846 19.2007 9.23823 15.8983 9.05482V8.62836H15.9748C16.1831 8.62836 16.3721 8.47638 16.3721 8.26418C16.3721 8.05198 16.1831 7.9 15.9748 7.9H15.0252C14.8169 7.9 14.6279 8.05198 14.6279 8.26418C14.6279 8.47638 14.8169 8.62836 15.0252 8.62836H15.1017V9.05482C11.7993 9.23823 9.15677 11.6846 9.15677 14.689C9.15677 15.0831 9.20613 15.4736 9.29564 15.8553H8.29734C8.08903 15.8553 7.9 16.0073 7.9 16.2195C7.9 16.4317 8.08903 16.5837 8.29734 16.5837Z" fill="#1F4397" stroke="#1F4397" stroke-width="0.2"/>
</svg>
