<svg viewBox="0 0 32 32" fill="none" xmlns="http://www.w3.org/2000/svg">
<circle cx="16" cy="16" r="16" fill="#F4F4F4"/>
<path d="M8.83857 9.7236C8.75714 9.64424 8.71429 9.53983 8.71429 9.42706C8.71429 9.31847 8.76143 9.20987 8.83857 9.13052L8.90286 9.0804L8.98 9.04281L9.05714 9.0094C9.11286 8.99687 9.16857 8.99687 9.22429 9.0094C9.25429 9.0094 9.28 9.02193 9.30571 9.03446C9.33143 9.04281 9.35714 9.05534 9.37857 9.07205C9.40429 9.08458 9.42571 9.10128 9.44714 9.12217C9.52857 9.2057 9.57143 9.31429 9.57143 9.42706C9.57143 9.53983 9.52857 9.64424 9.44714 9.7236C9.40429 9.76119 9.35714 9.79042 9.30571 9.81131C9.20286 9.85725 9.08286 9.85725 8.98 9.81131C8.92857 9.79042 8.88143 9.76119 8.83857 9.7236ZM22.8571 9.84472C22.9129 9.84472 22.9686 9.83219 23.02 9.81131C23.0714 9.79042 23.1186 9.76119 23.1614 9.7236C23.2429 9.64424 23.2857 9.53983 23.2857 9.42706C23.2857 9.19734 23.0971 9.0094 22.8614 9.00522C22.7457 9.00522 22.6343 9.05116 22.5529 9.13052C22.5143 9.17229 22.4843 9.21823 22.4586 9.26835C22.3686 9.48135 22.4714 9.72777 22.69 9.81131C22.7414 9.83219 22.7971 9.84472 22.8571 9.84472ZM25 17.0494C25 20.3322 20.9629 23.001 16 23.001C11.0371 23.001 7 20.3322 7 17.0494C7 16.8197 7.19286 16.6317 7.42857 16.6317C7.66429 16.6317 7.85714 16.8197 7.85714 17.0494C7.87429 17.8805 8.17429 18.6783 8.71429 19.3214V10.68C8.71429 10.4503 8.90714 10.2624 9.14286 10.2624C9.37857 10.2624 9.57143 10.4503 9.57143 10.68V11.5154H22.4286V10.68C22.4286 10.4503 22.6214 10.2624 22.8571 10.2624C23.0929 10.2624 23.2857 10.4503 23.2857 10.68V19.3214C23.8257 18.6783 24.1257 17.8805 24.1429 17.0494C24.1429 16.8197 24.3357 16.6317 24.5714 16.6317C24.8071 16.6317 25 16.8197 25 17.0494ZM22.4286 12.3507H20.7143V18.1979H22.4286V12.3507ZM19.8571 18.1979V12.3507H18.1429V18.1979H19.8571ZM17.2857 18.1979V12.3507H14.7143V18.1979H17.2857ZM13.8571 18.1979V12.3507H12.1429V18.1979H13.8571ZM9.57143 12.3507V18.1979H11.2857V12.3507H9.57143ZM16 22.1657C18.6143 22.1657 20.9371 21.3847 22.4286 20.1777V19.0333H9.57143V20.1777C11.0629 21.3847 13.3857 22.1657 16 22.1657Z" fill="#1F4397"/>
</svg>
