<svg viewBox="0 0 32 32" fill="none" xmlns="http://www.w3.org/2000/svg">
<circle cx="16" cy="16" r="16" fill="#F4F4F4"/>
<path d="M20.6923 10H11.4615C8.93846 10 8 10.8989 8 13.3158V16.2631C8 18.68 8.93846 19.5789 11.4615 19.5789H20.6923C23.2154 19.5789 24.1538 18.68 24.1538 16.2631V13.3158C24.1538 10.8989 23.2154 10 20.6923 10ZM11.8615 18.8421C11.9385 17.1474 12.5923 16.6316 14.5384 16.6316H17.6154C19.5615 16.6316 20.2154 17.1474 20.2923 18.8421H11.8615ZM23.3846 16.2631C23.3846 18.1347 22.8384 18.7537 21.0538 18.8274C20.9538 16.7126 19.9923 15.8947 17.6154 15.8947H14.5384C12.1615 15.8947 11.2 16.7126 11.1 18.8274C9.31538 18.7537 8.76923 18.1347 8.76923 16.2631V13.3158C8.76923 11.3189 9.37692 10.7368 11.4615 10.7368H20.6923C22.7769 10.7368 23.3846 11.3189 23.3846 13.3158V16.2631Z" fill="#1F4397"/>
<path d="M13.0018 21.7896C12.7864 21.7896 12.6172 21.9517 12.6172 22.158V22.8948C12.6172 23.1011 12.7864 23.2632 13.0018 23.2632C13.2172 23.2632 13.3864 23.1011 13.3864 22.8948V22.158C13.3864 21.9517 13.2172 21.7896 13.0018 21.7896Z" fill="#1F4397"/>
<path d="M16.0721 21.0527C15.8567 21.0527 15.6875 21.2148 15.6875 21.4212V23.6317C15.6875 23.838 15.8567 24.0001 16.0721 24.0001C16.2875 24.0001 16.4567 23.838 16.4567 23.6317V21.4212C16.4567 21.2148 16.2875 21.0527 16.0721 21.0527Z" fill="#1F4397"/>
<path d="M19.1502 21.7896C18.9349 21.7896 18.7656 21.9517 18.7656 22.158V22.8948C18.7656 23.1011 18.9349 23.2632 19.1502 23.2632C19.3656 23.2632 19.5349 23.1011 19.5349 22.8948V22.158C19.5349 21.9517 19.3656 21.7896 19.1502 21.7896Z" fill="#1F4397"/>
<path d="M20.6887 12.2104H19.1502C18.9349 12.2104 18.7656 12.3726 18.7656 12.5789C18.7656 12.7852 18.9349 12.9473 19.1502 12.9473H20.6887C20.9041 12.9473 21.0733 12.7852 21.0733 12.5789C21.0733 12.3726 20.9041 12.2104 20.6887 12.2104Z" fill="#1F4397"/>
</svg>
