<svg  viewBox="0 0 32 32" fill="none" xmlns="http://www.w3.org/2000/svg">
<circle cx="16" cy="16" r="16" fill="#F4F4F4"/>
<path fill-rule="evenodd" clip-rule="evenodd" d="M18.6164 13.1792L17.956 10.9095C17.729 10.125 18.1567 9.2979 18.9148 9.06296C19.6728 8.82803 20.4721 9.27072 20.701 10.0551L22.2601 15.416H22.7386L24.4272 9.86486C24.476 9.70564 24.6411 9.61633 24.795 9.66681C24.9488 9.71729 25.0351 9.88816 24.9864 10.0474L23.2302 15.816V22.6971C23.2302 22.8641 23.0988 23 22.9375 23H10.0531C9.89178 23 9.76044 22.8641 9.76044 22.6971V15.781L8.01364 10.0454C7.96486 9.88622 8.05116 9.71535 8.20502 9.66487C8.35887 9.61439 8.52398 9.7037 8.57277 9.86292L10.2614 15.414H10.9406L11.1883 13.0122C10.8318 12.721 10.6254 12.2531 10.6761 11.7502C10.7286 11.2395 11.0757 10.8143 11.5542 10.6745C11.5936 10.6629 11.6348 10.6512 11.6761 10.6396C13.1715 10.2027 14.772 10.3794 16.1454 11.1308C16.1848 11.1522 16.2223 11.1716 16.258 11.1929C16.697 11.4337 16.9503 11.9249 16.8978 12.4356C16.8471 12.9385 16.5469 13.3501 16.1398 13.5598L15.9484 15.416H16.0291C16.0253 15.3636 16.0234 15.3111 16.0253 15.2665C16.0516 14.7267 16.3293 13.9151 16.727 13.3617C17.0366 12.9307 17.425 12.6647 17.8078 12.686C18.1023 12.7016 18.3819 12.886 18.6164 13.1792ZM11.2033 16.0218H10.344V22.3923H22.6485V16.0218H11.2052H11.2033ZM16.4681 21.6331H16.5056C16.5751 21.6311 16.6388 21.602 16.6914 21.5535C16.6914 21.5535 17.6652 20.6215 18.4119 19.7186C18.9598 19.0565 18.9598 17.9848 18.4119 17.3227C17.8903 16.6916 17.0854 16.6159 16.4944 17.0877C16.2467 16.8858 15.9521 16.779 15.6501 16.779C15.2523 16.779 14.8676 16.9654 14.5862 17.3052C14.3179 17.6275 14.1659 18.0624 14.1659 18.5187C14.1659 18.975 14.3179 19.4099 14.5862 19.7322C15.3311 20.6312 16.2936 21.5515 16.2936 21.5515L16.3368 21.5865L16.3855 21.6117L16.4381 21.6273L16.4681 21.6311V21.6331ZM16.4719 17.8061C16.3931 17.8003 16.3218 17.7615 16.2711 17.7013C16.106 17.5032 15.8865 17.3867 15.6519 17.3867C15.4174 17.3867 15.1979 17.5032 15.0328 17.7013C14.8526 17.9187 14.7551 18.2139 14.7551 18.5207C14.7551 18.8274 14.8526 19.1226 15.0328 19.34C15.5525 19.9672 16.1792 20.604 16.4944 20.9127C16.8115 20.6001 17.4456 19.9536 17.9691 19.3245C18.3369 18.8799 18.3369 18.1615 17.9691 17.7188C17.6239 17.3013 17.0648 17.2955 16.7158 17.7071C16.6595 17.7731 16.5807 17.81 16.4962 17.81H16.4756L16.4719 17.8061ZM15.3592 15.414H11.5298L11.7887 12.8977C11.8018 12.7773 11.7437 12.6627 11.6442 12.6026C11.3853 12.4472 11.2239 12.1424 11.2577 11.8162C11.2859 11.5521 11.4641 11.3308 11.7118 11.259C11.7512 11.2473 11.7924 11.2357 11.8337 11.2221C13.1846 10.8298 14.6294 10.9871 15.8696 11.6667C15.909 11.6881 15.9465 11.7075 15.9822 11.7288C16.2092 11.8531 16.3405 12.1074 16.3124 12.3715C16.2786 12.7016 16.0591 12.9618 15.7739 13.0588C15.6632 13.0957 15.5844 13.1967 15.5731 13.3151L15.3574 15.416L15.3592 15.414ZM21.2526 14.0491L19.8247 15.2257L19.8792 15.414H21.6485L21.2507 14.0491H21.2526ZM18.7365 15.414H16.6145C16.6107 15.3713 16.6107 15.3306 16.6107 15.2956C16.6332 14.849 16.8677 14.1792 17.1961 13.7209C17.3706 13.4763 17.5582 13.2782 17.7759 13.2899C17.9916 13.3015 18.1586 13.519 18.3087 13.7792C18.5902 14.2704 18.7553 14.9616 18.7346 15.4082V15.4121L18.7365 15.414ZM19.3857 13.719L19.6427 14.6005L21.0706 13.4219L20.8135 12.5404L19.3857 13.7171V13.719ZM18.9467 12.2142L19.2037 13.0957L20.6315 11.9191L20.3745 11.0376L18.9467 12.2162V12.2142ZM20.1925 10.4105L18.7647 11.5871L18.517 10.7347C18.3838 10.2726 18.6352 9.78331 19.0836 9.64351C19.532 9.50371 20.003 9.76583 20.1381 10.2299L20.1906 10.4105H20.1925Z" fill="#1F4397"/>
</svg>
