<svg viewBox="0 0 32 32" fill="none" xmlns="http://www.w3.org/2000/svg">
<circle cx="16" cy="16" r="16" fill="#F4F4F4"/>
<path d="M19.9486 12.892C20.1506 12.892 20.3144 12.7283 20.3144 12.5262C20.3144 12.3242 20.1506 12.1604 19.9486 12.1604C19.7466 12.1604 19.5828 12.3242 19.5828 12.5262C19.5828 12.7283 19.7466 12.892 19.9486 12.892Z" fill="#1F4397" stroke="#1F4397" stroke-width="0.1"/>
<path d="M19.9486 17.3129C20.1506 17.3129 20.3144 17.1492 20.3144 16.9471C20.3144 16.7451 20.1506 16.5813 19.9486 16.5813C19.7466 16.5813 19.5828 16.7451 19.5828 16.9471C19.5828 17.1492 19.7466 17.3129 19.9486 17.3129Z" fill="#1F4397" stroke="#1F4397" stroke-width="0.1"/>
<path d="M24.3684 9.95H7.31579C7.11133 9.95 6.95 10.1113 6.95 10.3158C6.95 10.5202 7.11133 10.6816 7.31579 10.6816H8.21316V21.6842C8.21316 21.8887 8.37449 22.05 8.57895 22.05C8.7834 22.05 8.94474 21.8887 8.94474 21.6842V13.8395H16.4237V19.1579C16.4237 19.3624 16.585 19.5237 16.7895 19.5237H22.7395V21.6842C22.7395 21.8887 22.9008 22.05 23.1053 22.05C23.3097 22.05 23.4711 21.8887 23.4711 21.6842V10.6816H24.3684C24.5729 10.6816 24.7342 10.5202 24.7342 10.3158C24.7342 10.1113 24.5729 9.95 24.3684 9.95ZM8.94474 13.1079V10.6816H16.4237V13.1079H8.94474ZM17.1553 18.7921V15.1026H22.7395V18.7921H17.1553ZM22.7395 14.3711H17.1553V10.6816H22.7395V14.3711Z" fill="#1F4397" stroke="#1F4397" stroke-width="0.1"/>
<path d="M12.683 12.2607C12.885 12.2607 13.0488 12.0969 13.0488 11.8949C13.0488 11.6929 12.885 11.5291 12.683 11.5291C12.481 11.5291 12.3172 11.6929 12.3172 11.8949C12.3172 12.0969 12.481 12.2607 12.683 12.2607Z" fill="#1F4397" stroke="#1F4397" stroke-width="0.1"/>
</svg>
