<svg viewBox="0 0 32 32" fill="none" xmlns="http://www.w3.org/2000/svg">
<circle cx="16" cy="16" r="16" fill="#F4F4F4"/>
<path d="M10.291 20.7082L10.291 20.7082C10.1911 21.2889 10.3464 21.8871 10.7188 22.3374C11.0909 22.7874 11.6357 23.05 12.209 23.05H19.2182C19.7855 23.05 20.325 22.799 20.6921 22.3542C21.0586 21.9156 21.2252 21.329 21.1364 20.7592C21.1364 20.7591 21.1363 20.7591 21.1363 20.759L20.8603 18.8643C22.1755 18.2979 23.049 16.9843 23.049 15.5C23.049 13.622 21.6318 12.0479 19.8417 11.8651L19.799 11.5682C19.7752 10.1881 18.6715 9.06667 17.3169 9.06667H16.0128V8.60556H16.7753C16.9557 8.60556 17.0961 8.45975 17.0961 8.27778C17.0961 8.09581 16.9557 7.95 16.7753 7.95H14.6086C14.4281 7.95 14.2878 8.09581 14.2878 8.27778C14.2878 8.45975 14.4281 8.60556 14.6086 8.60556H15.3711V9.06111H14.0669C12.8035 9.06111 11.7694 10.0365 11.612 11.2833H10.2698C10.1402 11.2833 10.0251 11.3632 9.97443 11.4866C9.92312 11.6115 9.95547 11.7492 10.0445 11.8405L11.5542 13.3889L10.291 20.7082ZM10.9204 20.8252L10.9204 20.8251L12.2094 13.3368C12.2095 13.3367 12.2095 13.3366 12.2095 13.3365C12.2283 13.2331 12.1974 13.1216 12.1196 13.0477L11.0435 11.9389H19.2023L19.2445 12.2183L19.2446 12.2186L20.1925 18.7072L20.1925 18.7073L20.5066 20.8462L20.5066 20.8463C20.5641 21.2323 20.4543 21.6235 20.2089 21.918L20.2078 21.917L20.2024 21.9281L20.1997 21.9337C19.9545 22.2252 19.5912 22.3944 19.2182 22.3944H12.209C11.8232 22.3944 11.4582 22.2234 11.2077 21.9183C10.9569 21.6129 10.8524 21.2165 10.9204 20.8252ZM20.7629 18.1981L19.9382 12.5372C21.3275 12.7633 22.4073 14.0146 22.4073 15.5C22.4073 16.6635 21.7616 17.7051 20.7629 18.1981ZM14.0615 9.71667H17.3115C18.2193 9.71667 18.9773 10.3955 19.1274 11.2833H12.2456C12.3958 10.3955 13.1538 9.71667 14.0615 9.71667Z" fill="#1F4397" stroke="black" stroke-width="0.1"/>
</svg>
