<svg viewBox="0 0 32 32" fill="none" xmlns="http://www.w3.org/2000/svg">
<circle cx="16" cy="16" r="16" fill="#F4F4F4"/>
<path d="M20.9 20.5H11.1C10.5399 20.5 10.2599 20.5 10.046 20.391C9.85785 20.2951 9.70487 20.1422 9.60899 19.954C9.5 19.7401 9.5 19.4601 9.5 18.9V13.1C9.5 12.5399 9.5 12.2599 9.60899 12.046C9.70487 11.8578 9.85785 11.7049 10.046 11.609C10.2599 11.5 10.5399 11.5 11.1 11.5H11.5L12 10.5H15L15.5 11.5H20.9C21.4601 11.5 21.7401 11.5 21.954 11.609C22.1422 11.7049 22.2951 11.8578 22.391 12.046C22.5 12.2599 22.5 12.5399 22.5 13.1V18.9C22.5 19.4601 22.5 19.7401 22.391 19.954C22.2951 20.1422 22.1422 20.2951 21.954 20.391C21.7401 20.5 21.4601 20.5 20.9 20.5Z" stroke="#1F4397" stroke-linecap="round" stroke-linejoin="round"/>
<path d="M12.5 14.5V17.5" stroke="#1F4397" stroke-linecap="round"/>
<circle cx="18" cy="16" r="2.5" stroke="#1F4397"/>
</svg>
