<svg viewBox="0 0 32 32" fill="none" xmlns="http://www.w3.org/2000/svg">
<circle cx="16" cy="16" r="16" fill="#F4F4F4"/>
<path d="M26.6379 12.9697H6.75914V10.3513C6.75914 10.1371 6.58026 9.965 6.36207 9.965C6.14388 9.965 5.965 10.1371 5.965 10.3513V18.6458C5.965 18.8601 6.14388 19.0322 6.36207 19.0322C6.58026 19.0322 6.75914 18.8601 6.75914 18.6458V17.3795H26.2409V18.6487C26.2409 18.8629 26.4197 19.035 26.6379 19.035C26.8561 19.035 27.035 18.8629 27.035 18.6487V13.356C27.035 13.1418 26.8561 12.9697 26.6379 12.9697ZM6.75914 16.6068V13.7424H26.2409V16.6068H6.75914Z" fill="#1F4397" stroke="#1F4397" stroke-width="0.07"/>
<path d="M7.96166 12.781H11.0928C11.6412 12.781 12.0895 12.3475 12.0895 11.8128V11.5543C12.0895 11.0196 11.6412 10.5861 11.0928 10.5861H7.96166C7.41333 10.5861 6.965 11.0167 6.965 11.5543V11.8128C6.965 12.3475 7.41326 12.781 7.96166 12.781ZM7.75914 11.5543C7.75914 11.4481 7.84964 11.3588 7.96166 11.3588H11.0928C11.2048 11.3588 11.2953 11.4481 11.2953 11.5543V11.8128C11.2953 11.919 11.2048 12.0083 11.0928 12.0083H7.96166C7.84936 12.0083 7.75914 11.9216 7.75914 11.8128V11.5543Z" fill="#1F4397" stroke="#1F4397" stroke-width="0.07"/>
</svg>
