<svg viewBox="0 0 32 32" fill="none" xmlns="http://www.w3.org/2000/svg">
    <circle cx="16" cy="16" r="16" fill="#F4F4F4"/>
    <path d="M19.0486 8.31209C20.2761 8.04618 21.5397 8.36126 22.5135 9.17176L22.5148 9.17076C23.4907 9.98481 24.0483 11.1889 24.0483 12.4775C24.0483 13.7661 23.489 14.9719 22.5149 15.7842C22.0919 16.1382 21.6123 16.3928 21.1074 16.5513L19.6468 21.9958C19.6468 21.9958 19.6468 21.9958 19.6468 21.9958C19.5251 22.4497 19.1185 22.7689 18.6581 22.7689H18.0802L17.845 23.799L17.845 23.7991C17.8109 23.9474 17.6819 24.0499 17.5369 24.0499C17.5136 24.0499 17.4888 24.048 17.4632 24.0414M19.0486 8.31209L17.2774 23.6635L17.2287 23.6522C17.2287 23.6522 17.2287 23.6523 17.2287 23.6523C17.1887 23.8251 17.2926 23.9995 17.4632 24.0414M19.0486 8.31209L11.6863 9.89573L8.42457 7.99182L8.42457 7.99182L8.42437 7.9917C8.32697 7.93545 8.20551 7.93545 8.10811 7.9917L8.10811 7.9917L8.10743 7.99211C8.01037 8.05024 7.95 8.15594 7.95 8.27158V16.6852C7.95 16.7989 8.01022 16.9064 8.10743 16.9646C8.15658 16.9941 8.21333 17.0085 8.26795 17.0085C8.32315 17.0085 8.37583 16.9938 8.42366 16.9672L8.42367 16.9672L8.42456 16.9667L11.688 15.0628L16.9959 16.2051L16.0165 21.5216L19.0486 8.31209ZM17.4632 24.0414C17.4631 24.0414 17.463 24.0414 17.463 24.0414L17.4754 23.9929L17.4635 24.0415C17.4634 24.0415 17.4633 24.0415 17.4632 24.0414ZM17.0231 22.7689H17.4298L16.0165 21.5217C15.9593 21.8303 16.038 22.1447 16.2332 22.3875L16.2334 22.3876C16.4286 22.6286 16.7175 22.7689 17.0231 22.7689ZM19.9057 16.7404C20.0745 16.7404 20.2428 16.727 20.4096 16.7049L19.0365 21.8261C18.9893 22.0013 18.8328 22.1221 18.6581 22.1221H17.0214C16.9053 22.1221 16.7951 22.0695 16.7209 21.9763C16.646 21.882 16.6144 21.7601 16.637 21.6437L16.6371 21.6432L17.6142 16.34L19.0486 16.6481C19.0486 16.6482 19.0487 16.6482 19.0487 16.6482C19.3338 16.7103 19.6206 16.7404 19.9057 16.7404ZM22.1162 9.67514L22.1163 9.67518C22.9426 10.363 23.4158 11.3845 23.4158 12.4792C23.4158 13.574 22.9426 14.5938 22.1163 15.2833C21.29 15.9711 20.2202 16.237 19.1789 16.0141L11.9497 14.4577V10.5008L19.1789 8.94435C20.2202 8.72152 21.29 8.9857 22.1162 9.67514ZM11.3173 10.426V14.5325L8.58248 16.1284V8.83007L11.3173 10.426Z"
          fill="#F4F4F4" stroke="#1F4397" stroke-width="0.4"/>
    <path d="M20.8467 10.493H18.9694C18.7937 10.493 18.6531 10.6393 18.6531 10.8164C18.6531 10.9934 18.7937 11.1397 18.9694 11.1397H20.8467C21.0223 11.1397 21.1629 10.9934 21.1629 10.8164C21.1629 10.6393 21.0223 10.493 20.8467 10.493Z"
          fill="#1F4397" stroke="#1F4397" stroke-width="0.2"/>
    <path d="M20.8467 12.1561H18.9694C18.7937 12.1561 18.6531 12.3024 18.6531 12.4794C18.6531 12.6565 18.7937 12.8028 18.9694 12.8028H20.8467C21.0223 12.8028 21.1629 12.6565 21.1629 12.4794C21.1629 12.3024 21.0223 12.1561 20.8467 12.1561Z"
          fill="#1F4397" stroke="#1F4397" stroke-width="0.2"/>
    <path d="M20.8467 13.8172H18.9694C18.7937 13.8172 18.6531 13.9635 18.6531 14.1406C18.6531 14.3176 18.7937 14.464 18.9694 14.464H20.8467C21.0223 14.464 21.1629 14.3176 21.1629 14.1406C21.1629 13.9635 21.0223 13.8172 20.8467 13.8172Z"
          fill="#1F4397" stroke="#1F4397" stroke-width="0.2"/>
</svg>
