<svg viewBox="0 0 32 32" fill="none" xmlns="http://www.w3.org/2000/svg">
<circle cx="16" cy="16" r="16" fill="#F4F4F4"/>
<path d="M16.4912 12.8336C15.0212 12.8336 13.8266 11.5621 13.8266 9.96682C13.8266 8.37151 15.0212 7.1 16.4912 7.1C17.9613 7.1 19.1559 8.37151 19.1559 9.96682C19.1559 11.5621 17.9613 12.8336 16.4912 12.8336ZM16.4912 8.38341C15.6432 8.38341 15.0089 9.11834 15.0089 9.96682C15.0089 10.8171 15.6823 11.5502 16.4912 11.5502C17.3002 11.5502 17.9736 10.8171 17.9736 9.96682C17.9736 9.11651 17.3002 8.38341 16.4912 8.38341Z" fill="#1F4397" stroke="#F4F4F4" stroke-width="0.2"/>
<path d="M20.4092 21.0602L20.336 20.992L20.4092 21.0602L20.4092 21.0601L20.4093 21.0601L20.4095 21.0599L20.4098 21.0595L20.4107 21.0585L20.4131 21.0559L20.42 21.0475C20.4253 21.0409 20.4324 21.0313 20.4396 21.0197C20.4522 20.9994 20.4734 20.96 20.4734 20.9118H20.3734L20.4734 20.9118V20.9117V20.9116L20.4734 20.9114L20.4734 20.9109L20.4733 20.9094L20.4732 20.9051C20.4731 20.9016 20.4729 20.897 20.4725 20.8916C20.4717 20.8811 20.47 20.8657 20.4661 20.8491C20.4626 20.8339 20.4555 20.8096 20.4396 20.7869C20.428 20.7703 20.4092 20.7516 20.3829 20.7408L18.494 19.1908C17.8838 18.69 17.5219 17.8774 17.5219 17.063V15.6598C17.5219 14.4265 18.4539 13.4745 19.5514 13.4745H21.7183C22.0302 13.4745 22.2908 13.7437 22.2908 14.0962C22.2908 14.4486 22.0302 14.7178 21.7183 14.7178H19.5514C19.0817 14.7178 18.6669 15.127 18.6669 15.6598V17.063C18.6669 17.4925 18.866 17.9225 19.1895 18.183C19.1896 18.1831 19.1897 18.1832 19.1898 18.1833L21.0936 19.7456C21.4443 20.047 21.6557 20.4999 21.6557 20.992C21.6557 21.48 21.4106 21.9303 21.0268 22.1924L21.0268 22.1924L21.0257 22.1932L18.7467 23.7969L18.746 23.7973C18.6524 23.8643 18.5237 23.8989 18.4306 23.8989V23.8588C18.2398 23.8588 18.0505 23.7557 17.9575 23.5893L17.9579 23.5891L17.9522 23.5808C17.764 23.3116 17.8536 22.8899 18.1173 22.6756L20.3936 21.0738L20.4021 21.0678L20.4092 21.0602Z" fill="#1F4397" stroke="#F4F4F4" stroke-width="0.2"/>
<path d="M12.5347 20.8718H12.6347L12.5347 20.8719L12.5347 20.8719L12.5347 20.872L12.5347 20.8722L12.5347 20.8728L12.5347 20.8743L12.5348 20.8786C12.5349 20.882 12.5351 20.8866 12.5355 20.8921C12.5364 20.9025 12.5381 20.918 12.5419 20.9346C12.5455 20.9497 12.5526 20.974 12.5685 20.9967C12.5806 21.0142 12.6009 21.034 12.6294 21.0445L14.8903 22.6753C15.1516 22.8871 15.2464 23.2698 15.0551 23.5818C14.9186 23.7634 14.7594 23.8589 14.5774 23.8589H14.5311L14.5011 23.8943L14.4982 23.8977C14.392 23.8911 14.3101 23.8585 14.2251 23.7977C14.2249 23.7976 14.2248 23.7975 14.2246 23.7974L11.9849 22.155C11.9847 22.1549 11.9846 22.1548 11.9845 22.1547C11.6364 21.893 11.3887 21.4409 11.3523 20.9484C11.3532 20.4526 11.5307 20.005 11.9116 19.7078L11.9116 19.7078L11.9135 19.7062L13.8182 18.1433C13.8183 18.1432 13.8184 18.143 13.8186 18.1429C14.142 17.8824 14.3412 17.4524 14.3412 17.023V15.6197C14.3412 15.1335 13.9696 14.6778 13.4566 14.6778H11.2897C10.9778 14.6778 10.7172 14.4086 10.7172 14.0561C10.7172 13.7037 10.9778 13.4345 11.2897 13.4345H13.4566C14.5893 13.4345 15.4862 14.4242 15.4862 15.6197V17.023C15.4862 17.8767 15.1247 18.6495 14.514 19.1507L12.6086 20.7143L12.608 20.7136L12.5989 20.7234L12.672 20.7916L12.5988 20.7235L12.5988 20.7235L12.5987 20.7236L12.5986 20.7238L12.5982 20.7241L12.5973 20.7251L12.595 20.7278L12.5881 20.7361C12.5827 20.7428 12.5756 20.7523 12.5684 20.7639C12.5558 20.7842 12.5347 20.8237 12.5347 20.8718Z" fill="#1F4397" stroke="#F4F4F4" stroke-width="0.2"/>
<path d="M16.0172 17.5045C16.0172 17.6626 16.0734 17.7896 16.165 17.8768C16.2553 17.9628 16.3742 18.0044 16.4908 18.0044C16.6074 18.0044 16.7262 17.9628 16.8166 17.8768C16.9082 17.7896 16.9644 17.6626 16.9644 17.5045C16.9644 17.3455 16.9084 17.218 16.8167 17.1305C16.7263 17.0442 16.6073 17.0027 16.4905 17.003C16.3738 17.0033 16.255 17.0454 16.1648 17.1317C16.0733 17.2191 16.0172 17.3463 16.0172 17.5045Z" fill="#1F4397" stroke="#1F4397" stroke-width="0.2"/>
</svg>
