<svg viewBox="0 0 32 32" fill="none" xmlns="http://www.w3.org/2000/svg">
<circle cx="16" cy="16" r="16" fill="#F4F4F4"/>
<path d="M12.4552 7.95C11.071 7.94891 9.95106 9.11023 9.95 10.5399L9.95 10.5399C9.9493 11.8419 10.8814 12.9418 12.1268 13.1112V17.9139C11.6125 18.0652 11.257 18.5515 11.2566 19.1057V19.1058V21.8101C11.2566 22.4934 11.7914 23.05 12.4552 23.05C13.119 23.05 13.6538 22.4934 13.6538 21.8101V19.1058C13.6538 18.5515 13.2979 18.0652 12.7836 17.9139V13.1112C14.1356 12.9275 15.0984 11.6548 14.9444 10.2496C14.8008 8.94019 13.7306 7.94928 12.4552 7.95ZM12.4552 7.95C12.4552 7.95 12.4552 7.95 12.4552 7.95L12.4552 8L12.4552 7.95C12.4552 7.95 12.4552 7.95 12.4552 7.95ZM12.9969 19.1058V21.8101C12.9969 22.1227 12.7528 22.3731 12.4552 22.3731C12.1576 22.3731 11.9135 22.1227 11.9135 21.8101V19.1058C11.9135 18.7931 12.1576 18.5428 12.4552 18.5428C12.7528 18.5428 12.9969 18.7931 12.9969 19.1058ZM12.4551 12.4572C11.4368 12.4572 10.6083 11.6015 10.6083 10.5421C10.6083 9.48267 11.4368 8.62692 12.4552 8.62692C13.4736 8.62692 14.3021 9.48264 14.3021 10.542C14.3011 11.6011 13.4732 12.4562 12.4551 12.4572Z" fill="#1F4397" stroke="#1F4397" stroke-width="0.1"/>
<path d="M19.7461 11.8943V11.8942V9.1899C19.7461 8.50663 19.211 7.95 18.5476 7.95C17.8841 7.95 17.349 8.50663 17.349 9.1899V11.8942C17.349 12.4485 17.7048 12.9348 18.2191 13.0861V17.8659H17.486C16.6879 17.8659 16.0437 18.5357 16.0437 19.3582V21.5577C16.0437 22.3801 16.6879 23.05 17.486 23.05H19.6091C20.4073 23.05 21.0514 22.3801 21.0514 21.5577V19.3582C21.0514 18.5357 20.4073 17.8659 19.6091 17.8659H18.876V13.0861C19.3903 12.9348 19.7458 12.4485 19.7461 11.8943ZM18.0059 11.8942V9.1899C18.0059 8.87726 18.25 8.62692 18.5476 8.62692C18.8451 8.62692 19.0893 8.87726 19.0893 9.1899V11.8942C19.0893 12.2069 18.8451 12.4572 18.5476 12.4572C18.25 12.4572 18.0059 12.2069 18.0059 11.8942ZM20.3945 21.5577C20.3945 22.0095 20.041 22.3731 19.6091 22.3731H17.486C17.0541 22.3731 16.7006 22.0095 16.7006 21.5577V19.3582C16.7006 18.9063 17.0541 18.5428 17.486 18.5428H19.6091C20.041 18.5428 20.3945 18.9063 20.3945 19.3582V21.5577Z" fill="#1F4397" stroke="#1F4397" stroke-width="0.1"/>
<path d="M17.8878 19.2176C17.7047 19.2176 17.5594 19.3707 17.5594 19.556V21.3589C17.5594 21.5442 17.7047 21.6974 17.8878 21.6974C18.0709 21.6974 18.2163 21.5442 18.2163 21.3589V19.556C18.2163 19.3707 18.0709 19.2176 17.8878 19.2176Z" fill="#1F4397" stroke="#1F4397" stroke-width="0.1"/>
<path d="M19.2003 19.2176C19.0172 19.2176 18.8719 19.3707 18.8719 19.556V21.3589C18.8719 21.5442 19.0172 21.6974 19.2003 21.6974C19.3834 21.6974 19.5288 21.5442 19.5288 21.3589V19.556C19.5288 19.3707 19.3834 19.2176 19.2003 19.2176Z" fill="#1F4397" stroke="#1F4397" stroke-width="0.1"/>
</svg>
