<svg viewBox="0 0 32 32" fill="none" xmlns="http://www.w3.org/2000/svg">
<circle cx="16" cy="16" r="16" fill="#F4F4F4"/>
<mask id="path-2-outside-1_33_11918" maskUnits="userSpaceOnUse" x="6" y="7" width="20" height="18" fill="black">
<rect fill="white" x="6" y="7" width="20" height="18"/>
<path fill-rule="evenodd" clip-rule="evenodd" d="M8.09917 8.95366C8.09917 8.42487 8.49274 8 8.97626 8H11.8324C12.3188 8 12.7095 8.42793 12.7095 8.95366V9.4305C12.7095 9.71476 12.5943 9.97152 12.4115 10.1457C12.5943 10.32 12.7095 10.5767 12.7095 10.861V11.3378C12.7095 11.6221 12.5943 11.8788 12.4115 12.0531C12.5943 12.2273 12.7095 12.4841 12.7095 12.7683V13.2452C12.7095 13.5294 12.5943 13.7862 12.4115 13.9604H14.1432C14.0673 13.8198 14.0251 13.6578 14.0251 13.4836V9.35408C14.0251 8.87114 14.385 8.47989 14.8291 8.47989C16.5693 8.47989 17.9777 10.0113 17.9777 11.9033V13.4958C17.9777 13.67 17.9355 13.832 17.8596 13.9726H19.5913C19.4086 13.7984 19.2933 13.5416 19.2933 13.2574V12.7805C19.2933 12.4963 19.4086 12.2395 19.5913 12.0653C19.4086 11.8911 19.2933 11.6343 19.2933 11.35V10.8732C19.2933 10.3444 19.6869 9.91955 20.1704 9.91955H23.0266C23.5129 9.91955 23.9036 10.3475 23.9036 10.8732V11.35C23.9036 11.6343 23.7884 11.8911 23.6057 12.0653C23.7884 12.2395 23.9036 12.4963 23.9036 12.7805V13.2574C23.9036 13.5416 23.7884 13.7984 23.6057 13.9726H24.2325C24.657 13.9726 25 14.3455 25 14.8071C25 15.2686 24.657 15.6415 24.2325 15.6415H21.5563L16.4821 19.5815L21.6125 23.5673C21.7109 23.6438 21.7334 23.7935 21.6631 23.9005C21.5928 24.0075 21.4551 24.0319 21.3567 23.9555L16.1026 19.8749L10.8485 23.9555C10.7501 24.0319 10.6124 24.0075 10.5421 23.9005C10.4718 23.7935 10.4943 23.6438 10.5927 23.5673L15.7231 19.5815L10.663 15.6415H7.76745C7.34296 15.6415 7 15.2686 7 14.8071C7 14.3455 7.34296 13.9726 7.76745 13.9726H8.39435C8.21162 13.7984 8.09636 13.5416 8.09636 13.2574V12.7805C8.09636 12.4963 8.21162 12.2395 8.39435 12.0653C8.21162 11.8911 8.09636 11.6343 8.09636 11.35V10.8732C8.09636 10.589 8.21162 10.3322 8.39435 10.158C8.21162 9.98374 8.09636 9.72699 8.09636 9.44272V8.96589L8.09917 8.95366ZM10.7361 15.1647H7.77026C7.58754 15.1647 7.44136 15.0058 7.44136 14.8071C7.44136 14.6084 7.58754 14.4495 7.77026 14.4495H24.241C24.4237 14.4495 24.5699 14.6084 24.5699 14.8071C24.5699 15.0058 24.4237 15.1647 24.241 15.1647H10.7361ZM11.4192 15.6415L16.1139 19.2881L20.8085 15.6415H11.4192ZM17.1034 13.9696C17.3452 13.9696 17.5419 13.7556 17.5419 13.4927V11.9002C17.5419 10.2741 16.3303 8.95366 14.832 8.95366C14.6295 8.95366 14.4665 9.13095 14.4665 9.35102V13.4897C14.4665 13.7525 14.6633 13.9665 14.905 13.9665H17.1006L17.1034 13.9696ZM11.8324 9.91038H8.97626C8.7345 9.91038 8.53772 9.69642 8.53772 9.43355V8.95672C8.53772 8.69385 8.7345 8.47989 8.97626 8.47989H11.8324C12.0742 8.47989 12.271 8.69385 12.271 8.95672V9.43355C12.271 9.69642 12.0742 9.91038 11.8324 9.91038ZM8.53772 10.864C8.53772 10.6012 8.7345 10.3872 8.97626 10.3872H11.8324C12.0742 10.3872 12.271 10.6012 12.271 10.864V11.3409C12.271 11.6037 12.0742 11.8177 11.8324 11.8177H8.97626C8.7345 11.8177 8.53772 11.6037 8.53772 11.3409V10.864ZM23.0322 12.2976H20.176C19.9342 12.2976 19.7375 12.5116 19.7375 12.7744V13.2513C19.7375 13.5141 19.9342 13.7281 20.176 13.7281H23.0322C23.2739 13.7281 23.4707 13.5141 23.4707 13.2513V12.7744C23.4707 12.5116 23.2739 12.2976 23.0322 12.2976ZM20.176 11.8208H23.0322C23.2739 11.8208 23.4707 11.6068 23.4707 11.3439V10.8671C23.4707 10.6042 23.2739 10.3903 23.0322 10.3903H20.176C19.9342 10.3903 19.7375 10.6042 19.7375 10.8671V11.3439C19.7375 11.6068 19.9342 11.8208 20.176 11.8208ZM8.53772 12.7744C8.53772 12.5116 8.7345 12.2976 8.97626 12.2976H11.8324C12.0742 12.2976 12.271 12.5116 12.271 12.7744V13.2513C12.271 13.5141 12.0742 13.7281 11.8324 13.7281H8.97626C8.7345 13.7281 8.53772 13.5141 8.53772 13.2513V12.7744Z"/>
</mask>
<path fill-rule="evenodd" clip-rule="evenodd" d="M8.09917 8.95366C8.09917 8.42487 8.49274 8 8.97626 8H11.8324C12.3188 8 12.7095 8.42793 12.7095 8.95366V9.4305C12.7095 9.71476 12.5943 9.97152 12.4115 10.1457C12.5943 10.32 12.7095 10.5767 12.7095 10.861V11.3378C12.7095 11.6221 12.5943 11.8788 12.4115 12.0531C12.5943 12.2273 12.7095 12.4841 12.7095 12.7683V13.2452C12.7095 13.5294 12.5943 13.7862 12.4115 13.9604H14.1432C14.0673 13.8198 14.0251 13.6578 14.0251 13.4836V9.35408C14.0251 8.87114 14.385 8.47989 14.8291 8.47989C16.5693 8.47989 17.9777 10.0113 17.9777 11.9033V13.4958C17.9777 13.67 17.9355 13.832 17.8596 13.9726H19.5913C19.4086 13.7984 19.2933 13.5416 19.2933 13.2574V12.7805C19.2933 12.4963 19.4086 12.2395 19.5913 12.0653C19.4086 11.8911 19.2933 11.6343 19.2933 11.35V10.8732C19.2933 10.3444 19.6869 9.91955 20.1704 9.91955H23.0266C23.5129 9.91955 23.9036 10.3475 23.9036 10.8732V11.35C23.9036 11.6343 23.7884 11.8911 23.6057 12.0653C23.7884 12.2395 23.9036 12.4963 23.9036 12.7805V13.2574C23.9036 13.5416 23.7884 13.7984 23.6057 13.9726H24.2325C24.657 13.9726 25 14.3455 25 14.8071C25 15.2686 24.657 15.6415 24.2325 15.6415H21.5563L16.4821 19.5815L21.6125 23.5673C21.7109 23.6438 21.7334 23.7935 21.6631 23.9005C21.5928 24.0075 21.4551 24.0319 21.3567 23.9555L16.1026 19.8749L10.8485 23.9555C10.7501 24.0319 10.6124 24.0075 10.5421 23.9005C10.4718 23.7935 10.4943 23.6438 10.5927 23.5673L15.7231 19.5815L10.663 15.6415H7.76745C7.34296 15.6415 7 15.2686 7 14.8071C7 14.3455 7.34296 13.9726 7.76745 13.9726H8.39435C8.21162 13.7984 8.09636 13.5416 8.09636 13.2574V12.7805C8.09636 12.4963 8.21162 12.2395 8.39435 12.0653C8.21162 11.8911 8.09636 11.6343 8.09636 11.35V10.8732C8.09636 10.589 8.21162 10.3322 8.39435 10.158C8.21162 9.98374 8.09636 9.72699 8.09636 9.44272V8.96589L8.09917 8.95366ZM10.7361 15.1647H7.77026C7.58754 15.1647 7.44136 15.0058 7.44136 14.8071C7.44136 14.6084 7.58754 14.4495 7.77026 14.4495H24.241C24.4237 14.4495 24.5699 14.6084 24.5699 14.8071C24.5699 15.0058 24.4237 15.1647 24.241 15.1647H10.7361ZM11.4192 15.6415L16.1139 19.2881L20.8085 15.6415H11.4192ZM17.1034 13.9696C17.3452 13.9696 17.5419 13.7556 17.5419 13.4927V11.9002C17.5419 10.2741 16.3303 8.95366 14.832 8.95366C14.6295 8.95366 14.4665 9.13095 14.4665 9.35102V13.4897C14.4665 13.7525 14.6633 13.9665 14.905 13.9665H17.1006L17.1034 13.9696ZM11.8324 9.91038H8.97626C8.7345 9.91038 8.53772 9.69642 8.53772 9.43355V8.95672C8.53772 8.69385 8.7345 8.47989 8.97626 8.47989H11.8324C12.0742 8.47989 12.271 8.69385 12.271 8.95672V9.43355C12.271 9.69642 12.0742 9.91038 11.8324 9.91038ZM8.53772 10.864C8.53772 10.6012 8.7345 10.3872 8.97626 10.3872H11.8324C12.0742 10.3872 12.271 10.6012 12.271 10.864V11.3409C12.271 11.6037 12.0742 11.8177 11.8324 11.8177H8.97626C8.7345 11.8177 8.53772 11.6037 8.53772 11.3409V10.864ZM23.0322 12.2976H20.176C19.9342 12.2976 19.7375 12.5116 19.7375 12.7744V13.2513C19.7375 13.5141 19.9342 13.7281 20.176 13.7281H23.0322C23.2739 13.7281 23.4707 13.5141 23.4707 13.2513V12.7744C23.4707 12.5116 23.2739 12.2976 23.0322 12.2976ZM20.176 11.8208H23.0322C23.2739 11.8208 23.4707 11.6068 23.4707 11.3439V10.8671C23.4707 10.6042 23.2739 10.3903 23.0322 10.3903H20.176C19.9342 10.3903 19.7375 10.6042 19.7375 10.8671V11.3439C19.7375 11.6068 19.9342 11.8208 20.176 11.8208ZM8.53772 12.7744C8.53772 12.5116 8.7345 12.2976 8.97626 12.2976H11.8324C12.0742 12.2976 12.271 12.5116 12.271 12.7744V13.2513C12.271 13.5141 12.0742 13.7281 11.8324 13.7281H8.97626C8.7345 13.7281 8.53772 13.5141 8.53772 13.2513V12.7744Z" fill="#1F4397"/>
<path fill-rule="evenodd" clip-rule="evenodd" d="M8.09917 8.95366C8.09917 8.42487 8.49274 8 8.97626 8H11.8324C12.3188 8 12.7095 8.42793 12.7095 8.95366V9.4305C12.7095 9.71476 12.5943 9.97152 12.4115 10.1457C12.5943 10.32 12.7095 10.5767 12.7095 10.861V11.3378C12.7095 11.6221 12.5943 11.8788 12.4115 12.0531C12.5943 12.2273 12.7095 12.4841 12.7095 12.7683V13.2452C12.7095 13.5294 12.5943 13.7862 12.4115 13.9604H14.1432C14.0673 13.8198 14.0251 13.6578 14.0251 13.4836V9.35408C14.0251 8.87114 14.385 8.47989 14.8291 8.47989C16.5693 8.47989 17.9777 10.0113 17.9777 11.9033V13.4958C17.9777 13.67 17.9355 13.832 17.8596 13.9726H19.5913C19.4086 13.7984 19.2933 13.5416 19.2933 13.2574V12.7805C19.2933 12.4963 19.4086 12.2395 19.5913 12.0653C19.4086 11.8911 19.2933 11.6343 19.2933 11.35V10.8732C19.2933 10.3444 19.6869 9.91955 20.1704 9.91955H23.0266C23.5129 9.91955 23.9036 10.3475 23.9036 10.8732V11.35C23.9036 11.6343 23.7884 11.8911 23.6057 12.0653C23.7884 12.2395 23.9036 12.4963 23.9036 12.7805V13.2574C23.9036 13.5416 23.7884 13.7984 23.6057 13.9726H24.2325C24.657 13.9726 25 14.3455 25 14.8071C25 15.2686 24.657 15.6415 24.2325 15.6415H21.5563L16.4821 19.5815L21.6125 23.5673C21.7109 23.6438 21.7334 23.7935 21.6631 23.9005C21.5928 24.0075 21.4551 24.0319 21.3567 23.9555L16.1026 19.8749L10.8485 23.9555C10.7501 24.0319 10.6124 24.0075 10.5421 23.9005C10.4718 23.7935 10.4943 23.6438 10.5927 23.5673L15.7231 19.5815L10.663 15.6415H7.76745C7.34296 15.6415 7 15.2686 7 14.8071C7 14.3455 7.34296 13.9726 7.76745 13.9726H8.39435C8.21162 13.7984 8.09636 13.5416 8.09636 13.2574V12.7805C8.09636 12.4963 8.21162 12.2395 8.39435 12.0653C8.21162 11.8911 8.09636 11.6343 8.09636 11.35V10.8732C8.09636 10.589 8.21162 10.3322 8.39435 10.158C8.21162 9.98374 8.09636 9.72699 8.09636 9.44272V8.96589L8.09917 8.95366ZM10.7361 15.1647H7.77026C7.58754 15.1647 7.44136 15.0058 7.44136 14.8071C7.44136 14.6084 7.58754 14.4495 7.77026 14.4495H24.241C24.4237 14.4495 24.5699 14.6084 24.5699 14.8071C24.5699 15.0058 24.4237 15.1647 24.241 15.1647H10.7361ZM11.4192 15.6415L16.1139 19.2881L20.8085 15.6415H11.4192ZM17.1034 13.9696C17.3452 13.9696 17.5419 13.7556 17.5419 13.4927V11.9002C17.5419 10.2741 16.3303 8.95366 14.832 8.95366C14.6295 8.95366 14.4665 9.13095 14.4665 9.35102V13.4897C14.4665 13.7525 14.6633 13.9665 14.905 13.9665H17.1006L17.1034 13.9696ZM11.8324 9.91038H8.97626C8.7345 9.91038 8.53772 9.69642 8.53772 9.43355V8.95672C8.53772 8.69385 8.7345 8.47989 8.97626 8.47989H11.8324C12.0742 8.47989 12.271 8.69385 12.271 8.95672V9.43355C12.271 9.69642 12.0742 9.91038 11.8324 9.91038ZM8.53772 10.864C8.53772 10.6012 8.7345 10.3872 8.97626 10.3872H11.8324C12.0742 10.3872 12.271 10.6012 12.271 10.864V11.3409C12.271 11.6037 12.0742 11.8177 11.8324 11.8177H8.97626C8.7345 11.8177 8.53772 11.6037 8.53772 11.3409V10.864ZM23.0322 12.2976H20.176C19.9342 12.2976 19.7375 12.5116 19.7375 12.7744V13.2513C19.7375 13.5141 19.9342 13.7281 20.176 13.7281H23.0322C23.2739 13.7281 23.4707 13.5141 23.4707 13.2513V12.7744C23.4707 12.5116 23.2739 12.2976 23.0322 12.2976ZM20.176 11.8208H23.0322C23.2739 11.8208 23.4707 11.6068 23.4707 11.3439V10.8671C23.4707 10.6042 23.2739 10.3903 23.0322 10.3903H20.176C19.9342 10.3903 19.7375 10.6042 19.7375 10.8671V11.3439C19.7375 11.6068 19.9342 11.8208 20.176 11.8208ZM8.53772 12.7744C8.53772 12.5116 8.7345 12.2976 8.97626 12.2976H11.8324C12.0742 12.2976 12.271 12.5116 12.271 12.7744V13.2513C12.271 13.5141 12.0742 13.7281 11.8324 13.7281H8.97626C8.7345 13.7281 8.53772 13.5141 8.53772 13.2513V12.7744Z" stroke="#1F4397" stroke-width="0.2" mask="url(#path-2-outside-1_33_11918)"/>
</svg>
