<svg viewBox="0 0 32 32" fill="none" xmlns="http://www.w3.org/2000/svg">
<circle cx="16" cy="16" r="16" fill="#F4F4F4"/>
<path d="M16 16.5C17.933 16.5 19.5 14.933 19.5 13C19.5 11.067 17.933 9.5 16 9.5C14.067 9.5 12.5 11.067 12.5 13C12.5 14.933 14.067 16.5 16 16.5ZM16 16.5V19.5M16 11C15.4696 11 14.9609 11.2107 14.5858 11.5858C14.2107 11.9609 14 12.4696 14 13M13.5 18.6636C11.7192 18.9118 10.5 19.4171 10.5 20C10.5 20.8284 12.9624 21.5 16 21.5C19.0376 21.5 21.5 20.8284 21.5 20C21.5 19.4171 20.2808 18.9118 18.5 18.6636" stroke="#1F4397" stroke-linecap="round"/>
</svg>
