<svg viewBox="0 0 32 32" fill="none" xmlns="http://www.w3.org/2000/svg">
<circle cx="16" cy="16" r="16" fill="#F4F4F4"/>
<path d="M10.521 8H22.479C22.8986 8 23.2657 8.16187 23.5542 8.45863C23.8164 8.7554 24 9.13309 24 9.56475V21.4353C24 21.8669 23.8164 22.2446 23.5542 22.5414C23.2657 22.8381 22.8986 23 22.479 23H10.521C10.1014 23 9.73427 22.8381 9.4458 22.5414C9.18357 22.2446 9 21.8669 9 21.4353V9.56475C9 9.13309 9.18357 8.7554 9.4458 8.45863C9.73427 8.16187 10.1014 8 10.521 8ZM22.479 8.80935H10.521C10.3112 8.80935 10.1276 8.89029 9.9965 9.02518C9.86538 9.16007 9.78671 9.34892 9.78671 9.56475V21.4353C9.78671 21.6511 9.86538 21.8399 9.9965 21.9748C10.1276 22.1097 10.3112 22.1906 10.521 22.1906H22.479C22.6888 22.1906 22.8724 22.1097 23.0035 21.9748C23.1346 21.8399 23.2133 21.6511 23.2133 21.4353V9.56475C23.2133 9.34892 23.1346 9.16007 23.0035 9.02518C22.8724 8.89029 22.6888 8.80935 22.479 8.80935Z" fill="#1F4397"/>
<path fill-rule="evenodd" clip-rule="evenodd" d="M14.0026 19.3094V11H17.2806C17.8313 11 18.2771 11.0252 18.5918 11.0755C19.0114 11.1259 19.3785 11.277 19.667 11.4532C19.9554 11.6547 20.1914 11.9065 20.3488 12.259C20.5323 12.6115 20.611 12.9892 20.611 13.3921C20.611 14.0971 20.375 14.7014 19.903 15.1799C19.4572 15.6835 18.5918 15.9101 17.3593 15.9101H15.1565V19.3094H14H14.0026ZM15.1565 14.9532H17.3855C18.1198 14.9532 18.6442 14.8022 18.9589 14.5504C19.2736 14.2734 19.4309 13.9209 19.4309 13.4173C19.4309 13.0899 19.3523 12.7878 19.1687 12.536C18.9851 12.2842 18.7229 12.1331 18.4344 12.0324C18.2509 11.982 17.8837 11.9568 17.3593 11.9568H15.1565V14.9532Z" fill="#1F4397"/>
</svg>
