<svg viewBox="0 0 32 32" fill="none" xmlns="http://www.w3.org/2000/svg">
<circle cx="16" cy="16" r="16" fill="#F4F4F4"/>
<mask id="path-2-outside-1_3049_26150" maskUnits="userSpaceOnUse" x="8" y="9" width="16" height="14" fill="black">
<rect fill="white" x="8" y="9" width="16" height="14"/>
<path d="M18.1149 10.304C18.5365 10.304 18.9458 10.5456 19.2356 10.965C19.5162 11.3723 19.6725 11.9119 19.6725 12.4818C19.6725 13.0517 19.5177 13.5912 19.2356 13.9985C18.9458 14.4195 18.5365 14.6596 18.1149 14.6596C17.6933 14.6596 17.284 14.4179 16.9942 13.9985C16.7136 13.5912 16.5573 13.0517 16.5573 12.4818C16.5573 11.9119 16.7121 11.3723 16.9942 10.965C17.284 10.5441 17.6933 10.304 18.1149 10.304ZM13.58 10.304C14.0016 10.304 14.4109 10.5456 14.7007 10.965C14.9812 11.3723 15.1376 11.9119 15.1376 12.4818C15.1376 13.0517 14.9828 13.5912 14.7007 13.9985C14.4109 14.4195 14.0016 14.6596 13.58 14.6596C13.1584 14.6596 12.7491 14.4179 12.4593 13.9985C12.1787 13.5912 12.0224 13.0517 12.0224 12.4818C12.0224 11.9119 12.1772 11.3723 12.4593 10.965C12.7491 10.5441 13.1584 10.304 13.58 10.304ZM13.58 14.3267C14.2423 14.3267 14.8003 13.4818 14.8003 12.4818C14.8003 11.4818 14.2408 10.6368 13.58 10.6368C12.9192 10.6368 12.3596 11.4818 12.3596 12.4818C12.3596 13.4818 12.9192 14.3267 13.58 14.3267ZM21.5199 14.0729C21.6165 14.0729 21.7131 14.0866 21.8051 14.1125C22.1516 14.2097 22.4352 14.4894 22.5824 14.8784C22.7249 15.2553 22.7341 15.7036 22.6084 16.1383C22.4827 16.5745 22.2374 16.9498 21.9155 17.196C21.6732 17.3815 21.4019 17.4802 21.132 17.4802C21.0339 17.4802 20.9389 17.4666 20.8484 17.4407C20.5019 17.3419 20.2183 17.0638 20.0711 16.6748C19.9286 16.2979 19.9194 15.8495 20.0451 15.4149C20.1708 14.9787 20.4161 14.6033 20.738 14.3587C20.9803 14.1733 21.2516 14.0745 21.5214 14.0745M10.1765 14.0745C10.4463 14.0745 10.7162 14.1733 10.9599 14.3587C11.2819 14.6049 11.5272 14.9802 11.6529 15.4149C11.7786 15.8511 11.7694 16.2979 11.6268 16.6748C11.4796 17.0638 11.1976 17.3435 10.8495 17.4407C10.7576 17.4666 10.6625 17.4802 10.5644 17.4802C10.2946 17.4802 10.0232 17.3815 9.78097 17.196C9.45902 16.9498 9.21373 16.5745 9.08801 16.1398C8.9623 15.7036 8.9715 15.2568 9.11408 14.8799C9.26125 14.4909 9.54334 14.2112 9.89136 14.114C9.98334 14.0881 10.0784 14.0745 10.1765 14.0745ZM10.5675 17.1474C10.6334 17.1474 10.6962 17.1383 10.7576 17.1216C11.0151 17.0486 11.2236 16.8237 11.3294 16.5046C11.4275 16.2067 11.4275 15.8526 11.3294 15.5076C11.147 14.8708 10.661 14.4088 10.175 14.4088C10.1091 14.4088 10.0462 14.4179 9.98488 14.4347C9.73805 14.5046 9.54181 14.7036 9.43143 14.997C9.31644 15.3024 9.30878 15.6869 9.41303 16.0486C9.59547 16.6854 10.0815 17.1474 10.5675 17.1474ZM15.849 15.6155C16.7658 15.6155 17.658 16.0198 18.3617 16.7553C19.047 17.4711 19.5269 18.4681 19.7109 19.5623C19.8182 20.1991 19.6235 20.8085 19.1773 21.2386C18.8646 21.5395 18.489 21.6991 18.0904 21.6991C17.9125 21.6991 17.7332 21.6672 17.5553 21.6049C17.0095 21.4119 16.4362 21.3146 15.849 21.3146C15.2618 21.3146 14.6869 21.4119 14.1426 21.6049C13.9648 21.6672 13.7839 21.6991 13.6076 21.6991C13.2105 21.6991 12.8349 21.5395 12.5206 21.2401C12.0745 20.8116 11.8798 20.2006 11.9871 19.5638C12.1726 18.4681 12.6509 17.4711 13.3362 16.7568C14.0399 16.0213 14.9322 15.617 15.849 15.617M18.1149 10C17.5906 10 17.0893 10.2888 16.7412 10.7933C16.4254 11.2508 16.2522 11.8511 16.2522 12.4818C16.2522 13.1125 16.4254 13.7128 16.7412 14.1702C17.0893 14.6748 17.5906 14.9635 18.1149 14.9635C18.6392 14.9635 19.1405 14.6748 19.4886 14.1702C19.8044 13.7128 19.9776 13.1125 19.9776 12.4818C19.9776 11.8511 19.8028 11.2508 19.4886 10.7933C19.1405 10.2888 18.6392 10 18.1149 10ZM21.5199 13.769C21.1872 13.769 20.8469 13.8875 20.5495 14.1155C20.1769 14.4012 19.8918 14.8328 19.7492 15.3298C19.6066 15.8267 19.6173 16.3419 19.7829 16.7796C19.9638 17.2599 20.321 17.6064 20.7626 17.731C20.8821 17.7644 21.0063 17.7812 21.1305 17.7812C21.4632 17.7812 21.8035 17.6626 22.101 17.4347C22.4735 17.1489 22.7587 16.7188 22.9012 16.2204C23.0438 15.7219 23.0315 15.2082 22.8675 14.7705C22.6866 14.2903 22.3294 13.9438 21.8879 13.8191C21.7683 13.7857 21.6441 13.769 21.5199 13.769ZM15.8474 15.31C14.8463 15.31 13.8759 15.7477 13.1124 16.5441C12.3857 17.3024 11.8767 18.3571 11.682 19.5106C11.5578 20.2462 11.7847 20.9559 12.3045 21.4544C12.6785 21.8131 13.1323 22 13.6045 22C13.8146 22 14.0292 21.9635 14.2423 21.8875C14.7543 21.7067 15.294 21.614 15.8459 21.614C16.3978 21.614 16.9375 21.7052 17.4495 21.886C17.6626 21.962 17.8773 21.9985 18.0873 21.9985C18.5595 21.9985 19.0133 21.8116 19.3874 21.4529C19.9071 20.9544 20.134 20.2447 20.0098 19.5091C19.8151 18.3556 19.3077 17.3024 18.5794 16.5426C17.8175 15.7462 16.8455 15.3085 15.8444 15.3085L15.8474 15.31Z"/>
</mask>
<path d="M18.1149 10.304C18.5365 10.304 18.9458 10.5456 19.2356 10.965C19.5162 11.3723 19.6725 11.9119 19.6725 12.4818C19.6725 13.0517 19.5177 13.5912 19.2356 13.9985C18.9458 14.4195 18.5365 14.6596 18.1149 14.6596C17.6933 14.6596 17.284 14.4179 16.9942 13.9985C16.7136 13.5912 16.5573 13.0517 16.5573 12.4818C16.5573 11.9119 16.7121 11.3723 16.9942 10.965C17.284 10.5441 17.6933 10.304 18.1149 10.304ZM13.58 10.304C14.0016 10.304 14.4109 10.5456 14.7007 10.965C14.9812 11.3723 15.1376 11.9119 15.1376 12.4818C15.1376 13.0517 14.9828 13.5912 14.7007 13.9985C14.4109 14.4195 14.0016 14.6596 13.58 14.6596C13.1584 14.6596 12.7491 14.4179 12.4593 13.9985C12.1787 13.5912 12.0224 13.0517 12.0224 12.4818C12.0224 11.9119 12.1772 11.3723 12.4593 10.965C12.7491 10.5441 13.1584 10.304 13.58 10.304ZM13.58 14.3267C14.2423 14.3267 14.8003 13.4818 14.8003 12.4818C14.8003 11.4818 14.2408 10.6368 13.58 10.6368C12.9192 10.6368 12.3596 11.4818 12.3596 12.4818C12.3596 13.4818 12.9192 14.3267 13.58 14.3267ZM21.5199 14.0729C21.6165 14.0729 21.7131 14.0866 21.8051 14.1125C22.1516 14.2097 22.4352 14.4894 22.5824 14.8784C22.7249 15.2553 22.7341 15.7036 22.6084 16.1383C22.4827 16.5745 22.2374 16.9498 21.9155 17.196C21.6732 17.3815 21.4019 17.4802 21.132 17.4802C21.0339 17.4802 20.9389 17.4666 20.8484 17.4407C20.5019 17.3419 20.2183 17.0638 20.0711 16.6748C19.9286 16.2979 19.9194 15.8495 20.0451 15.4149C20.1708 14.9787 20.4161 14.6033 20.738 14.3587C20.9803 14.1733 21.2516 14.0745 21.5214 14.0745M10.1765 14.0745C10.4463 14.0745 10.7162 14.1733 10.9599 14.3587C11.2819 14.6049 11.5272 14.9802 11.6529 15.4149C11.7786 15.8511 11.7694 16.2979 11.6268 16.6748C11.4796 17.0638 11.1976 17.3435 10.8495 17.4407C10.7576 17.4666 10.6625 17.4802 10.5644 17.4802C10.2946 17.4802 10.0232 17.3815 9.78097 17.196C9.45902 16.9498 9.21373 16.5745 9.08801 16.1398C8.9623 15.7036 8.9715 15.2568 9.11408 14.8799C9.26125 14.4909 9.54334 14.2112 9.89136 14.114C9.98334 14.0881 10.0784 14.0745 10.1765 14.0745ZM10.5675 17.1474C10.6334 17.1474 10.6962 17.1383 10.7576 17.1216C11.0151 17.0486 11.2236 16.8237 11.3294 16.5046C11.4275 16.2067 11.4275 15.8526 11.3294 15.5076C11.147 14.8708 10.661 14.4088 10.175 14.4088C10.1091 14.4088 10.0462 14.4179 9.98488 14.4347C9.73805 14.5046 9.54181 14.7036 9.43143 14.997C9.31644 15.3024 9.30878 15.6869 9.41303 16.0486C9.59547 16.6854 10.0815 17.1474 10.5675 17.1474ZM15.849 15.6155C16.7658 15.6155 17.658 16.0198 18.3617 16.7553C19.047 17.4711 19.5269 18.4681 19.7109 19.5623C19.8182 20.1991 19.6235 20.8085 19.1773 21.2386C18.8646 21.5395 18.489 21.6991 18.0904 21.6991C17.9125 21.6991 17.7332 21.6672 17.5553 21.6049C17.0095 21.4119 16.4362 21.3146 15.849 21.3146C15.2618 21.3146 14.6869 21.4119 14.1426 21.6049C13.9648 21.6672 13.7839 21.6991 13.6076 21.6991C13.2105 21.6991 12.8349 21.5395 12.5206 21.2401C12.0745 20.8116 11.8798 20.2006 11.9871 19.5638C12.1726 18.4681 12.6509 17.4711 13.3362 16.7568C14.0399 16.0213 14.9322 15.617 15.849 15.617M18.1149 10C17.5906 10 17.0893 10.2888 16.7412 10.7933C16.4254 11.2508 16.2522 11.8511 16.2522 12.4818C16.2522 13.1125 16.4254 13.7128 16.7412 14.1702C17.0893 14.6748 17.5906 14.9635 18.1149 14.9635C18.6392 14.9635 19.1405 14.6748 19.4886 14.1702C19.8044 13.7128 19.9776 13.1125 19.9776 12.4818C19.9776 11.8511 19.8028 11.2508 19.4886 10.7933C19.1405 10.2888 18.6392 10 18.1149 10ZM21.5199 13.769C21.1872 13.769 20.8469 13.8875 20.5495 14.1155C20.1769 14.4012 19.8918 14.8328 19.7492 15.3298C19.6066 15.8267 19.6173 16.3419 19.7829 16.7796C19.9638 17.2599 20.321 17.6064 20.7626 17.731C20.8821 17.7644 21.0063 17.7812 21.1305 17.7812C21.4632 17.7812 21.8035 17.6626 22.101 17.4347C22.4735 17.1489 22.7587 16.7188 22.9012 16.2204C23.0438 15.7219 23.0315 15.2082 22.8675 14.7705C22.6866 14.2903 22.3294 13.9438 21.8879 13.8191C21.7683 13.7857 21.6441 13.769 21.5199 13.769ZM15.8474 15.31C14.8463 15.31 13.8759 15.7477 13.1124 16.5441C12.3857 17.3024 11.8767 18.3571 11.682 19.5106C11.5578 20.2462 11.7847 20.9559 12.3045 21.4544C12.6785 21.8131 13.1323 22 13.6045 22C13.8146 22 14.0292 21.9635 14.2423 21.8875C14.7543 21.7067 15.294 21.614 15.8459 21.614C16.3978 21.614 16.9375 21.7052 17.4495 21.886C17.6626 21.962 17.8773 21.9985 18.0873 21.9985C18.5595 21.9985 19.0133 21.8116 19.3874 21.4529C19.9071 20.9544 20.134 20.2447 20.0098 19.5091C19.8151 18.3556 19.3077 17.3024 18.5794 16.5426C17.8175 15.7462 16.8455 15.3085 15.8444 15.3085L15.8474 15.31Z" fill="#1F4397"/>
<path d="M19.2356 10.965L19.4003 10.8516L19.4002 10.8514L19.2356 10.965ZM19.2356 13.9985L19.0712 13.8846L19.0708 13.8851L19.2356 13.9985ZM16.9942 13.9985L16.8295 14.1119L16.8296 14.1122L16.9942 13.9985ZM16.9942 10.965L17.1586 11.0789L17.159 11.0784L16.9942 10.965ZM14.7007 10.965L14.8654 10.8516L14.8652 10.8514L14.7007 10.965ZM14.7007 13.9985L14.5363 13.8846L14.5359 13.8851L14.7007 13.9985ZM12.4593 13.9985L12.2946 14.1119L12.2947 14.1122L12.4593 13.9985ZM12.4593 10.965L12.6237 11.0789L12.624 11.0784L12.4593 10.965ZM21.8051 14.1125L21.751 14.305L21.751 14.305L21.8051 14.1125ZM22.6084 16.1383L22.4163 16.0827L22.4162 16.0829L22.6084 16.1383ZM21.9155 17.196L21.794 17.0372L21.7939 17.0372L21.9155 17.196ZM20.8484 17.4407L20.9033 17.2484L20.9033 17.2484L20.8484 17.4407ZM20.0711 16.6748L20.2582 16.604L20.0711 16.6748ZM20.0451 15.4149L20.2372 15.4705L20.2373 15.4703L20.0451 15.4149ZM20.738 14.3587L20.859 14.5179L20.8596 14.5175L20.738 14.3587ZM10.9599 14.3587L11.0814 14.1998L11.081 14.1995L10.9599 14.3587ZM11.6529 15.4149L11.8451 15.3595L11.845 15.3593L11.6529 15.4149ZM10.8495 17.4407L10.7957 17.2481L10.7955 17.2482L10.8495 17.4407ZM9.78097 17.196L9.90254 17.0372L9.90246 17.0372L9.78097 17.196ZM9.08801 16.1398L8.89584 16.1952L8.89589 16.1954L9.08801 16.1398ZM9.11408 14.8799L9.30114 14.9507L9.11408 14.8799ZM9.89136 14.114L9.94519 14.3066L9.94544 14.3065L9.89136 14.114ZM10.7576 17.1216L10.8102 17.3145L10.8121 17.314L10.7576 17.1216ZM11.3294 16.5046L11.5192 16.5675L11.5194 16.5671L11.3294 16.5046ZM11.3294 15.5076L11.5218 15.4529L11.5217 15.4525L11.3294 15.5076ZM9.98488 14.4347L9.93227 14.2417L9.93037 14.2422L9.98488 14.4347ZM9.43143 14.997L9.61861 15.0674L9.61861 15.0674L9.43143 14.997ZM9.41303 16.0486L9.60529 15.9935L9.60521 15.9932L9.41303 16.0486ZM18.3617 16.7553L18.2172 16.8936L18.2173 16.8936L18.3617 16.7553ZM19.7109 19.5623L19.5136 19.5955L19.5136 19.5955L19.7109 19.5623ZM19.1773 21.2386L19.316 21.3827L19.3161 21.3826L19.1773 21.2386ZM17.5553 21.6049L17.4886 21.7934L17.4892 21.7936L17.5553 21.6049ZM14.1426 21.6049L14.2088 21.7936L14.2095 21.7934L14.1426 21.6049ZM12.5206 21.2401L12.3821 21.3844L12.3827 21.3849L12.5206 21.2401ZM11.9871 19.5638L11.7899 19.5304L11.7899 19.5306L11.9871 19.5638ZM13.3362 16.7568L13.4806 16.8953L13.4807 16.8951L13.3362 16.7568ZM16.7412 10.7933L16.9058 10.9069L16.9059 10.9069L16.7412 10.7933ZM16.7412 14.1702L16.9059 14.0567L16.9058 14.0566L16.7412 14.1702ZM19.4886 14.1702L19.324 14.0566L19.3239 14.0567L19.4886 14.1702ZM19.4886 10.7933L19.6534 10.6801L19.6532 10.6798L19.4886 10.7933ZM20.5495 14.1155L20.4278 13.9568L20.4277 13.9568L20.5495 14.1155ZM19.7829 16.7796L19.9701 16.7091L19.97 16.7089L19.7829 16.7796ZM20.7626 17.731L20.7082 17.9235L20.7087 17.9236L20.7626 17.731ZM22.101 17.4347L22.2226 17.5934L22.2227 17.5934L22.101 17.4347ZM22.8675 14.7705L23.0548 14.7003L23.0547 14.7L22.8675 14.7705ZM21.8879 13.8191L21.9422 13.6267L21.9417 13.6265L21.8879 13.8191ZM15.8474 15.31V15.51L15.9363 15.1308L15.8474 15.31ZM13.1124 16.5441L12.968 16.4057L12.968 16.4057L13.1124 16.5441ZM11.682 19.5106L11.8792 19.5439L11.8792 19.5439L11.682 19.5106ZM12.3045 21.4544L12.166 21.5987L12.166 21.5988L12.3045 21.4544ZM14.2423 21.8875L14.1757 21.699L14.1751 21.6992L14.2423 21.8875ZM17.4495 21.886L17.5167 21.6976L17.5161 21.6974L17.4495 21.886ZM19.3874 21.4529L19.5258 21.5973L19.5258 21.5972L19.3874 21.4529ZM20.0098 19.5091L19.8126 19.5424L19.8126 19.5424L20.0098 19.5091ZM18.5794 16.5426L18.4349 16.6808L18.435 16.6809L18.5794 16.5426ZM15.8444 15.3085V15.1085L15.7556 15.4877L15.8444 15.3085ZM18.1149 10.504C18.4565 10.504 18.8097 10.7004 19.071 11.0787L19.4002 10.8514C19.082 10.3908 18.6165 10.104 18.1149 10.104V10.504ZM19.0709 11.0785C19.3253 11.4478 19.4725 11.9464 19.4725 12.4818H19.8725C19.8725 11.8773 19.707 11.2969 19.4003 10.8516L19.0709 11.0785ZM19.4725 12.4818C19.4725 13.0175 19.3266 13.5158 19.0712 13.8846L19.4 14.1124C19.7087 13.6666 19.8725 13.0858 19.8725 12.4818H19.4725ZM19.0708 13.8851C18.8098 14.2644 18.4568 14.4596 18.1149 14.4596V14.8596C18.6162 14.8596 19.0819 14.5745 19.4003 14.1119L19.0708 13.8851ZM18.1149 14.4596C17.7733 14.4596 17.4201 14.2631 17.1588 13.8848L16.8296 14.1122C17.1478 14.5727 17.6133 14.8596 18.1149 14.8596V14.4596ZM17.1589 13.885C16.9045 13.5157 16.7573 13.0171 16.7573 12.4818H16.3573C16.3573 13.0862 16.5228 13.6667 16.8295 14.1119L17.1589 13.885ZM16.7573 12.4818C16.7573 11.946 16.9032 11.4477 17.1586 11.0789L16.8298 10.8512C16.5211 11.2969 16.3573 11.8777 16.3573 12.4818H16.7573ZM17.159 11.0784C17.42 10.6991 17.773 10.504 18.1149 10.504V10.104C17.6136 10.104 17.1479 10.389 16.8295 10.8517L17.159 11.0784ZM13.58 10.504C13.9216 10.504 14.2748 10.7004 14.5361 11.0787L14.8652 10.8514C14.5471 10.3908 14.0816 10.104 13.58 10.104V10.504ZM14.536 11.0785C14.7904 11.4478 14.9376 11.9464 14.9376 12.4818H15.3376C15.3376 11.8773 15.1721 11.2969 14.8654 10.8516L14.536 11.0785ZM14.9376 12.4818C14.9376 13.0175 14.7917 13.5158 14.5363 13.8846L14.8651 14.1124C15.1738 13.6666 15.3376 13.0858 15.3376 12.4818H14.9376ZM14.5359 13.8851C14.2749 14.2644 13.9219 14.4596 13.58 14.4596V14.8596C14.0813 14.8596 14.547 14.5745 14.8654 14.1119L14.5359 13.8851ZM13.58 14.4596C13.2384 14.4596 12.8852 14.2631 12.6239 13.8848L12.2947 14.1122C12.6129 14.5727 13.0784 14.8596 13.58 14.8596V14.4596ZM12.624 13.885C12.3696 13.5157 12.2224 13.0171 12.2224 12.4818H11.8224C11.8224 13.0862 11.9879 13.6667 12.2946 14.1119L12.624 13.885ZM12.2224 12.4818C12.2224 11.946 12.3683 11.4477 12.6237 11.0789L12.2949 10.8512C11.9861 11.2969 11.8224 11.8777 11.8224 12.4818H12.2224ZM12.624 11.0784C12.8851 10.6991 13.2381 10.504 13.58 10.504V10.104C13.0787 10.104 12.613 10.389 12.2946 10.8517L12.624 11.0784ZM13.58 14.5267C14.0018 14.5267 14.3612 14.2588 14.6054 13.8896C14.8515 13.5173 15.0003 13.0169 15.0003 12.4818H14.6003C14.6003 12.9466 14.4702 13.3687 14.2717 13.669C14.0712 13.9722 13.8205 14.1267 13.58 14.1267V14.5267ZM15.0003 12.4818C15.0003 11.9465 14.851 11.4461 14.6047 11.0739C14.3605 10.7048 14.0011 10.4368 13.58 10.4368V10.8368C13.8196 10.8368 14.0704 10.9913 14.2712 11.2946C14.4699 11.595 14.6003 12.017 14.6003 12.4818H15.0003ZM13.58 10.4368C13.1588 10.4368 12.7995 10.7048 12.5552 11.0739C12.309 11.4461 12.1596 11.9465 12.1596 12.4818H12.5596C12.5596 12.017 12.6901 11.595 12.8888 11.2946C13.0896 10.9913 13.3404 10.8368 13.58 10.8368V10.4368ZM12.1596 12.4818C12.1596 13.017 12.309 13.5174 12.5552 13.8896C12.7995 14.2587 13.1588 14.5267 13.58 14.5267V14.1267C13.3404 14.1267 13.0896 13.9723 12.8888 13.6689C12.6901 13.3686 12.5596 12.9465 12.5596 12.4818H12.1596ZM21.5199 14.2729C21.5978 14.2729 21.6762 14.284 21.751 14.305L21.8592 13.9199C21.75 13.8892 21.6352 13.8729 21.5199 13.8729V14.2729ZM21.751 14.305C22.0262 14.3823 22.2666 14.6089 22.3953 14.9492L22.7694 14.8077C22.6038 14.3698 22.2769 14.0372 21.8591 13.9199L21.751 14.305ZM22.3953 14.9492C22.5207 15.2807 22.5315 15.6842 22.4163 16.0827L22.8005 16.1939C22.9367 15.7231 22.9292 15.23 22.7694 14.8077L22.3953 14.9492ZM22.4162 16.0829C22.3008 16.4834 22.0776 16.8203 21.794 17.0372L22.0369 17.3549C22.3972 17.0794 22.6646 16.6656 22.8006 16.1937L22.4162 16.0829ZM21.7939 17.0372C21.5816 17.1998 21.352 17.2802 21.132 17.2802V17.6802C21.4517 17.6802 21.7649 17.5632 22.037 17.3549L21.7939 17.0372ZM21.132 17.2802C21.0526 17.2802 20.9761 17.2692 20.9033 17.2484L20.7935 17.633C20.9017 17.6639 21.0152 17.6802 21.132 17.6802V17.2802ZM20.9033 17.2484C20.627 17.1696 20.3867 16.9437 20.2582 16.604L19.8841 16.7455C20.0499 17.1839 20.3769 17.5143 20.7936 17.6331L20.9033 17.2484ZM20.2582 16.604C20.1328 16.2725 20.1219 15.869 20.2372 15.4705L19.8529 15.3593C19.7168 15.8301 19.7243 16.3232 19.8841 16.7455L20.2582 16.604ZM20.2373 15.4703C20.3527 15.0697 20.5758 14.7331 20.859 14.5179L20.617 14.1994C20.2563 14.4736 19.9889 14.8877 19.8529 15.3595L20.2373 15.4703ZM20.8596 14.5175C21.0719 14.355 21.3015 14.2745 21.5214 14.2745V13.8745C21.2018 13.8745 20.8886 13.9915 20.6165 14.1998L20.8596 14.5175ZM10.1765 14.2745C10.3962 14.2745 10.6244 14.3548 10.8388 14.5178L11.081 14.1995C10.8079 13.9918 10.4965 13.8745 10.1765 13.8745V14.2745ZM10.8384 14.5175C11.1222 14.7345 11.3454 15.0715 11.4608 15.4705L11.845 15.3593C11.709 14.889 11.4416 14.4752 11.0814 14.1998L10.8384 14.5175ZM11.4607 15.4703C11.5761 15.8705 11.5651 16.2726 11.4398 16.604L11.8139 16.7455C11.9737 16.3232 11.9811 15.8317 11.8451 15.3595L11.4607 15.4703ZM11.4398 16.604C11.3109 16.9446 11.0719 17.1709 10.7957 17.2481L10.9034 17.6333C11.3232 17.516 11.6484 17.1831 11.8139 16.7455L11.4398 16.604ZM10.7955 17.2482C10.7205 17.2692 10.6437 17.2802 10.5644 17.2802V17.6802C10.6813 17.6802 10.7946 17.6639 10.9036 17.6333L10.7955 17.2482ZM10.5644 17.2802C10.3444 17.2802 10.1149 17.1998 9.90254 17.0372L9.65941 17.3549C9.93154 17.5632 10.2447 17.6802 10.5644 17.6802V17.2802ZM9.90246 17.0372C9.61874 16.8202 9.39554 16.4832 9.28014 16.0842L8.89589 16.1954C9.03192 16.6657 9.2993 17.0795 9.65948 17.3549L9.90246 17.0372ZM9.28019 16.0844C9.16485 15.6842 9.17576 15.2821 9.30114 14.9507L8.92701 14.8092C8.76724 15.2315 8.75975 15.7231 8.89584 16.1952L9.28019 16.0844ZM9.30114 14.9507C9.42998 14.6101 9.66896 14.3838 9.94519 14.3066L9.83752 13.9214C9.41772 14.0387 9.09253 14.3716 8.92701 14.8092L9.30114 14.9507ZM9.94544 14.3065C10.0204 14.2855 10.0972 14.2745 10.1765 14.2745V13.8745C10.0596 13.8745 9.94632 13.8908 9.83728 13.9214L9.94544 14.3065ZM10.5675 17.3474C10.6523 17.3474 10.7328 17.3356 10.8102 17.3145L10.705 16.9286C10.6597 16.941 10.6145 16.9474 10.5675 16.9474V17.3474ZM10.8121 17.314C11.1498 17.2183 11.3986 16.9314 11.5192 16.5675L11.1396 16.4416C11.0486 16.716 10.8804 16.8789 10.7031 16.9292L10.8121 17.314ZM11.5194 16.5671C11.6317 16.226 11.6292 15.8306 11.5218 15.4529L11.137 15.5623C11.2258 15.8745 11.2233 16.1874 11.1394 16.442L11.5194 16.5671ZM11.5217 15.4525C11.326 14.7695 10.7855 14.2088 10.175 14.2088V14.6088C10.5364 14.6088 10.968 14.9722 11.1371 15.5627L11.5217 15.4525ZM10.175 14.2088C10.0902 14.2088 10.0096 14.2206 9.93227 14.2417L10.0375 14.6276C10.0828 14.6153 10.1279 14.6088 10.175 14.6088V14.2088ZM9.93037 14.2422C9.60888 14.3333 9.3715 14.5884 9.24424 14.9265L9.61861 15.0674C9.71212 14.8189 9.86721 14.6758 10.0394 14.6271L9.93037 14.2422ZM9.24425 14.9265C9.11203 15.2778 9.1064 15.7069 9.22085 16.104L9.60521 15.9932C9.51116 15.6669 9.52086 15.3271 9.61861 15.0674L9.24425 14.9265ZM9.22077 16.1037C9.41646 16.7868 9.95693 17.3474 10.5675 17.3474V16.9474C10.206 16.9474 9.77448 16.5841 9.60529 15.9935L9.22077 16.1037ZM15.849 15.8155C16.705 15.8155 17.5467 16.1927 18.2172 16.8936L18.5062 16.6171C17.7693 15.8468 16.8266 15.4155 15.849 15.4155V15.8155ZM18.2173 16.8936C18.8717 17.5772 19.3355 18.536 19.5136 19.5955L19.9081 19.5292C19.7183 18.4002 19.2224 17.3651 18.5062 16.617L18.2173 16.8936ZM19.5136 19.5955C19.6105 20.1702 19.435 20.7124 19.0385 21.0946L19.3161 21.3826C19.8119 20.9046 20.0259 20.228 19.9081 19.5291L19.5136 19.5955ZM19.0387 21.0945C18.7594 21.3632 18.4322 21.4991 18.0904 21.4991V21.8991C18.5457 21.8991 18.9698 21.7158 19.316 21.3827L19.0387 21.0945ZM18.0904 21.4991C17.9367 21.4991 17.7797 21.4715 17.6215 21.4161L17.4892 21.7936C17.6867 21.8628 17.8883 21.8991 18.0904 21.8991V21.4991ZM17.622 21.4163C17.0544 21.2156 16.4584 21.1146 15.849 21.1146V21.5146C16.4139 21.5146 16.9647 21.6081 17.4886 21.7934L17.622 21.4163ZM15.849 21.1146C15.2396 21.1146 14.642 21.2156 14.0758 21.4164L14.2095 21.7934C14.7317 21.6082 15.284 21.5146 15.849 21.5146V21.1146ZM14.0765 21.4161C13.9184 21.4715 13.7598 21.4991 13.6076 21.4991V21.8991C13.808 21.8991 14.0112 21.8628 14.2088 21.7936L14.0765 21.4161ZM13.6076 21.4991C13.2674 21.4991 12.9398 21.3632 12.6586 21.0953L12.3827 21.3849C12.73 21.7158 13.1537 21.8991 13.6076 21.8991V21.4991ZM12.6592 21.0959C12.2631 20.7154 12.0874 20.1719 12.1843 19.5971L11.7899 19.5306C11.6721 20.2293 11.8859 20.9077 12.3821 21.3844L12.6592 21.0959ZM12.1843 19.5972C12.364 18.5358 12.8265 17.5771 13.4806 16.8953L13.1919 16.6184C12.4754 17.3652 11.9812 18.4004 11.7899 19.5304L12.1843 19.5972ZM13.4807 16.8951C14.1512 16.1943 14.993 15.817 15.849 15.817V15.417C14.8714 15.417 13.9286 15.8483 13.1917 16.6186L13.4807 16.8951ZM18.1149 9.8C17.5133 9.8 16.9549 10.1313 16.5766 10.6798L16.9059 10.9069C17.2236 10.4462 17.6679 10.2 18.1149 10.2V9.8ZM16.5767 10.6797C16.2346 11.1751 16.0522 11.8164 16.0522 12.4818H16.4522C16.4522 11.8858 16.6162 11.3264 16.9058 10.9069L16.5767 10.6797ZM16.0522 12.4818C16.0522 13.1472 16.2346 13.7884 16.5767 14.2838L16.9058 14.0566C16.6162 13.6371 16.4522 13.0778 16.4522 12.4818H16.0522ZM16.5766 14.2838C16.9549 14.8322 17.5133 15.1635 18.1149 15.1635V14.7635C17.6679 14.7635 17.2236 14.5174 16.9059 14.0567L16.5766 14.2838ZM18.1149 15.1635C18.7165 15.1635 19.2749 14.8322 19.6532 14.2838L19.3239 14.0567C19.0062 14.5174 18.5619 14.7635 18.1149 14.7635V15.1635ZM19.6531 14.2838C19.9952 13.7884 20.1776 13.1472 20.1776 12.4818H19.7776C19.7776 13.0778 19.6136 13.6371 19.324 14.0566L19.6531 14.2838ZM20.1776 12.4818C20.1776 11.816 19.9935 11.175 19.6534 10.6801L19.3237 10.9066C19.6122 11.3265 19.7776 11.8861 19.7776 12.4818H20.1776ZM19.6532 10.6798C19.2749 10.1313 18.7165 9.8 18.1149 9.8V10.2C18.5619 10.2 19.0062 10.4462 19.3239 10.9069L19.6532 10.6798ZM21.5199 13.569C21.1394 13.569 20.7569 13.7045 20.4278 13.9568L20.6711 14.2742C20.9368 14.0706 21.2351 13.969 21.5199 13.969V13.569ZM20.4277 13.9568C20.018 14.2711 19.7101 14.7406 19.5569 15.2746L19.9414 15.3849C20.0734 14.925 20.3359 14.5313 20.6712 14.2742L20.4277 13.9568ZM19.5569 15.2746C19.4039 15.8079 19.4132 16.3677 19.5958 16.8504L19.97 16.7089C19.8214 16.3162 19.8093 15.8456 19.9414 15.3849L19.5569 15.2746ZM19.5958 16.8501C19.796 17.3818 20.1978 17.7794 20.7082 17.9235L20.8169 17.5385C20.4443 17.4334 20.1316 17.1379 19.9701 16.7091L19.5958 16.8501ZM20.7087 17.9236C20.8461 17.962 20.9885 17.9812 21.1305 17.9812V17.5812C21.0242 17.5812 20.9181 17.5668 20.8164 17.5384L20.7087 17.9236ZM21.1305 17.9812C21.511 17.9812 21.8935 17.8457 22.2226 17.5934L21.9793 17.2759C21.7136 17.4796 21.4154 17.5812 21.1305 17.5812V17.9812ZM22.2227 17.5934C22.6323 17.2792 22.9403 16.8112 23.0935 16.2754L22.7089 16.1654C22.5771 16.6265 22.3147 17.0187 21.9792 17.2759L22.2227 17.5934ZM23.0935 16.2754C23.2466 15.7403 23.2355 15.1824 23.0548 14.7003L22.6802 14.8407C22.8276 15.234 22.8411 15.7035 22.7089 16.1654L23.0935 16.2754ZM23.0547 14.7C22.8544 14.1683 22.4526 13.7707 21.9422 13.6267L21.8335 14.0116C22.2062 14.1168 22.5188 14.4122 22.6803 14.841L23.0547 14.7ZM21.9417 13.6265C21.8043 13.5881 21.662 13.569 21.5199 13.569V13.969C21.6262 13.969 21.7323 13.9833 21.834 14.0118L21.9417 13.6265ZM15.8474 15.11C14.786 15.11 13.765 15.5744 12.968 16.4057L13.2568 16.6825C13.9868 15.9211 14.9067 15.51 15.8474 15.51V15.11ZM12.968 16.4057C12.2105 17.1962 11.6854 18.2889 11.4848 19.4774L11.8792 19.5439C12.068 18.4254 12.5609 17.4087 13.2568 16.6824L12.968 16.4057ZM11.4848 19.4773C11.3501 20.2753 11.5964 21.0524 12.166 21.5987L12.4429 21.3101C11.9731 20.8594 11.7656 20.2171 11.8792 19.5439L11.4848 19.4773ZM12.166 21.5988C12.5745 21.9904 13.0769 22.2 13.6045 22.2V21.8C13.1877 21.8 12.7825 21.6357 12.4429 21.31L12.166 21.5988ZM13.6045 22.2C13.8379 22.2 14.0752 22.1594 14.3095 22.0759L14.1751 21.6992C13.9831 21.7676 13.7912 21.8 13.6045 21.8V22.2ZM14.3089 22.0761C14.7994 21.9029 15.3166 21.814 15.8459 21.814V21.414C15.2714 21.414 14.7093 21.5105 14.1757 21.699L14.3089 22.0761ZM15.8459 21.814C16.3757 21.814 16.8927 21.9015 17.3829 22.0746L17.5161 21.6974C16.9822 21.5089 16.42 21.414 15.8459 21.414V21.814ZM17.3824 22.0744C17.6166 22.1579 17.8539 22.1985 18.0873 22.1985V21.7985C17.9006 21.7985 17.7087 21.7661 17.5167 21.6976L17.3824 22.0744ZM18.0873 22.1985C18.6149 22.1985 19.1173 21.9889 19.5258 21.5973L19.249 21.3085C18.9093 21.6342 18.5041 21.7985 18.0873 21.7985V22.1985ZM19.5258 21.5972C20.0954 21.0509 20.3417 20.2738 20.207 19.4758L19.8126 19.5424C19.9263 20.2156 19.7188 20.8579 19.2489 21.3085L19.5258 21.5972ZM20.207 19.4758C20.0064 18.2875 19.4829 17.1962 18.7238 16.4042L18.435 16.6809C19.1324 17.4086 19.6238 18.4238 19.8126 19.5424L20.207 19.4758ZM18.7239 16.4043C17.9283 15.5728 16.9057 15.1085 15.8444 15.1085V15.5085C16.7853 15.5085 17.7066 15.9196 18.4349 16.6808L18.7239 16.4043ZM15.7556 15.4877L15.7586 15.4892L15.9363 15.1308L15.9332 15.1293L15.7556 15.4877Z" fill="#1F4397" mask="url(#path-2-outside-1_3049_26150)"/>
</svg>
