<svg viewBox="0 0 32 32" fill="none" xmlns="http://www.w3.org/2000/svg">
    <circle cx="16" cy="16" r="16" fill="#F4F4F4"/>
    <path d="M13.4281 23.7703L13.4281 23.7705C13.3598 23.9692 13.1668 24.1 12.9542 24.1H12.663H12.6611C12.392 24.1 12.1626 23.8896 12.1626 23.618V23.4397C11.7974 23.4278 11.5094 23.1138 11.5094 22.74V8.6C11.5094 8.21887 11.8088 7.9 12.1841 7.9H19.4221C19.7975 7.9 20.0969 8.21887 20.0969 8.6V22.74C20.0969 23.1138 19.8088 23.4278 19.4436 23.4397V23.618C19.4436 23.8876 19.2143 24.1 18.9432 24.1H18.652C18.4401 24.1 18.2466 23.9718 18.1781 23.7703L18.1781 23.7703L18.2727 23.738L18.178 23.7701L13.4281 23.7703ZM13.4281 23.7703L13.541 23.44L13.4281 23.7703ZM18.0652 23.44H18.1367V23.34L18.0421 23.3723L18.0652 23.44ZM19.3436 23.44V23.34H19.4221L19.3436 23.44ZM12.9073 23.5H12.7496V23.44H12.9277L12.9073 23.5ZM18.8624 23.44V23.5H18.706L18.6852 23.44H18.8624ZM12.0944 8.6C12.0944 8.54113 12.1399 8.5 12.186 8.5H19.4241C19.4702 8.5 19.5156 8.54113 19.5156 8.6V12.948H12.0944V8.6ZM12.186 22.84C12.1399 22.84 12.0944 22.7989 12.0944 22.74V13.548H19.5156V22.74C19.5156 22.7989 19.4702 22.84 19.4241 22.84H12.186Z"
          fill="#F4F4F4" stroke="#1F4397" stroke-width="0.4"/>
    <path d="M13.1916 8.9C13.027 8.9 12.9 9.03887 12.9 9.2V11.924C12.9 12.0851 13.027 12.224 13.1916 12.224C13.3562 12.224 13.4831 12.0851 13.4831 11.924V9.2C13.4831 9.03887 13.3562 8.9 13.1916 8.9Z"
          fill="#1F4397" stroke="#1F4397" stroke-width="0.2"/>
    <path d="M13.4831 18.664V14.2C13.4831 14.0389 13.3562 13.9 13.1916 13.9C13.027 13.9 12.9 14.0389 12.9 14.2V18.664C12.9 18.8251 13.027 18.964 13.1916 18.964C13.3562 18.964 13.4831 18.8251 13.4831 18.664Z"
          fill="#1F4397" stroke="#1F4397" stroke-width="0.2"/>
</svg>
