<svg viewBox="0 0 32 32" fill="none" xmlns="http://www.w3.org/2000/svg">
<circle cx="16" cy="16" r="16" fill="#F4F4F4"/>
<path d="M18.5 13.5V11.5C18.5 11.2374 18.4353 10.9773 18.3097 10.7346C18.1841 10.492 17.9999 10.2715 17.7678 10.0858C17.5356 9.90007 17.26 9.75275 16.9567 9.65224C16.6534 9.55173 16.3283 9.5 16 9.5C15.6717 9.5 15.3466 9.55173 15.0433 9.65224C14.74 9.75275 14.4644 9.90007 14.2322 10.0858C14.0001 10.2715 13.8159 10.492 13.6903 10.7346C13.5647 10.9773 13.5 11.2374 13.5 11.5V13.5M18.5 13.5H20.5C21.0523 13.5 21.5 13.9477 21.5 14.5V19.5C21.5 20.0523 21.0523 20.5 20.5 20.5H11.5C10.9477 20.5 10.5 20.0523 10.5 19.5V14.5C10.5 13.9477 10.9477 13.5 11.5 13.5H13.5M18.5 13.5H13.5M16 17.5C16.2761 17.5 16.5 17.2761 16.5 17C16.5 16.7239 16.2761 16.5 16 16.5C15.7239 16.5 15.5 16.7239 15.5 17C15.5 17.2761 15.7239 17.5 16 17.5ZM16 17.5V18.5" stroke="#1F4397" stroke-linecap="round"/>
</svg>
