<svg viewBox="0 0 32 32" fill="none" xmlns="http://www.w3.org/2000/svg">
<circle cx="16" cy="16" r="16" fill="#F4F4F4"/>
<path d="M20.1623 22.2889C20.3245 22.5124 20.6372 22.562 20.8607 22.3998C21.0841 22.2376 21.1338 21.9249 20.9716 21.7015L20.1623 22.2889ZM11.1753 21.6843C11.0036 21.9006 11.0398 22.2151 11.2561 22.3868C11.4723 22.5585 11.7868 22.5223 11.9585 22.3061L11.1753 21.6843ZM13.0669 20.1057L13.34 19.6869L13.0669 20.1057ZM20.0669 8.56699C19.8278 8.42892 19.522 8.51085 19.3839 8.75C19.2459 8.98915 19.3278 9.29494 19.5669 9.43301L20.0669 8.56699ZM21.7294 11.3798C21.8918 11.6032 22.2044 11.6527 22.4278 11.4903C22.6512 11.328 22.7007 11.0153 22.5383 10.7919L21.7294 11.3798ZM12.5669 9.43301C12.8061 9.29494 12.888 8.98915 12.7499 8.75C12.6119 8.51085 12.3061 8.42892 12.0669 8.56699L12.5669 9.43301ZM9.59554 10.7919C9.43319 11.0153 9.48267 11.328 9.70604 11.4903C9.92942 11.6527 10.2421 11.6032 10.4045 11.3798L9.59554 10.7919ZM16.5669 12.9952C16.5669 12.719 16.3431 12.4952 16.0669 12.4952C15.7908 12.4952 15.5669 12.719 15.5669 12.9952H16.5669ZM16.0669 16.4952H15.5669C15.5669 16.7713 15.7908 16.9952 16.0669 16.9952V16.4952ZM18.0669 16.9952C18.3431 16.9952 18.5669 16.7713 18.5669 16.4952C18.5669 16.219 18.3431 15.9952 18.0669 15.9952V16.9952ZM11.0669 15.4952C11.0669 12.7338 13.3055 10.4952 16.0669 10.4952V9.49519C12.7532 9.49519 10.0669 12.1815 10.0669 15.4952H11.0669ZM16.0669 10.4952C18.8284 10.4952 21.0669 12.7338 21.0669 15.4952H22.0669C22.0669 12.1815 19.3806 9.49519 16.0669 9.49519V10.4952ZM21.0669 15.4952C21.0669 17.2161 20.198 18.7342 18.8726 19.6345L19.4345 20.4617C21.0222 19.3832 22.0669 17.5613 22.0669 15.4952H21.0669ZM18.8726 19.6345C18.0728 20.1778 17.1077 20.4952 16.0669 20.4952V21.4952C17.3143 21.4952 18.4742 21.114 19.4345 20.4617L18.8726 19.6345ZM20.9716 21.7015L19.5582 19.7544L18.7489 20.3418L20.1623 22.2889L20.9716 21.7015ZM16.0669 20.4952C15.06 20.4952 14.124 20.1981 13.34 19.6869L12.7938 20.5246C13.7354 21.1385 14.8603 21.4952 16.0669 21.4952V20.4952ZM13.34 19.6869C11.9705 18.7939 11.0669 17.2499 11.0669 15.4952H10.0669C10.0669 17.602 11.1532 19.4548 12.7938 20.5246L13.34 19.6869ZM11.9585 22.3061L13.4585 20.4166L12.6753 19.7948L11.1753 21.6843L11.9585 22.3061ZM19.5669 9.43301C20.4162 9.92331 21.1529 10.5866 21.7294 11.3798L22.5383 10.7919C21.8795 9.88534 21.0375 9.12733 20.0669 8.56699L19.5669 9.43301ZM12.0669 8.56699C11.0964 9.12733 10.2544 9.88534 9.59554 10.7919L10.4045 11.3798C10.981 10.5866 11.7177 9.92331 12.5669 9.43301L12.0669 8.56699ZM15.5669 12.9952V16.4952H16.5669V12.9952H15.5669ZM16.0669 16.9952H18.0669V15.9952H16.0669V16.9952Z" fill="#1F4397"/>
</svg>
