<svg viewBox="0 0 32 32" fill="none" xmlns="http://www.w3.org/2000/svg">
<circle cx="16" cy="16" r="16" fill="#F4F4F4"/>
<circle cx="16" cy="16" r="16" fill="#F4F4F4"/>
<path d="M22.9565 22.3654L21.9052 20.0652L22.2431 19.9065C22.3558 19.8669 22.4309 19.7479 22.4309 19.6686C22.4684 19.5496 22.4309 19.4306 22.3933 19.3513L17.1743 10.6261C17.1493 10.5732 17.1118 10.5335 17.0617 10.5071C16.4234 9.55524 15.4097 9 14.2833 9C13.7952 9 13.307 9.11898 12.8189 9.35694L12.6312 9.43626C12.4059 9.55524 12.1807 9.83286 12.068 10.1501C11.9554 10.4674 11.9929 10.7847 12.1056 11.102L13.9829 15.3059C14.1706 15.7422 14.5836 16.0198 15.0342 16.0198C15.2219 16.0198 15.3721 15.9802 15.5223 15.9008L15.71 15.8215C15.8602 15.7422 15.9729 15.6629 16.123 15.5836L20.516 20.4618C20.5911 20.5411 20.7037 20.5807 20.7788 20.5807C20.8164 20.5807 20.8914 20.5807 20.929 20.5411L21.1543 20.4221L22.2056 22.762C22.2807 22.9207 22.3933 23 22.5435 23C22.581 23 22.6561 23 22.6937 22.9603C22.9565 22.8017 23.0691 22.5637 22.9565 22.3654ZM15.4472 15.068L15.2595 15.187C15.0342 15.3059 14.7714 15.187 14.6963 14.9887L12.8189 10.7847C12.7814 10.6657 12.7438 10.5467 12.8189 10.4278C12.8189 10.3088 12.894 10.1898 13.0067 10.1501L13.1944 10.0708C13.5699 9.91218 13.9453 9.7932 14.3208 9.7932C15.3346 9.7932 16.2732 10.4278 16.6862 11.3796C16.9866 12.0538 17.0242 12.8074 16.7989 13.5212C16.5736 14.1955 16.0855 14.7507 15.4472 15.068ZM21.2669 19.5099L20.929 19.6686L16.7613 15.068C17.0992 14.711 17.3621 14.2748 17.5123 13.7592C17.5874 13.4816 17.6624 13.204 17.7 12.9263L21.5673 19.3513L21.2669 19.5099Z" fill="#1F4397"/>
<path d="M12 11L10 12" stroke="#1F4397" stroke-width="0.8" stroke-linecap="round"/>
<path d="M14 15L12 16" stroke="#1F4397" stroke-width="0.8" stroke-linecap="round"/>
<path d="M13 13L11 14M10 14.5L9 15" stroke="#1F4397" stroke-width="0.8" stroke-linecap="round"/>
</svg>
