<svg viewBox="0 0 32 32" fill="none" xmlns="http://www.w3.org/2000/svg">
<circle cx="16" cy="16" r="16" fill="#F4F4F4"/>
<path d="M13.5 19.5C13.5 20.0523 13.0523 20.5 12.5 20.5C11.9477 20.5 11.5 20.0523 11.5 19.5C11.5 18.9477 11.9477 18.5 12.5 18.5C13.0523 18.5 13.5 18.9477 13.5 19.5Z" stroke="#1F4397"/>
<path d="M20.5 19.5C20.5 20.0523 20.0523 20.5 19.5 20.5C18.9477 20.5 18.5 20.0523 18.5 19.5C18.5 18.9477 18.9477 18.5 19.5 18.5C20.0523 18.5 20.5 18.9477 20.5 19.5Z" stroke="#1F4397"/>
<path d="M13.5 19.5C13.5 20.0523 13.0523 20.5 12.5 20.5C11.9477 20.5 11.5 20.0523 11.5 19.5M13.5 19.5C13.5 18.9477 13.0523 18.5 12.5 18.5C11.9477 18.5 11.5 18.9477 11.5 19.5M13.5 19.5H18.5M11.5 19.5H10.5C9.94772 19.5 9.5 19.0523 9.5 18.5V16.5C9.5 15.9477 9.94772 15.5 10.5 15.5H12.5M20.5 19.5C20.5 20.0523 20.0523 20.5 19.5 20.5C18.9477 20.5 18.5 20.0523 18.5 19.5M20.5 19.5C20.5 18.9477 20.0523 18.5 19.5 18.5C18.9477 18.5 18.5 18.9477 18.5 19.5M20.5 19.5H21.5C22.0523 19.5 22.5 19.0523 22.5 18.5V15.5M22.5 15.5L21.2433 12.1489C21.097 11.7586 20.7238 11.5 20.307 11.5H15.118C14.7393 11.5 14.393 11.714 14.2236 12.0528L12.5 15.5M22.5 15.5H12.5" stroke="#1F4397" stroke-linejoin="round"/>
<path d="M21.2433 12.1489L22.5 15.5H16.5L17.5 11.5H20.307C20.7238 11.5 21.097 11.7586 21.2433 12.1489Z" stroke="#1F4397" stroke-linejoin="round"/>
<path d="M12.5 15.5L14.2236 12.0528C14.393 11.714 14.7393 11.5 15.118 11.5H17.5L16.5 15.5H12.5Z" stroke="#1F4397" stroke-linejoin="round"/>
</svg>
