<svg viewBox="0 0 32 32" fill="none" xmlns="http://www.w3.org/2000/svg">
<circle cx="16" cy="16" r="16" fill="#F4F4F4"/>
<g clip-path="url(#clip0_3049_26058)">
<path d="M16.0014 21.7765C18.486 21.7765 20.496 19.7811 20.496 17.3135C20.496 14.8459 18.486 12.8506 16.0014 12.8506C13.5169 12.8506 11.5069 14.8459 11.5069 17.3135C11.5069 19.7748 13.5232 21.7765 16.0014 21.7765ZM16.0014 13.5625C18.086 13.5625 19.7796 15.2445 19.7796 17.3135C19.7796 19.3826 18.086 21.0646 16.0014 21.0646C13.9169 21.0646 12.2232 19.3826 12.2232 17.3135C12.2232 15.2445 13.9169 13.5625 16.0014 13.5625Z" fill="#1F4397" stroke="#424753" stroke-width="0.08"/>
<path d="M15.9979 14.8261C17.3824 14.8261 18.5033 15.9395 18.5033 17.3135C18.5033 17.5128 18.6615 17.6694 18.8615 17.6694C19.0615 17.6694 19.2197 17.5128 19.2197 17.3135C19.2197 15.5473 17.7761 14.1143 15.9979 14.1143C15.7979 14.1143 15.6397 14.2709 15.6397 14.4702C15.6397 14.6695 15.7979 14.8261 15.9979 14.8261Z" fill="#1F4397" stroke="#424753" stroke-width="0.08"/>
<path d="M22.0455 7.96H9.95455C9.40454 7.96 8.96 8.40098 8.96 8.94777V22.0522C8.96 22.599 9.40454 23.04 9.95455 23.04H22.0455C22.5955 23.04 23.04 22.599 23.04 22.0522V8.94777C23.04 8.40098 22.5955 7.96 22.0455 7.96ZM9.67636 8.94777C9.67636 8.79321 9.79819 8.67185 9.95455 8.67185H22.0455C22.2018 8.67185 22.3236 8.79321 22.3236 8.94777V11.5868H9.67636V8.94777ZM22.3236 22.0522C22.3236 22.2068 22.2018 22.3282 22.0455 22.3282H9.95455C9.79819 22.3282 9.67636 22.2068 9.67636 22.0522V12.2986H22.3236V22.0522Z" fill="#1F4397" stroke="#424753" stroke-width="0.08"/>
<path d="M20.7749 9.05961C20.2249 9.05961 19.7803 9.50059 19.7803 10.0474C19.7803 10.5942 20.2249 11.0351 20.7749 11.0351C21.3249 11.0351 21.7694 10.5942 21.7694 10.0474C21.7694 9.50059 21.3249 9.05961 20.7749 9.05961ZM20.7749 10.3233C20.6185 10.3233 20.4967 10.2019 20.4967 10.0474C20.4967 9.89282 20.6185 9.77145 20.7749 9.77145C20.9312 9.77145 21.053 9.89282 21.053 10.0474C21.053 10.2019 20.9312 10.3233 20.7749 10.3233Z" fill="#1F4397" stroke="#424753" stroke-width="0.08"/>
<path d="M18.228 9.05961C17.678 9.05961 17.2334 9.50059 17.2334 10.0474C17.2334 10.5942 17.678 11.0351 18.228 11.0351C18.778 11.0351 19.2225 10.5942 19.2225 10.0474C19.2225 9.50059 18.778 9.05961 18.228 9.05961ZM18.228 10.3233C18.0716 10.3233 17.9498 10.2019 17.9498 10.0474C17.9498 9.89282 18.0716 9.77145 18.228 9.77145C18.3843 9.77145 18.5062 9.89282 18.5062 10.0474C18.5062 10.2019 18.3843 10.3233 18.228 10.3233Z" fill="#1F4397" stroke="#424753" stroke-width="0.08"/>
</g>
<defs>
<clipPath id="clip0_3049_26058">
<rect width="14" height="15" fill="white" transform="translate(9 8)"/>
</clipPath>
</defs>
</svg>
