<svg viewBox="0 0 32 32" fill="none" xmlns="http://www.w3.org/2000/svg">
<circle cx="16" cy="16" r="16" fill="#F4F4F4"/>
<path d="M16.584 21.5354C16.584 21.8485 16.3202 22.1022 15.9948 22.1022C15.6694 22.1022 15.4055 21.8485 15.4055 21.5354C15.4055 21.2224 15.6694 20.9686 15.9948 20.9686C16.3202 20.9686 16.584 21.2224 16.584 21.5354Z" fill="white"/>
<path d="M17.3478 18.3935L17.1627 18.858L17.3478 18.3935ZM14.6418 18.3935L14.8269 18.858L14.6418 18.3935ZM13.1482 18.7703C12.9492 18.9618 12.943 19.2783 13.1344 19.4773C13.3259 19.6763 13.6424 19.6825 13.8414 19.4911L13.1482 18.7703ZM8.9815 13.6289C8.78249 13.8203 8.77634 14.1368 8.96777 14.3358C9.15921 14.5348 9.47573 14.541 9.67475 14.3496L8.9815 13.6289ZM18.8414 18.7703C18.4658 18.4091 18.021 18.1235 17.5328 17.929L17.1627 18.858C17.5324 19.0053 17.8671 19.2207 18.1482 19.4911L18.8414 18.7703ZM17.5328 17.929C17.0447 17.7345 16.5221 17.6346 15.9948 17.6346V18.6346C16.3961 18.6346 16.793 18.7107 17.1627 18.858L17.5328 17.929ZM15.9948 17.6346C15.4675 17.6346 14.9449 17.7345 14.4567 17.929L14.8269 18.858C15.1966 18.7107 15.5935 18.6346 15.9948 18.6346V17.6346ZM14.4567 17.929C13.9685 18.1235 13.5237 18.4091 13.1482 18.7703L13.8414 19.4911C14.1225 19.2207 14.4572 19.0053 14.8269 18.858L14.4567 17.929ZM9.67475 14.3496C11.3477 12.7403 13.6208 11.833 15.9948 11.833V10.833C13.3678 10.833 10.8447 11.8366 8.9815 13.6289L9.67475 14.3496ZM15.9948 11.833C18.3688 11.833 20.6419 12.7403 22.3148 14.3496L23.0081 13.6289C21.1448 11.8366 18.6218 10.833 15.9948 10.833V11.833ZM11.3414 17.0863C12.5724 15.9023 14.2459 15.2338 15.9948 15.2338V14.2338C13.993 14.2338 12.0694 14.9986 10.6482 16.3656L11.3414 17.0863ZM15.9948 15.2338C17.7437 15.2338 19.4172 15.9023 20.6482 17.0863L21.3414 16.3656C19.9202 14.9986 17.9966 14.2338 15.9948 14.2338V15.2338ZM16.084 21.5354C16.084 21.5475 16.0798 21.5615 16.0648 21.5759C16.0496 21.5905 16.0258 21.6022 15.9948 21.6022V22.6022C16.5779 22.6022 17.084 22.1427 17.084 21.5354H16.084ZM15.9948 21.6022C15.9638 21.6022 15.94 21.5905 15.9247 21.5759C15.9098 21.5615 15.9055 21.5475 15.9055 21.5354H14.9055C14.9055 22.1427 15.4117 22.6022 15.9948 22.6022V21.6022ZM15.9055 21.5354C15.9055 21.5234 15.9098 21.5093 15.9247 21.495C15.94 21.4803 15.9638 21.4686 15.9948 21.4686V20.4686C15.4117 20.4686 14.9055 20.9281 14.9055 21.5354H15.9055ZM15.9948 21.4686C16.0258 21.4686 16.0496 21.4803 16.0648 21.495C16.0798 21.5093 16.084 21.5234 16.084 21.5354H17.084C17.084 20.9281 16.5779 20.4686 15.9948 20.4686V21.4686Z" fill="#1F4397"/>
</svg>
