<svg viewBox="0 0 32 32" fill="none" xmlns="http://www.w3.org/2000/svg">
<circle cx="16" cy="16" r="16" fill="#F4F4F4"/>
<path d="M18.5 13.5V12.5C18.5 12.2374 18.4353 11.9773 18.3097 11.7346C18.1841 11.492 17.9999 11.2715 17.7678 11.0858C17.5356 10.9001 17.26 10.7528 16.9567 10.6522C16.6534 10.5517 16.3283 10.5 16 10.5C15.6717 10.5 15.3466 10.5517 15.0433 10.6522C14.74 10.7528 14.4644 10.9001 14.2322 11.0858C14.0001 11.2715 13.8159 11.492 13.6903 11.7346C13.5647 11.9773 13.5 12.2374 13.5 12.5V13.5M18.5 13.5H20.5C21.0523 13.5 21.5 13.9477 21.5 14.5V19.5C21.5 20.0523 21.0523 20.5 20.5 20.5H11.5C10.9477 20.5 10.5 20.0523 10.5 19.5V14.5C10.5 13.9477 10.9477 13.5 11.5 13.5H13.5M18.5 13.5H13.5" stroke="#1F4397" stroke-linecap="round"/>
</svg>
