<svg viewBox="0 0 85 84" fill="none" xmlns="http://www.w3.org/2000/svg">
<g filter="url(#filter0_b_2765_12)">
<ellipse cx="42.5" cy="42" rx="42.5" ry="42" fill="#F2F2F2" fill-opacity="0.3"/>
</g>
<path d="M59.6046 37.0698C59.2114 36.1821 58.5583 35.5421 57.7152 35.2197L57.7039 35.2157C57.3202 35.0729 56.9117 34.9999 56.4996 35.0003H56.4542C54.5245 35.0279 52.5543 36.5859 51.5526 38.8774C50.8179 40.5531 50.7336 42.3553 51.3273 43.6986C51.7198 44.5869 52.3744 45.2269 53.2209 45.5493L53.2301 45.5527C53.6139 45.6953 54.0224 45.7684 54.4345 45.768C56.3827 45.768 58.3734 44.2101 59.3935 41.8883C60.1189 40.2146 60.199 38.4137 59.6046 37.0698ZM51.894 46.9531C50.7811 46.3178 49.7291 45.7169 49.0419 44.6374C47.1461 41.6494 46.0013 39.8458 42.9997 39.8458C39.9981 39.8458 38.8504 41.6494 36.9504 44.6374C36.2618 45.7182 35.2077 46.3199 34.0912 46.9578C32.811 47.6887 31.4884 48.4438 30.9174 49.9297C30.6954 50.4654 30.5836 51.0365 30.588 51.6122C30.588 54.0315 32.5716 56 35.0086 56C36.2661 56 37.6043 55.5861 39.0204 55.148C40.382 54.7267 41.7897 54.2913 43.0068 54.2913C44.2239 54.2913 45.628 54.7267 46.9846 55.148C48.3979 55.5834 49.7298 55.9973 50.9908 55.9973C53.4243 55.9973 55.4043 54.0288 55.4043 51.6095C55.4063 51.0334 55.2921 50.4623 55.0678 49.927C54.4968 48.4397 53.1735 47.684 51.894 46.9531ZM35.4903 37.4803C36.3334 38.485 37.4031 39.0382 38.5026 39.0382C38.6527 39.0382 38.8026 39.0276 38.951 39.0066C41.2442 38.6862 42.6731 36.028 42.2041 32.9498C42.0079 31.6556 41.4837 30.4503 40.7327 29.5566C39.8911 28.5539 38.8199 28.0013 37.7212 28.0013C37.5711 28.0014 37.4212 28.0119 37.2727 28.033C34.9795 28.3533 33.5506 31.0116 34.0196 34.0898C34.2151 35.3819 34.7394 36.5859 35.4903 37.4803ZM47.0491 39.0066C47.1975 39.0276 47.3474 39.0382 47.4975 39.0382C48.5977 39.0382 49.6667 38.485 50.5098 37.4803C51.26 36.5859 51.7814 35.3819 51.9798 34.0884C52.4487 31.0116 51.0198 28.3533 48.7267 28.0316C48.5782 28.0106 48.4283 28 48.2782 28C47.1794 28.0013 46.1083 28.5539 45.2667 29.5566C44.5157 30.4503 43.9915 31.6556 43.796 32.9511C43.327 36.028 44.7559 38.6862 47.0491 39.0066ZM32.7692 45.5527L32.7792 45.5493C33.6243 45.2269 34.2782 44.5876 34.67 43.6999C35.2636 42.354 35.18 40.5538 34.4468 38.878C33.4316 36.559 31.4416 35.0003 29.4956 35.0003C29.0835 34.9998 28.6749 35.0728 28.2912 35.2157L28.2813 35.2191C27.4383 35.5387 26.7844 36.1807 26.3926 37.0684C25.799 38.4144 25.8826 40.2146 26.6158 41.8903C27.631 44.2094 29.621 45.768 31.567 45.768C31.9784 45.7683 32.3862 45.6953 32.7692 45.5527Z" fill="white" fill-opacity="0.62"/>
<defs>
<filter id="filter0_b_2765_12" x="-15.4" y="-15.4" width="115.8" height="114.8" filterUnits="userSpaceOnUse" color-interpolation-filters="sRGB">
<feFlood flood-opacity="0" result="BackgroundImageFix"/>
<feGaussianBlur in="BackgroundImageFix" stdDeviation="7.7"/>
<feComposite in2="SourceAlpha" operator="in" result="effect1_backgroundBlur_2765_12"/>
<feBlend mode="normal" in="SourceGraphic" in2="effect1_backgroundBlur_2765_12" result="shape"/>
</filter>
</defs>
</svg>
