<svg viewBox="0 0 36 36" fill="none" xmlns="http://www.w3.org/2000/svg">
<path d="M16.1007 13.1508C15.2687 12.8865 14.3611 13.0753 13.7182 13.7172C13.0753 14.3592 12.8863 15.2655 13.151 16.0962L19.3152 34.5617C19.5799 35.3924 20.3362 35.9211 21.1682 35.9966C21.7733 36.0344 22.3783 35.8078 22.7943 35.3924C22.9456 35.2414 23.0969 35.0148 23.2103 34.826L26.992 26.9716L34.8202 23.1954C35.6143 22.8178 36.0681 22.0248 35.9925 21.1563C35.9547 20.2878 35.3874 19.5703 34.5554 19.3059L16.1007 13.1508ZM33.9882 21.3073C33.9882 21.3325 33.9756 21.3577 33.9504 21.3828L26.1222 25.159C25.7062 25.3478 25.3281 25.7254 25.139 26.1408L21.3573 33.9575C21.3573 33.9826 21.3321 33.9952 21.2816 33.9952C21.2312 33.9952 21.2186 33.9826 21.2438 33.9575L15.0796 15.492C15.0418 15.3787 15.0796 15.2655 15.1553 15.1899C15.2309 15.1144 15.3444 15.0766 15.4578 15.1144L33.9504 21.2696C33.9756 21.2696 33.9882 21.2821 33.9882 21.3073Z" fill="white"/>
<path d="M8.97369 8.41779C9.42059 8.01837 9.42059 7.40109 8.97369 7.03798L5.60165 4.02417C5.15476 3.62475 4.4641 3.62475 4.05783 4.02417C3.61093 4.42359 3.61093 5.04088 4.05783 5.40399L7.42987 8.41779C7.83614 8.7809 8.52679 8.7809 8.97369 8.41779Z" fill="white"/>
<path d="M13.3853 6.19832C13.6061 6.16192 13.827 6.0527 13.9743 5.90707C14.1951 5.68863 14.3056 5.39738 14.2688 5.10613L13.7534 0.846599C13.6798 0.300505 13.2012 -0.0635578 12.649 0.0092547C12.0968 0.0820673 11.7287 0.555349 11.8023 1.10144L12.3177 5.36098C12.3545 5.87067 12.8331 6.27113 13.3853 6.19832Z" fill="white"/>
<path d="M21.8502 2.00986C21.3601 1.72136 20.7568 1.86561 20.4552 2.33443L18.1553 5.97681C17.8537 6.44563 18.0045 7.02264 18.4946 7.31115C18.9094 7.52753 19.3995 7.49147 19.7388 7.1669C19.8142 7.09477 19.8519 7.05871 19.8896 6.98658L22.1895 3.3442C22.4912 2.91144 22.3404 2.29837 21.8502 2.00986Z" fill="white"/>
<path d="M26.57 8.13071L22.3916 9.75626C21.8598 9.94978 21.5939 10.569 21.7838 11.1109C21.9738 11.6527 22.5815 11.9237 23.1133 11.7301L27.2917 10.1046C27.4437 10.0659 27.5576 9.94978 27.6336 9.87237C27.8995 9.60145 28.0134 9.17571 27.8615 8.74997C27.7096 8.20812 27.1018 7.93719 26.57 8.13071Z" fill="white"/>
<path d="M5.10601 14.2689C5.43371 14.3051 5.72499 14.1963 5.90704 13.9786C6.05268 13.8334 6.16191 13.6157 6.19832 13.398C6.27114 12.8538 5.87063 12.3821 5.36088 12.3095L1.10088 11.8015C0.55473 11.7289 0.0813964 12.1281 0.00857592 12.6361C-0.0642446 13.1803 0.336268 13.652 0.846012 13.7246L5.10601 14.2689Z" fill="white"/>
<path d="M6.97443 19.2685C7.04636 19.2308 7.11829 19.1554 7.15425 19.1177C7.47792 18.7784 7.54985 18.2883 7.2981 17.8735C7.01039 17.3834 6.43497 17.2326 5.96744 17.5342L2.33508 19.8341C1.86755 20.1357 1.72369 20.739 2.01141 21.2291C2.29912 21.7193 2.87454 21.8701 3.34207 21.5684L6.97443 19.2685Z" fill="white"/>
<path d="M11.2268 21.1643C10.7753 20.9756 10.2593 21.2398 10.098 21.7684L8.74336 25.9214C8.5821 26.4499 8.80787 27.054 9.25941 27.2428C9.58194 27.3938 9.93673 27.2805 10.1948 27.0162C10.2915 26.903 10.356 26.7897 10.3883 26.6765L11.7429 22.5235C11.9042 21.9572 11.6784 21.3909 11.2268 21.1643Z" fill="white"/>
</svg>
