<svg viewBox="0 0 47 46" fill="none" xmlns="http://www.w3.org/2000/svg">
<g filter="url(#filter0_b_378_3536)">
<ellipse cx="23.2529" cy="22.9826" rx="23.2529" ry="22.9826" fill="white"/>
</g>
<path d="M35.4801 23.9364L38 22.9489C38 21.723 37.8638 20.5312 37.5573 19.3734L34.8672 19.0329C34.6969 18.5221 34.4926 18.0114 34.2543 17.5346L35.9569 15.4234C35.3439 14.3678 34.6288 13.4143 33.7775 12.563L31.2917 13.6186C30.8831 13.2781 30.4745 12.9376 30.0318 12.6311L30.4745 9.97503C29.4529 9.39614 28.3292 8.91941 27.1714 8.57889L25.5369 10.7242C25.1623 10.6561 24.7537 10.588 24.3451 10.5539C24.2089 10.5539 24.0726 10.5199 23.9364 10.5199L22.9489 8C21.723 8 20.5312 8.13621 19.3734 8.44268L19.0329 11.1328C18.5221 11.3031 18.0114 11.5074 17.5346 11.7457L15.4234 10.0431C14.3678 10.6561 13.4143 11.3712 12.563 12.2225L13.6186 14.7083C13.2781 15.1169 12.9376 15.5255 12.6311 15.9682L9.97503 15.5596C9.39614 16.5812 8.91941 17.7049 8.57889 18.8627L10.7242 20.4972C10.6561 20.8717 10.588 21.2804 10.5539 21.689C10.5539 21.8252 10.5199 21.9614 10.5199 22.0976L8 23.0511C8 24.277 8.13621 25.4688 8.44268 26.6266L11.1328 26.9671C11.3031 27.4779 11.5074 27.9886 11.7457 28.4654L10.0431 30.5766C10.6561 31.6322 11.3712 32.5857 12.2225 33.437L14.7083 32.3814C15.1169 32.7219 15.5255 33.0624 15.9682 33.3689L15.5596 36.025C16.5812 36.6039 17.7049 37.0806 18.8627 37.4211L20.4972 35.2758C20.8717 35.3439 21.2804 35.412 21.689 35.4461C21.8252 35.4461 21.9614 35.4801 22.0976 35.4801L23.0851 38C24.311 38 25.5028 37.8638 26.6606 37.5573L27.0011 34.8672C27.5119 34.6969 28.0227 34.4926 28.4994 34.2543L30.6107 35.9569C31.6663 35.3439 32.6198 34.6288 33.4711 33.7775L32.4154 31.2917C32.756 30.8831 33.0965 30.4745 33.403 30.0318L36.059 30.4404C36.6379 29.4188 37.1146 28.2951 37.4552 27.1373L35.3099 25.5028C35.378 25.1283 35.4461 24.7196 35.4801 24.311C35.4461 24.2089 35.4801 24.0726 35.4801 23.9364ZM29.4869 23.6981C29.1124 27.2736 25.8774 29.8615 22.3019 29.4869C18.7264 29.0783 16.1385 25.8774 16.5131 22.3019C16.8876 18.7264 20.1226 16.1385 23.6981 16.5131C27.2736 16.9217 29.8615 20.1226 29.4869 23.6981Z" fill="#6793DF"/>
<defs>
<filter id="filter0_b_378_3536" x="-15.4" y="-15.4" width="77.3078" height="76.7648" filterUnits="userSpaceOnUse" color-interpolation-filters="sRGB">
<feFlood flood-opacity="0" result="BackgroundImageFix"/>
<feGaussianBlur in="BackgroundImageFix" stdDeviation="7.7"/>
<feComposite in2="SourceAlpha" operator="in" result="effect1_backgroundBlur_378_3536"/>
<feBlend mode="normal" in="SourceGraphic" in2="effect1_backgroundBlur_378_3536" result="shape"/>
</filter>
</defs>
</svg>
