<svg viewBox="0 0 96 99" fill="none" xmlns="http://www.w3.org/2000/svg">
<g filter="url(#filter0_bd_2763_11)">
<rect y="11.6207" width="85" height="85" rx="42.5" transform="rotate(-7.85775 0 11.6207)" fill="#9CE3F6" fill-opacity="0.5" shape-rendering="crispEdges"/>
</g>
<path opacity="0.7" d="M58.3636 29H38.6364C37.142 29.0016 35.7093 29.5891 34.6527 30.6336C33.596 31.6781 33.0016 33.0943 33 34.5714V62.4286C33.0016 63.9057 33.596 65.3219 34.6527 66.3664C35.7093 67.4109 37.142 67.9984 38.6364 68H58.3636C59.858 67.9984 61.2907 67.4109 62.3473 66.3664C63.404 65.3219 63.9984 63.9057 64 62.4286V34.5714C63.9984 33.0943 63.404 31.6781 62.3473 30.6336C61.2907 29.5891 59.858 29.0016 58.3636 29ZM48.5 52.6786H41.4545C41.0808 52.6786 40.7224 52.5318 40.4582 52.2706C40.1939 52.0094 40.0455 51.6551 40.0455 51.2857C40.0455 50.9163 40.1939 50.562 40.4582 50.3008C40.7224 50.0396 41.0808 49.8929 41.4545 49.8929H48.5C48.8737 49.8929 49.2321 50.0396 49.4964 50.3008C49.7606 50.562 49.9091 50.9163 49.9091 51.2857C49.9091 51.6551 49.7606 52.0094 49.4964 52.2706C49.2321 52.5318 48.8737 52.6786 48.5 52.6786ZM55.5455 45.7143H41.4545C41.0808 45.7143 40.7224 45.5675 40.4582 45.3063C40.1939 45.0451 40.0455 44.6908 40.0455 44.3214C40.0455 43.952 40.1939 43.5977 40.4582 43.3365C40.7224 43.0753 41.0808 42.9286 41.4545 42.9286H55.5455C55.9192 42.9286 56.2776 43.0753 56.5418 43.3365C56.8061 43.5977 56.9545 43.952 56.9545 44.3214C56.9545 44.6908 56.8061 45.0451 56.5418 45.3063C56.2776 45.5675 55.9192 45.7143 55.5455 45.7143ZM55.5455 38.75H41.4545C41.0808 38.75 40.7224 38.6033 40.4582 38.342C40.1939 38.0808 40.0455 37.7266 40.0455 37.3571C40.0455 36.9877 40.1939 36.6335 40.4582 36.3722C40.7224 36.111 41.0808 35.9643 41.4545 35.9643H55.5455C55.9192 35.9643 56.2776 36.111 56.5418 36.3722C56.8061 36.6335 56.9545 36.9877 56.9545 37.3571C56.9545 37.7266 56.8061 38.0808 56.5418 38.342C56.2776 38.6033 55.9192 38.75 55.5455 38.75Z" fill="white"/>
<defs>
<filter id="filter0_bd_2763_11" x="-5" y="-5" width="105.823" height="108.823" filterUnits="userSpaceOnUse" color-interpolation-filters="sRGB">
<feFlood flood-opacity="0" result="BackgroundImageFix"/>
<feGaussianBlur in="BackgroundImageFix" stdDeviation="2.5"/>
<feComposite in2="SourceAlpha" operator="in" result="effect1_backgroundBlur_2763_11"/>
<feColorMatrix in="SourceAlpha" type="matrix" values="0 0 0 0 0 0 0 0 0 0 0 0 0 0 0 0 0 0 127 0" result="hardAlpha"/>
<feOffset dy="4"/>
<feGaussianBlur stdDeviation="2"/>
<feComposite in2="hardAlpha" operator="out"/>
<feColorMatrix type="matrix" values="0 0 0 0 0.447059 0 0 0 0 0.254902 0 0 0 0 0.627451 0 0 0 0.1 0"/>
<feBlend mode="normal" in2="effect1_backgroundBlur_2763_11" result="effect2_dropShadow_2763_11"/>
<feBlend mode="normal" in="SourceGraphic" in2="effect2_dropShadow_2763_11" result="shape"/>
</filter>
</defs>
</svg>
