<svg viewBox="0 0 30 30" fill="none" xmlns="http://www.w3.org/2000/svg">
<path d="M29.4562 14.5688C27.1688 8.58754 21.3937 4.65004 15 4.70629C8.55 4.57504 2.7375 8.53129 0.525 14.5875C0.45 14.8688 0.45 15.15 0.525 15.4125C2.75625 21.45 8.56875 25.4063 15 25.2938C21.4125 25.35 27.1688 21.4125 29.475 15.4313C29.55 15.15 29.55 14.85 29.4562 14.5688ZM15 22.5188C9.9375 22.7063 5.2875 19.6875 3.375 15C5.26875 10.2938 9.91875 7.29379 15 7.48129C20.0438 7.36879 24.6562 10.35 26.6062 15C24.6375 19.65 20.0438 22.6313 15 22.5188ZM15 10.0313C14.6625 10.0313 14.325 10.0688 14.0062 10.1438C14.4937 10.8 14.7562 11.5875 14.7562 12.4125C14.6625 14.7563 12.6938 16.5563 10.35 16.4625C10.3313 16.4625 10.2937 16.4625 10.275 16.4625H10.1437C10.9312 19.1063 13.7063 20.6063 16.35 19.8188C18.9937 19.0313 20.4937 16.2563 19.7063 13.6125C19.0875 11.4938 17.175 10.05 15 10.0313Z" fill="#8B8B8B"/>
</svg>
