<svg viewBox="0 0 20 20" fill="none" xmlns="http://www.w3.org/2000/svg">
<path d="M10 0C4.48582 0 0 4.48582 0 10C0 15.5142 4.48582 20 10 20C12.2233 20 14.3283 19.2858 16.1075 17.9167C16.8142 17.2975 16.8017 16.4125 16.475 15.81C16.2683 15.4283 15.9533 15.1675 15.5867 15.0392L15.7542 14.8517C16.0034 14.5717 16.1134 14.1975 16.055 13.8259C15.9967 13.4542 15.7767 13.1325 15.4525 12.9417L13.2517 11.6534C12.7409 11.3542 12.0817 11.4584 11.6867 11.9009L11.1984 12.45C11.1117 12.5475 10.9925 12.6009 10.8575 12.5892C10.7275 12.5792 10.6117 12.5117 10.54 12.4034L7.85754 8.3559C7.78922 8.2534 7.77004 8.13172 7.80422 8.01258C7.83754 7.89426 7.91754 7.8009 8.03004 7.7484L8.79754 7.39172C9.33672 7.14254 9.62672 6.54254 9.48754 5.96504L8.89004 3.48672C8.80254 3.1209 8.55754 2.81754 8.21922 2.65422C7.88004 2.49004 7.4909 2.48672 7.14922 2.64504L6.46422 2.96254C5.45172 3.43254 4.7059 4.32004 4.4184 5.39836L4.2934 5.86836C4.06758 6.71418 4.1459 7.61754 4.51422 8.41168L5.13004 9.74C6.03336 11.6892 7.26672 13.4425 8.79504 14.9525L9.30336 15.4542C10.0584 16.2 11.0584 16.63 12.1184 16.6642C12.1642 16.6659 12.2109 16.6667 12.2567 16.6667C13.1775 16.6667 14.0592 16.365 14.7817 15.8184C14.7959 15.8159 14.81 15.8192 14.8242 15.815C15.3909 15.6567 15.6717 16.075 15.7425 16.2067C15.9108 16.5184 15.9192 16.9742 15.5792 17.2734C13.9675 18.5117 12.0384 19.1667 10 19.1667C4.94582 19.1667 0.83332 15.0542 0.83332 10C0.83332 4.94586 4.94582 0.83332 10 0.83332C15.0542 0.83332 19.1667 4.94582 19.1667 10C19.1667 10.23 19.3534 10.4167 19.5834 10.4167C19.8134 10.4167 20 10.23 20 10C20 4.48582 15.5142 0 10 0ZM15.1342 14.2983L14.7717 14.705C14.1059 15.4533 13.1575 15.8667 12.1467 15.8317C11.2975 15.8042 10.4959 15.4592 9.89086 14.8617L9.38254 14.3592C7.92504 12.92 6.74922 11.2475 5.88754 9.38918L5.27172 8.06086C4.98504 7.44254 4.92422 6.74086 5.09922 6.08254L5.22422 5.61254C5.44754 4.77422 6.02754 4.08336 6.8159 3.71836L7.5009 3.40086C7.5559 3.37586 7.6159 3.36254 7.6759 3.36254C7.7384 3.36254 7.80008 3.37586 7.8584 3.40336C7.97172 3.45836 8.05258 3.55918 8.08258 3.68086L8.68008 6.15918C8.72676 6.35168 8.63008 6.55168 8.45008 6.635L7.68258 6.99168C7.35176 7.145 7.10426 7.435 7.00508 7.78586C6.9059 8.13668 6.96426 8.51254 7.1659 8.81668L9.84758 12.8642C10.0643 13.1892 10.4109 13.3925 10.8009 13.42C11.1967 13.4483 11.5642 13.2967 11.8242 13.0042L12.3125 12.455C12.4442 12.3075 12.665 12.2725 12.8342 12.3725L15.0342 13.6608C15.1425 13.725 15.2159 13.8325 15.235 13.9558C15.2542 14.08 15.2175 14.205 15.1342 14.2983Z" fill="#424753"/>
</svg>
