<svg viewBox="0 0 24 25" fill="none" xmlns="http://www.w3.org/2000/svg">
<path d="M17.8336 13.8003L18.1571 13.419H18.1571L17.8336 13.8003ZM6.16637 13.8003L6.48986 14.1815L6.16637 13.8003ZM20.75 18.75C20.75 16.7319 19.8045 14.8168 18.1571 13.419L17.5101 14.1815C18.9571 15.4092 19.75 17.0551 19.75 18.75H20.75ZM19.75 18.75V20.25H20.75V18.75H19.75ZM18.25 21.75H5.75V22.75H18.25V21.75ZM4.25 20.25V18.75H3.25V20.25H4.25ZM5.84288 13.419C4.19551 14.8168 3.25 16.7319 3.25 18.75H4.25C4.25 17.0551 5.04288 15.4092 6.48986 14.1815L5.84288 13.419ZM12 11.25C9.70348 11.25 7.48776 12.0233 5.84288 13.419L6.48986 14.1815C7.93933 12.9517 9.92045 12.25 12 12.25V11.25ZM18.1571 13.419C16.5122 12.0233 14.2965 11.25 12 11.25V12.25C14.0796 12.25 16.0607 12.9517 17.5101 14.1815L18.1571 13.419ZM5.75 21.75C4.92157 21.75 4.25 21.0784 4.25 20.25H3.25C3.25 21.6307 4.36929 22.75 5.75 22.75V21.75ZM19.75 20.25C19.75 21.0784 19.0784 21.75 18.25 21.75V22.75C19.6307 22.75 20.75 21.6307 20.75 20.25H19.75Z" fill="#8E99AF"/>
<circle cx="12" cy="7.25" r="4.5" stroke="#8E99AF"/>
</svg>
