<svg viewBox="0 0 18 18" fill="none" xmlns="http://www.w3.org/2000/svg">
<path fill-rule="evenodd" clip-rule="evenodd" d="M0 8.52582H1.42555C1.68752 8.52582 1.89988 8.73818 1.89988 9.00015C1.89988 9.26211 1.68752 9.47448 1.42555 9.47448H1.46916e-05C0.238596 14.0742 3.92596 17.7615 8.52568 18V16.589C8.52568 16.327 8.73804 16.1147 9.00001 16.1147C9.26197 16.1147 9.47434 16.327 9.47434 16.589V18C14.0741 17.7615 17.7614 14.0742 18 9.47448H16.6041C16.3421 9.47448 16.1298 9.26211 16.1298 9.00015C16.1298 8.73818 16.3421 8.52582 16.6041 8.52582H18C17.7616 3.92598 14.0742 0.238515 9.47434 0V1.41065C9.47434 1.67262 9.26197 1.88498 9.00001 1.88498C8.73804 1.88498 8.52568 1.67262 8.52568 1.41065V4.61296e-09C3.92586 0.238515 0.238444 3.92598 0 8.52582ZM8.75805 9.65548L12.4786 4.91477C12.6564 4.67954 12.9529 4.67954 13.1456 4.86048C13.3383 5.07762 13.3383 5.4395 13.1604 5.67473L9.45472 10.4335V10.5059C9.45472 10.9945 9.12862 11.3744 8.74323 11.3744C8.37266 11.3744 8.0762 11.0126 8.04655 10.5783L4.93376 7.71939C4.72624 7.53845 4.68178 7.17656 4.84483 6.92324C4.99306 6.66992 5.28951 6.63373 5.49703 6.81467L8.60982 9.67358C8.65429 9.65548 8.69876 9.65548 8.74323 9.65548H8.75805Z" fill="#EB09FE"/>
</svg>
