<svg viewBox="0 0 18 18" fill="none" xmlns="http://www.w3.org/2000/svg">
<path d="M3.8125 2.8125L9.71079 2.8125C9.976 2.8125 10.2304 2.91786 10.4179 3.10539L16.1679 8.85539C16.5584 9.24592 16.5584 9.87908 16.1679 10.2696L10.2696 16.1679C9.87908 16.5584 9.24592 16.5584 8.85539 16.1679L3.10539 10.4179C2.91786 10.2304 2.8125 9.976 2.8125 9.71079L2.8125 3.8125C2.8125 3.26022 3.26022 2.8125 3.8125 2.8125Z" stroke="#00D8E6" stroke-linecap="round" stroke-linejoin="round"/>
<path d="M8.99998 6.1875V11.8125M12.821 9.04826C12.821 9.66958 12.3173 10.1733 11.696 10.1733C11.0747 10.1733 10.571 9.66958 10.571 9.04826C10.571 8.42693 11.0747 7.92326 11.696 7.92326C12.3173 7.92326 12.821 8.42693 12.821 9.04826ZM7.3125 8.90349C7.3125 9.52481 6.80882 10.0285 6.1875 10.0285C5.56618 10.0285 5.0625 9.52481 5.0625 8.90349C5.0625 8.28217 5.56618 7.77849 6.1875 7.77849C6.80882 7.77849 7.3125 8.28217 7.3125 8.90349Z" stroke="#00D8E6" stroke-linecap="round"/>
</svg>
