<svg width="24" height="24"  xmlns="http://www.w3.org/2000/svg" fill="none" viewBox="0 0 24 24"><path fill="#8E99AF" fill-rule="evenodd" d="M17.563 6.503C16.256 5.355 15.013 5 15.013 5l-2.505 8.317h-.021L9.959 5s-1.242.344-2.549 1.503c-1.391 1.231-2.59 3.12-2.387 6.115.16 2.368 1.96 4.382 1.96 4.382l3.48-.01s-2.989-1.544-3.706-3.976c-.856-2.87.482-4.862 1.51-5.812.417-.355 1.029-.439 1.253.323l2.977 9.392h.01s2.195-6.96 2.978-9.392c.235-.762.845-.678 1.253-.323 1.027.95 2.366 2.943 1.51 5.812-.718 2.431-3.706 3.976-3.706 3.976l3.48.01s1.81-2.024 1.96-4.382c.182-2.996-1.017-4.884-2.42-6.116Z" clip-rule="evenodd"/></svg>