<svg width="14" height="16" viewBox="0 0 14 16" fill="none" xmlns="http://www.w3.org/2000/svg">
<path d="M13.3333 2.28571H9.85507V1.42857C9.85507 1.04969 9.70238 0.686328 9.43059 0.418419C9.1588 0.15051 8.79017 0 8.4058 0H5.50725C5.12288 0 4.75425 0.15051 4.48245 0.418419C4.21066 0.686328 4.05797 1.04969 4.05797 1.42857V2.28571H0.57971C0.425961 2.28571 0.27851 2.34592 0.169793 2.45308C0.0610765 2.56025 0 2.70559 0 2.85714C0 3.0087 0.0610765 3.15404 0.169793 3.2612C0.27851 3.36837 0.425961 3.42857 0.57971 3.42857H1.19565L1.88406 14.3186C1.93551 15.2775 2.68116 16 3.62319 16H10.2899C11.2366 16 11.9674 15.2936 12.029 14.3214L12.7174 3.42857H13.3333C13.4871 3.42857 13.6345 3.36837 13.7433 3.2612C13.852 3.15404 13.913 3.0087 13.913 2.85714C13.913 2.70559 13.852 2.56025 13.7433 2.45308C13.6345 2.34592 13.4871 2.28571 13.3333 2.28571ZM4.65833 13.7143H4.63768C4.48744 13.7144 4.34304 13.657 4.2349 13.5542C4.12676 13.4514 4.06332 13.3112 4.05797 13.1632L3.76812 5.16321C3.76264 5.01166 3.81846 4.86417 3.92331 4.75319C4.02815 4.64221 4.17343 4.57683 4.32717 4.57143C4.48092 4.56603 4.63055 4.62106 4.74314 4.7244C4.85573 4.82775 4.92206 4.97095 4.92754 5.1225L5.21739 13.1225C5.22015 13.1976 5.20788 13.2724 5.18127 13.3428C5.15466 13.4132 5.11424 13.4777 5.06231 13.5326C5.01039 13.5876 4.94799 13.6319 4.87867 13.6631C4.80935 13.6943 4.73448 13.7117 4.65833 13.7143ZM7.53623 13.1429C7.53623 13.2944 7.47516 13.4398 7.36644 13.5469C7.25772 13.6541 7.11027 13.7143 6.95652 13.7143C6.80277 13.7143 6.65532 13.6541 6.54661 13.5469C6.43789 13.4398 6.37681 13.2944 6.37681 13.1429V5.14286C6.37681 4.99131 6.43789 4.84596 6.54661 4.7388C6.65532 4.63163 6.80277 4.57143 6.95652 4.57143C7.11027 4.57143 7.25772 4.63163 7.36644 4.7388C7.47516 4.84596 7.53623 4.99131 7.53623 5.14286V13.1429ZM8.69565 2.28571H5.21739V1.42857C5.21695 1.39093 5.22415 1.35358 5.23857 1.31873C5.25298 1.28387 5.27431 1.2522 5.30131 1.22558C5.32832 1.19896 5.36045 1.17793 5.39581 1.16373C5.43117 1.14952 5.46906 1.14243 5.50725 1.14286H8.4058C8.44398 1.14243 8.48187 1.14952 8.51724 1.16373C8.5526 1.17793 8.58473 1.19896 8.61173 1.22558C8.63873 1.2522 8.66007 1.28387 8.67448 1.31873C8.68889 1.35358 8.69609 1.39093 8.69565 1.42857V2.28571ZM9.85507 13.1632C9.84972 13.3112 9.78629 13.4514 9.67815 13.5542C9.57001 13.657 9.4256 13.7144 9.27536 13.7143H9.25435C9.17824 13.7116 9.1034 13.6942 9.03413 13.663C8.96485 13.6318 8.90249 13.5875 8.8506 13.5325C8.79872 13.4775 8.75833 13.4131 8.73174 13.3427C8.70515 13.2723 8.69289 13.1975 8.69565 13.1225L8.98551 5.1225C8.98822 5.04746 9.0059 4.97368 9.03754 4.90537C9.06918 4.83707 9.11416 4.77557 9.1699 4.7244C9.22565 4.67323 9.29108 4.63338 9.36245 4.60714C9.43382 4.58089 9.50974 4.56876 9.58587 4.57143C9.662 4.5741 9.73685 4.59153 9.80614 4.62272C9.87544 4.6539 9.93783 4.69824 9.98974 4.75319C10.0417 4.80814 10.0821 4.87264 10.1087 4.94299C10.1353 5.01334 10.1476 5.08817 10.1449 5.16321L9.85507 13.1632Z" fill="#8E99AF"/>
</svg>
