<svg viewBox="0 0 18 18" fill="none" xmlns="http://www.w3.org/2000/svg">
<path d="M14.625 6.75C15.113 6.26199 15.1776 4.50384 15.1862 3.31211C15.1882 3.03597 14.964 2.81182 14.6879 2.81381C13.4962 2.82236 11.738 2.88699 11.25 3.375L4.5 10.125L7.875 13.5L14.625 6.75Z" stroke="#00D8E6"/>
<path d="M2.45895 14.8339C2.26368 15.0292 2.26368 15.3458 2.45895 15.5411C2.65421 15.7363 2.97079 15.7363 3.16605 15.5411L2.45895 14.8339ZM4.70895 14.8339C4.51368 15.0292 4.51368 15.3458 4.70895 15.5411C4.90421 15.7363 5.22079 15.7363 5.41605 15.5411L4.70895 14.8339ZM2.45895 12.5839C2.26368 12.7792 2.26368 13.0958 2.45895 13.2911C2.65421 13.4863 2.97079 13.4863 3.16605 13.2911L2.45895 12.5839ZM3.16605 15.5411L5.41605 13.2911L4.70895 12.5839L2.45895 14.8339L3.16605 15.5411ZM5.83395 13.7089L4.70895 14.8339L5.41605 15.5411L6.54105 14.4161L5.83395 13.7089ZM3.58395 11.4589L2.45895 12.5839L3.16605 13.2911L4.29105 12.1661L3.58395 11.4589Z" fill="#00D8E6"/>
<path d="M9.5625 16.3125L7.87497 13.5L10.6875 10.6875C10.6875 10.6875 11.25 10.6875 11.25 12.9375C11.25 15.1875 9.5625 16.3125 9.5625 16.3125Z" stroke="#00D8E6"/>
<path d="M4.49997 10.125L7.31247 7.3125C7.31247 7.3125 7.31247 6.75 5.06247 6.75C2.81247 6.75 1.6875 8.4375 1.6875 8.4375L4.49997 10.125Z" stroke="#00D8E6"/>
</svg>
