<svg viewBox="0 0 41 41" fill="none" xmlns="http://www.w3.org/2000/svg">
<circle cx="20.0597" cy="20.0597" r="20.0597" fill="white"/>
<path d="M20.6896 23.9817C18.366 23.9817 16.4297 22.1871 16.4297 19.944C16.4297 17.7008 18.2886 15.9062 20.6896 15.9062C23.0132 15.9062 24.9495 17.7008 24.9495 19.944C24.9495 22.1871 23.0132 23.9817 20.6896 23.9817ZM20.6896 17.7008C19.4503 17.7008 18.4435 18.6728 18.4435 19.8692C18.4435 21.0655 19.4503 22.0376 20.6896 22.0376C21.9288 22.0376 22.9357 21.0655 22.9357 19.8692C22.9357 18.6728 21.9288 17.7008 20.6896 17.7008Z" fill="#878E9F"/>
<path d="M29.3632 27.5715H11.9363C10.852 27.5715 10 26.749 10 25.7022V14.1125C10 13.0657 10.852 12.2432 11.9363 12.2432H13.0981L13.6403 11.0468C13.8726 10.4486 14.4923 10 15.1893 10H18.9845C19.6816 10 20.3012 10.3739 20.5336 11.0468L21.0757 12.2432H29.3632C30.4475 12.2432 31.2995 13.0657 31.2995 14.1125V25.6274C31.2995 26.6743 30.4475 27.5715 29.3632 27.5715ZM11.9363 14.1125V25.7022H29.3632V14.1125H20.4561C20.0688 14.1125 19.6816 13.8882 19.5267 13.5143L18.8296 11.8693H15.4991L14.8021 13.5143C14.6472 13.8882 14.3374 14.1125 13.8726 14.1125H11.9363Z" fill="#878E9F"/>
</svg>
