<svg xmlns="http://www.w3.org/2000/svg" fill="none" viewBox="0 0 41 41"><circle cx="20.224" cy="20.791" r="20.06" fill="#fff"/><path fill="#8E99AF" d="M25.599 29.618a1 1 0 1 0 1.618-1.175L25.6 29.618ZM13.812 28.41a1 1 0 1 0 1.567 1.244l-1.566-1.244Zm2.752-1.858.547-.838-.547.838Zm9.36-15.442a1 1 0 1 0-1 1.732l1-1.732Zm1.732 4.191a1 1 0 0 0 1.618-1.176L27.656 15.3ZM16.08 12.84a1 1 0 1 0-1-1.731l1 1.732Zm-4.35 1.284a1 1 0 1 0 1.618 1.176l-1.618-1.176Zm9.772 3.094a1 1 0 1 0-2 0h2Zm-1 4.594h-1a1 1 0 0 0 1 1v-1Zm2.625 1a1 1 0 1 0 0-2v2Zm-8.844-2.313a6.219 6.219 0 0 1 6.219-6.218v-2a8.219 8.219 0 0 0-8.219 8.219h2Zm6.219-6.218A6.219 6.219 0 0 1 26.72 20.5h2a8.219 8.219 0 0 0-8.22-8.22v2ZM26.72 20.5c0 2.14-1.08 4.028-2.73 5.148l1.124 1.654a8.211 8.211 0 0 0 3.606-6.802h-2Zm-2.73 5.148a6.185 6.185 0 0 1-3.49 1.07v2a8.185 8.185 0 0 0 4.614-1.416l-1.124-1.654Zm3.226 2.795-1.855-2.555-1.618 1.175 1.855 2.555 1.618-1.175Zm-6.715-1.725a6.185 6.185 0 0 1-3.391-1.005l-1.093 1.675a8.185 8.185 0 0 0 4.484 1.33v-2Zm-3.391-1.005a6.213 6.213 0 0 1-2.828-5.213h-2a8.212 8.212 0 0 0 3.735 6.889l1.093-1.676Zm-1.732 3.94 1.969-2.48-1.567-1.244-1.969 2.48 1.567 1.244Zm9.545-16.812a8.843 8.843 0 0 1 2.732 2.46l1.618-1.177a10.844 10.844 0 0 0-3.35-3.015l-1 1.732Zm-9.844-1.732a10.844 10.844 0 0 0-3.35 3.015l1.618 1.176a8.843 8.843 0 0 1 2.732-2.46l-1-1.731Zm4.422 6.11v4.593h2v-4.594h-2Zm1 5.593h2.625v-2h-2.625v2Z"/></svg>