<svg xmlns="http://www.w3.org/2000/svg" fill="none" viewBox="0 0 41 41"><circle cx="20.224" cy="20.791" r="20.06" fill="#fff"/><path fill="#878E9F" d="M13.122 18.16c0-.6.086-1.113.26-1.54.173-.427.413-.78.72-1.06a2.68 2.68 0 0 1 1.1-.6c.44-.133.913-.2 1.42-.2.506 0 .973.06 1.4.18.426.12.793.313 1.1.58.32.267.566.62.74 1.06.173.427.266.953.28 1.58-.014.627-.107 1.16-.28 1.6-.174.427-.42.773-.74 1.04a2.81 2.81 0 0 1-1.1.58c-.427.12-.894.18-1.4.18-.507 0-.98-.06-1.42-.18a2.808 2.808 0 0 1-1.1-.58 2.691 2.691 0 0 1-.72-1.04c-.174-.44-.26-.973-.26-1.6Zm2.32 0c0 1.147.393 1.72 1.18 1.72.413 0 .706-.12.88-.36.186-.253.286-.707.3-1.36-.014-.64-.114-1.087-.3-1.34-.174-.253-.467-.38-.88-.38-.414 0-.714.127-.9.38-.187.253-.28.7-.28 1.34Zm5.8 7.42c0-.6.086-1.113.26-1.54.173-.427.413-.78.72-1.06a2.68 2.68 0 0 1 1.1-.6c.44-.133.913-.2 1.42-.2.506 0 .973.06 1.4.18.426.12.793.313 1.1.58.32.267.566.62.74 1.06.173.427.266.953.28 1.58-.014.627-.107 1.16-.28 1.6-.174.427-.42.773-.74 1.04a2.81 2.81 0 0 1-1.1.58c-.427.12-.894.18-1.4.18-.507 0-.98-.06-1.42-.18a2.808 2.808 0 0 1-1.1-.58 2.691 2.691 0 0 1-.72-1.04c-.174-.44-.26-.973-.26-1.6Zm2.32 0c0 1.147.393 1.72 1.18 1.72.413 0 .706-.12.88-.36.186-.253.286-.707.3-1.36-.014-.64-.114-1.087-.3-1.34-.174-.253-.467-.38-.88-.38-.414 0-.714.127-.9.38-.187.253-.28.7-.28 1.34Zm2.08-10.86 1.46 1.32-11.52 13.24-1.46-1.38 11.52-13.18Z"/></svg>