<svg viewBox="0 0 30 30" fill="none" xmlns="http://www.w3.org/2000/svg">
<path d="M25 13.8C22.8 13.8 21.6 16.5 23.1 18.1H20.7V19.8H23.2V21.3L22.6 21.8C17.5 26.1 12.3 26.1 6.5 21.8L6 21.3V19.8H8.6V18.1H6.2C7.7 16.5 6.5 13.8 4.3 13.8C2.1 13.8 0.900002 16.5 2.4 18.1H0V19.8H2.6V29.3H6V23.5C11.8 27.6 17.6 28 23.2 23.6V29.3H26.6V19.8H29.2V18.1H26.8C28.4 16.5 27.2 13.8 25 13.8Z" fill="#553E96"/>
<path d="M10.8 6.5C10.7 6.5 10.7 6.5 10.8 6.5C10.7 6.5 10.7 6.5 10.8 6.5C10.7 6.5 10.7 6.5 10.8 6.5C10.7 6.6 10.2 7.1 6 12.1H15.6L15.3 11.8L10.8 6.5Z" fill="#553E96"/>
<path d="M4.70312 10.9C10.6031 4 10.7031 3.9 10.7031 3.9L15.5031 9.5L19.3031 5.7C19.3031 5.7 19.5031 5.9 24.5031 10.9V0H4.70312V10.9Z" fill="#553E96"/>
<path d="M19.4031 8.1001L16.7031 10.8001L18.0031 12.1001H23.3031C19.9031 8.7001 19.4031 8.2001 19.4031 8.1001Z" fill="#553E96"/>
</svg>
