<svg viewBox="0 0 47 42" fill="none" xmlns="http://www.w3.org/2000/svg">
<path d="M16.5969 25.4999C16.4969 23.1999 14.5969 21.3999 12.1969 21.3999C9.79687 21.3999 7.99688 23.1999 7.79688 25.4999H16.5969Z" fill="#553E96"/>
<path d="M8.8 23L1 20.5" stroke="#553E96" stroke-width="2" stroke-miterlimit="10" stroke-linecap="round" stroke-linejoin="round"/>
<path d="M26.2969 26.1001L35.3969 28.8001V20.1001C35.3969 19.6001 34.9969 19.1001 34.3969 19.1001H20.7969C20.2969 19.1001 19.7969 19.5001 19.7969 20.1001V26.1001H26.2969Z" fill="#553E96"/>
<path d="M27.7031 13.8V11.7C27.7031 11.2 28.1031 10.7 28.7031 10.7H30.4031C30.9031 10.7 31.4031 11.1 31.4031 11.7V13.8" fill="#553E96"/>
<path d="M29.5 1V10.7" stroke="#553E96" stroke-width="2" stroke-miterlimit="10" stroke-linecap="round" stroke-linejoin="round"/>
<path d="M27.2969 3H31.2969" stroke="#553E96" stroke-width="2" stroke-miterlimit="10" stroke-linecap="round" stroke-linejoin="round"/>
<path d="M27.2969 6.69995H31.2969" stroke="#553E96" stroke-width="2" stroke-miterlimit="10" stroke-linecap="round" stroke-linejoin="round"/>
<path d="M24.5 7V16.4" stroke="#553E96" stroke-width="2" stroke-miterlimit="10" stroke-linecap="round" stroke-linejoin="round"/>
<path d="M22.6016 9H26.0016" stroke="#553E96" stroke-width="2" stroke-miterlimit="10" stroke-linecap="round" stroke-linejoin="round"/>
<path d="M32.3031 17.5V14.8C32.3031 14.3 31.8031 13.8 31.3031 13.8H24.2031C23.6031 13.8 23.2031 14.2 23.2031 14.8V17.5H32.3031Z" fill="#553E96"/>
<path d="M29.8 34.7H30.4H31.1H45.4C45.9 33.8 46.3 32.8 46.7 31.8H40.2L26.4 27.7H1L4.4 41.3C4.5 41.3 4.6 41.3 4.8 41.3C5.4 41.3 5.7 41.1 6.3 40.6C7 40 8 39.1 9.9 39.1C11.8 39.1 12.8 40 13.5 40.6C14.1 41.1 14.3 41.3 15 41.3C15.7 41.3 15.9 41.1 16.5 40.6C17.2 40 18.2 39.1 20.1 39.1C22 39.1 23 40 23.7 40.6C24.3 41.1 24.5 41.3 25.2 41.3C25.9 41.3 26.1 41.1 26.7 40.6C27.4 40 28.4 39.1 30.3 39.1C32.2 39.1 33.3 39.9 33.9 40.6C34.3 41.1 35.2 42 36.6 41.9H40.7C42.2 40.4 43.5 38.7 44.6 36.8H30.5H29.9C29.4 36.8 28.9 36.4 28.9 35.8C28.9 35.2 29.3 34.7 29.8 34.7ZM9.7 35.1C8.6 35.1 7.8 34.2 7.8 33.2C7.8 32.1 8.7 31.3 9.7 31.3C10.8 31.3 11.6 32.2 11.6 33.2C11.6 34.3 10.8 35.1 9.7 35.1ZM16.6 35.1C15.5 35.1 14.7 34.2 14.7 33.2C14.7 32.1 15.6 31.3 16.6 31.3C17.7 31.3 18.5 32.2 18.5 33.2C18.5 34.3 17.7 35.1 16.6 35.1ZM23.6 35.1C22.5 35.1 21.7 34.2 21.7 33.2C21.7 32.1 22.6 31.3 23.6 31.3C24.7 31.3 25.5 32.2 25.5 33.2C25.5 34.3 24.6 35.1 23.6 35.1Z" fill="#553E96"/>
</svg>
