<svg viewBox="0 0 30 34" fill="none" xmlns="http://www.w3.org/2000/svg">
<path d="M22.4184 10.2477C22.0959 10.0427 16.1826 7.07088 15.9676 6.9684C15.9676 6.9684 16.0751 6.86593 16.0751 6.5585V4.09906H17.1503C17.6878 4.09906 18.2254 3.68915 18.2254 3.17677C18.2254 2.56191 17.7953 2.15201 17.1503 2.15201H16.0751V1.02477C16.0751 0.512383 15.6451 0 15.1075 0C14.4624 0 14.0324 0.409906 14.0324 1.02477V2.04953H12.9573C12.4197 2.04953 11.8821 2.45944 11.8821 2.97182C11.8821 3.58668 12.3122 3.99658 12.9573 3.99658H14.0324V6.5585C14.0324 6.76345 14.1399 6.9684 14.1399 6.9684C13.6023 7.17336 8.01165 10.0427 7.5816 10.2477C7.04403 10.5551 6.829 11.1699 7.15154 11.5798C7.47408 12.0922 8.11916 12.2972 8.54921 11.9898L9.08678 11.6823V14.6541C9.08678 14.8591 9.30181 15.064 9.62434 14.9616C11.8821 13.8343 10.9145 14.2442 14.4624 12.5021C14.785 12.2972 15.1075 12.2972 15.4301 12.5021C19.0855 14.3467 18.2254 13.9368 20.2681 14.9616C20.4832 15.064 20.8057 14.9616 20.8057 14.6541V11.6823C21.3433 11.9898 21.5583 12.0922 21.8808 12.0922C22.3109 12.0922 22.6334 11.8873 22.8485 11.5798C23.171 11.1699 22.956 10.5551 22.4184 10.2477Z" fill="#553E96"/>
<path d="M29.4234 22.4624L26.1893 20.7688L15.5168 15.1588C15.1934 14.9471 14.87 14.9471 14.5466 15.1588L3.87403 20.7688L0.63993 22.4624C-0.00689042 22.7799 -0.114694 23.415 0.100913 23.9443C0.424323 24.4735 1.07114 24.6852 1.61016 24.3677L3.22721 23.5209V31.883H1.61016C1.07114 31.883 0.532126 32.3064 0.532126 32.9415C0.532126 33.4708 0.963339 34 1.61016 34H4.30524H25.7581H28.4532C28.9922 34 29.5312 33.5766 29.5312 32.9415C29.5312 32.4123 29.1 31.883 28.4532 31.883H26.8361V23.5209L28.4532 24.3677C28.561 24.4735 28.7766 24.4735 28.9922 24.4735C29.4234 24.4735 29.7468 24.2618 29.9624 23.9443C30.0702 23.415 29.9624 22.7799 29.4234 22.4624Z" fill="#553E96"/>
</svg>
