<svg viewBox="0 0 28 28" fill="none" xmlns="http://www.w3.org/2000/svg">
<path d="M15.8723 12.5L3.37229 0H2.37229L2.17229 0.5C1.67229 1.8 1.37229 3.2 1.47229 4.5C1.57229 5.9 2.17229 7.2 3.07229 8.1L12.8723 17.9L14.1723 16.6L23.1723 26.7C24.0723 27.6 25.5723 27.7 26.5723 26.7C27.4723 25.8 27.4723 24.2 26.5723 23.3L15.8723 12.5Z" fill="#8E99AF"/>
<path d="M0.675 23.2C-0.225 24.1 -0.225 25.7 0.675 26.6C1.575 27.5 3.075 27.6 4.075 26.6L11.775 18.9L8.375 15.5L0.675 23.2Z" fill="#8E99AF"/>
<path d="M21.7781 8.9L20.6781 7.8L24.9781 3.5L23.8781 2.4L19.5781 6.7L18.4781 5.6L22.7781 1.3L21.6781 0L15.9781 5.7C15.2781 6.4 14.8781 7.3 14.7781 8.3C14.7781 8.5 14.6781 8.8 14.5781 9L18.2781 12.7C18.4781 12.6 18.7781 12.6 18.9781 12.5C19.9781 12.4 20.8781 12 21.5781 11.3L27.2781 5.6L26.1781 4.5L21.7781 8.9Z" fill="#8E99AF"/>
</svg>
