<svg viewBox="0 0 42 40" fill="none" xmlns="http://www.w3.org/2000/svg">
<path d="M14.4453 34.2858C15.1726 34.2858 15.796 34.2858 16.6271 34.2858C16.6271 34.078 16.6271 33.8702 16.6271 33.6624C16.6271 32.3118 17.5622 31.3767 18.9128 31.3767C20.2635 31.3767 21.718 31.3767 23.0686 31.3767C24.4193 31.3767 25.3543 32.3118 25.3543 33.6624C25.3543 33.8702 25.3543 34.078 25.3543 34.2858C26.0816 34.2858 26.8089 34.2858 27.5362 34.2858C27.5362 36.2598 27.5362 38.1299 27.5362 40C26.6011 40 25.666 40 24.731 40C24.731 39.8961 24.731 39.7923 24.731 39.6884C24.731 38.6494 24.731 37.6104 24.731 36.5715C24.731 35.2208 23.8998 34.2858 22.5492 34.2858C21.5102 34.1819 20.4713 34.2858 19.4323 34.2858C18.3933 34.3897 17.5622 35.3247 17.5622 36.3637C17.5622 37.5065 17.5622 38.6494 17.5622 39.7922C17.5622 39.8961 17.5622 39.8961 17.5622 40C17.0427 40 16.6271 40 16.1076 40C15.6921 40 15.1726 40 14.6531 40C14.4453 38.1299 14.4453 36.1559 14.4453 34.2858Z" fill="#553E96"/>
<path d="M28.7812 27.0127C33.1449 27.0127 37.4046 27.0127 41.6643 27.0127C41.6643 29.4023 41.6643 31.7919 41.6643 34.1815C37.4046 34.1815 33.041 34.1815 28.7812 34.1815C28.7812 31.8958 28.7812 29.5062 28.7812 27.0127Z" fill="#553E96"/>
<path d="M12.8831 27.1167C12.8831 29.5063 12.8831 31.8959 12.8831 34.2855C8.62333 34.2855 4.25972 34.2855 0 34.2855C0 31.8959 0 29.5063 0 27.1167C4.25972 27.1167 8.62333 27.1167 12.8831 27.1167Z" fill="#553E96"/>
<path d="M14.4453 27.1167C18.705 27.1167 23.0686 27.1167 27.3284 27.1167C27.3284 28.9868 27.3284 30.9608 27.3284 32.831C27.1206 32.831 26.8089 32.831 26.6011 32.831C26.6011 32.7271 26.4972 32.6232 26.4972 32.4154C25.9777 30.9608 24.731 29.9219 23.1725 29.9219C21.718 29.9219 20.1596 29.9219 18.705 29.9219C17.1466 29.9219 15.796 30.9608 15.3804 32.4154C15.2765 32.7271 15.1726 32.831 14.8609 32.7271C14.757 32.7271 14.6531 32.7271 14.4453 32.7271C14.4453 30.8569 14.4453 28.9868 14.4453 27.1167Z" fill="#553E96"/>
<path d="M25.1468 16.9349C22.2377 16.9349 19.4325 16.9349 16.5234 16.9349C16.6273 16.2077 16.7312 15.4804 16.939 14.7531C17.5624 12.6752 18.7052 11.1168 20.5754 9.97392C20.7832 9.87002 20.8871 9.87002 21.0948 9.97392C23.2766 11.3246 24.5234 13.4025 25.0429 15.896C25.1468 16.2077 25.1468 16.6232 25.1468 16.9349Z" fill="#553E96"/>
<path d="M32.318 19.8442C24.7336 19.8442 17.0453 19.8442 9.46094 19.8442C9.56483 19.4286 9.66873 19.013 9.77262 18.4935L9.87652 18.3896C9.98041 18.3896 10.0843 18.3896 10.1882 18.3896C17.357 18.3896 24.5258 18.3896 31.6946 18.3896C32.0063 18.3896 32.1102 18.4935 32.2141 18.8052C32.1102 19.1169 32.2141 19.4286 32.318 19.8442Z" fill="#553E96"/>
<path d="M30.2358 39.9997C29.7163 39.9997 29.3007 39.9997 28.7812 39.9997C28.7812 38.5452 28.7812 37.1945 28.7812 35.74C33.041 35.74 37.4046 35.74 41.6643 35.74C41.6643 37.1945 41.6643 38.5452 41.6643 39.9997C41.2487 39.9997 40.7292 39.9997 40.2098 39.9997C40.2098 39.0646 40.2098 38.1296 40.2098 37.1945C38.7552 37.1945 37.3007 37.1945 35.8461 37.1945C35.8461 38.1296 35.8461 39.0646 35.8461 39.9997C35.3267 39.9997 34.9111 39.9997 34.3916 39.9997C34.3916 39.0646 34.3916 38.1296 34.3916 37.1945C32.9371 37.1945 31.4825 37.1945 30.028 37.1945C30.2358 38.1296 30.2358 39.0646 30.2358 39.9997Z" fill="#553E96"/>
<path d="M0 39.9997C0 38.5452 0 37.1945 0 35.74C4.36361 35.74 8.62333 35.74 12.8831 35.74C12.8831 37.1945 12.8831 38.5452 12.8831 39.9997C12.4675 39.9997 11.948 39.9997 11.4285 39.9997C11.4285 39.0646 11.4285 38.1296 11.4285 37.1945C9.97398 37.1945 8.51944 37.1945 7.1688 37.1945C7.1688 38.1296 7.1688 39.0646 7.1688 39.9997C6.64932 39.9997 6.23374 39.9997 5.71426 39.9997C5.71426 39.0646 5.71426 38.1296 5.71426 37.1945C4.25972 37.1945 2.80518 37.1945 1.45454 37.1945C1.45454 38.1296 1.45454 39.0646 1.45454 39.9997C0.93506 39.9997 0.519478 39.9997 0 39.9997Z" fill="#553E96"/>
<path d="M18.0758 10.0781C16.1017 11.9482 15.2706 14.3378 15.0628 16.9352C13.4004 16.9352 11.842 16.9352 10.1797 16.9352C10.6992 15.6885 11.4264 14.5456 12.2576 13.6106C13.816 11.8444 16.1017 10.5976 18.0758 10.0781Z" fill="#553E96"/>
<path d="M23.6875 10.1816C27.4277 11.2206 30.0251 13.4024 31.5836 16.9349C29.9212 16.9349 28.2589 16.9349 26.5966 16.9349C26.3888 14.3375 25.5576 12.0518 23.6875 10.1816Z" fill="#553E96"/>
<path d="M22.9628 39.9996C21.5083 39.9996 20.1577 39.9996 18.7031 39.9996C18.7031 39.7918 18.7031 39.584 18.7031 39.2723C18.7031 38.3373 18.7031 37.4022 18.7031 36.4672C18.7031 35.9477 18.9109 35.636 19.5343 35.636C20.4693 35.636 21.4044 35.636 22.3395 35.636C22.8589 35.636 23.0667 35.9477 23.0667 36.3633C23.0667 37.5061 23.0667 38.649 23.0667 39.7918C23.0667 39.8957 23.0667 39.8957 22.9628 39.9996Z" fill="#553E96"/>
<path d="M20.1553 0C20.6748 0 21.0904 0 21.6099 0C21.6099 0.727269 21.6099 2.80518 21.6099 3.32466C21.9216 3.22076 22.0254 3.42855 22.2332 3.63634C22.441 3.94803 22.7527 4.36361 23.0644 4.7792C21.6099 4.7792 20.2592 4.7792 18.8047 4.7792C18.9086 4.5714 19.1164 4.36361 19.2203 4.15582C19.3242 3.94803 19.4281 3.84414 19.6359 3.63634C19.7397 3.42855 19.9475 3.22076 20.2592 3.32466C20.1553 2.80518 20.1553 0.727269 20.1553 0Z" fill="#553E96"/>
<path d="M23.6908 6.12964C23.6908 6.9608 23.6908 7.79197 23.6908 8.62313C21.8207 8.20755 19.8467 8.20755 17.9766 8.62313C17.9766 7.79197 17.9766 6.9608 17.9766 6.12964C19.9506 6.12964 21.8207 6.12964 23.6908 6.12964Z" fill="#553E96"/>
<path d="M26.5938 25.5583C26.5938 24.1038 26.5938 22.7531 26.5938 21.2986C27.5288 21.2986 28.4639 21.2986 29.3989 21.2986C29.3989 22.7531 29.3989 24.1038 29.3989 25.5583C28.5678 25.5583 27.6327 25.5583 26.5938 25.5583Z" fill="#553E96"/>
<path d="M22.3364 21.2986C22.3364 22.7531 22.3364 24.1038 22.3364 25.5583C21.4014 25.5583 20.4663 25.5583 19.5312 25.5583C19.5312 24.1038 19.5312 22.7531 19.5312 21.2986C20.3624 21.2986 21.2975 21.2986 22.3364 21.2986Z" fill="#553E96"/>
<path d="M15.063 25.5583C14.1279 25.5583 13.1929 25.5583 12.2578 25.5583C12.2578 24.1038 12.2578 22.7531 12.2578 21.2986C13.1929 21.2986 14.1279 21.2986 15.063 21.2986C15.063 22.7531 15.063 24.1038 15.063 25.5583Z" fill="#553E96"/>
<path d="M16.5234 21.2986C17.0429 21.2986 17.4585 21.2986 17.978 21.2986C17.978 22.7531 17.978 24.1038 17.978 25.5583C17.5624 25.5583 17.0429 25.5583 16.5234 25.5583C16.5234 24.2077 16.5234 22.7531 16.5234 21.2986Z" fill="#553E96"/>
<path d="M10.8061 21.2986C10.8061 22.7531 10.8061 24.1038 10.8061 25.5583C10.2866 25.5583 9.87104 25.5583 9.35156 25.5583C9.35156 24.1038 9.35156 22.7531 9.35156 21.2986C9.87104 21.2986 10.2866 21.2986 10.8061 21.2986Z" fill="#553E96"/>
<path d="M32.4131 25.5583C31.8937 25.5583 31.4781 25.5583 31.0625 25.5583C31.0625 24.1038 31.0625 22.7531 31.0625 21.2986C31.4781 21.2986 31.9976 21.2986 32.4131 21.2986C32.4131 22.7531 32.4131 24.1038 32.4131 25.5583Z" fill="#553E96"/>
<path d="M25.1475 25.5583C24.628 25.5583 24.2125 25.5583 23.7969 25.5583C23.7969 24.1038 23.7969 22.7531 23.7969 21.2986C24.2125 21.2986 24.7319 21.2986 25.1475 21.2986C25.1475 22.7531 25.1475 24.1038 25.1475 25.5583Z" fill="#553E96"/>
<path d="M8.625 29.9216C9.04058 29.9216 9.56006 29.9216 9.97564 29.9216C9.97564 30.3372 9.97564 30.8567 9.97564 31.2723C9.56006 31.2723 9.04058 31.2723 8.625 31.2723C8.625 30.8567 8.625 30.4411 8.625 29.9216Z" fill="#553E96"/>
</svg>
