<svg viewBox="0 0 42 37" fill="none" xmlns="http://www.w3.org/2000/svg">
<path d="M26.9488 13.6675C26.9488 9.86012 23.8248 6.73608 20.0174 6.73608C16.21 6.73608 13.0859 9.86012 13.0859 13.6675H26.9488Z" fill="#553E96"/>
<path d="M22.5492 2.7334H17.5703V5.56456H22.5492V2.7334Z" fill="#553E96"/>
<path d="M21.0893 0H19.2344V4.19792H21.0893V0Z" fill="#553E96"/>
<path d="M41.1045 20.0134H33.8802L26.9487 21.2826H13.1835L6.54488 20.0134H0.101562V23.2351H6.54488L13.1835 24.5042H26.9487L33.8802 23.2351H41.1045V20.0134Z" fill="#553E96"/>
<path d="M5.26817 24.5042H0.875V33.5834H5.26817V24.5042Z" fill="#553E96"/>
<path d="M6.92969 24.8945L8.88221 25.1874V33.5833H6.92969V24.8945Z" fill="#553E96"/>
<path d="M10.6406 25.3828L12.3979 25.6757V33.5834H10.6406V25.3828Z" fill="#553E96"/>
<path d="M15.8159 25.676H14.1562V33.5837H15.8159V25.676Z" fill="#553E96"/>
<path d="M19.4253 25.676H17.7656V33.5837H19.4253V25.676Z" fill="#553E96"/>
<path d="M22.9409 25.676H21.2812V33.5837H22.9409V25.676Z" fill="#553E96"/>
<path d="M35.3256 33.6709L39.7188 33.6709L39.7188 24.5917L35.3256 24.5917L35.3256 33.6709Z" fill="#553E96"/>
<path d="M33.6791 24.8945L31.7266 25.1874V33.5833H33.6791V24.8945Z" fill="#553E96"/>
<path d="M30.0658 25.3828L28.2109 25.6757V33.5834H30.0658V25.3828Z" fill="#553E96"/>
<path d="M26.4565 25.676H24.7969V33.5837H26.4565V25.676Z" fill="#553E96"/>
<path d="M41.1006 34.8523H0V37.0001H41.1006V34.8523Z" fill="#553E96"/>
<path d="M13.1797 15.1321V20.0134H15.3275V16.6941H17.1824V20.0134H19.1349V16.6941H20.9898V20.0134H22.9423V16.6941H24.7972V20.0134H26.945V15.1321H13.1797Z" fill="#553E96"/>
</svg>
