<svg viewBox="0 0 28 44" fill="none" xmlns="http://www.w3.org/2000/svg">
<path d="M14.1082 4.60291C15.402 4.60291 16.4508 3.57251 16.4508 2.30145C16.4508 1.0304 15.402 0 14.1082 0C12.8144 0 11.7656 1.0304 11.7656 2.30145C11.7656 3.57251 12.8144 4.60291 14.1082 4.60291Z" fill="#553E96"/>
<path d="M15.2723 5.12036H12.9297V8.8381H15.2723V5.12036Z" fill="#553E96"/>
<path d="M13.1944 9.45093H15.0241C17.1865 9.45093 18.9469 11.1804 18.9469 13.3048V16.6277H9.25781V13.3048C9.25781 11.1804 11.0182 9.45093 13.1806 9.45093H13.1944Z" fill="#553E96"/>
<path d="M19.3207 17.5811H9.00781V18.7386H19.3207V17.5811Z" fill="#553E96"/>
<path d="M18.6562 25.9834V18.9292H17.2424V25.9834H18.6562Z" fill="#553E96"/>
<path d="M10.9766 25.9697V18.9155H9.5627V25.9697H10.9766Z" fill="#553E96"/>
<path d="M11.9922 18.9155V25.9697H16.6912V18.9155H11.9922ZM15.5546 21.2987V24.567H13.1011V21.2442V21.1353H13.1288C13.1843 20.5225 13.6971 20.0322 14.3348 20.0322C14.9724 20.0322 15.4853 20.5225 15.5407 21.1353V21.1761C15.5407 21.1761 15.5407 21.217 15.5407 21.2442C15.5407 21.2715 15.5407 21.2851 15.5407 21.3123L15.5546 21.2987Z" fill="#553E96"/>
<path d="M14.3594 19.8823V25.6836" stroke="#553E96" stroke-width="0.25" stroke-miterlimit="10"/>
<path d="M14.25 31.7981V40.9903" stroke="#553E96" stroke-width="0.25" stroke-miterlimit="10"/>
<path d="M12.8047 21.0264H16.1176" stroke="#553E96" stroke-width="0.25" stroke-miterlimit="10"/>
<path d="M11.9766 34.3311H16.1211" stroke="#553E96" stroke-width="0.25" stroke-miterlimit="10"/>
<path d="M11.9766 37.5042H16.1211" stroke="#553E96" stroke-width="0.25" stroke-miterlimit="10"/>
<path d="M12.8047 23.3958H16.1176" stroke="#553E96" stroke-width="0.25" stroke-miterlimit="10"/>
<path d="M28 42.6111H0V44.0001H28V42.6111Z" fill="#553E96"/>
<path d="M22.6387 26.7732H5.49219V29.7556H9.56743V28.2712H10.9813V29.7556H17.2466V28.2712H18.6605V29.7556H22.6387V26.7732Z" fill="#553E96"/>
<path d="M9.58075 30.8042H6.53125V43.006H9.58075V30.8042Z" fill="#553E96"/>
<path d="M22.08 30.8042H18.6562V43.006H22.08V30.8042Z" fill="#553E96"/>
<path d="M10.9844 30.8042V43.006H17.2636V30.8042H10.9844ZM16.1408 34.8079V40.0236H12.2319V34.7126V34.5492H12.2596C12.3567 33.5687 13.1606 32.7924 14.1864 32.7924C15.2121 32.7924 16.0299 33.5687 16.1131 34.5492V34.6173C16.1131 34.6173 16.1408 34.6853 16.1408 34.7262C16.1408 34.7671 16.1269 34.7943 16.1131 34.8351L16.1408 34.8079Z" fill="#553E96"/>
</svg>
