<svg viewBox="0 0 26 25" fill="none" xmlns="http://www.w3.org/2000/svg">
<path d="M25 0.6C25 0.5 25 0.399999 24.9 0.299999C24.9 0.199999 24.8 0.1 24.7 0.1C24.7 0.1 24.7 0.1 24.6 0H24.5C24.4 0 24.3 0 24.2 0C24.2 0 24.2 0 24.1 0C24 0 23.9 3.7998e-07 23.9 0.1L23.6 0C18.9 2.1 13.9 3.2 8.7 3.2H7.5C7 3.2 6.7 3.6 6.7 4V9V17.4C6 16.9 5.1 16.5 4.2 16.5C1.9 16.5 0 18.4 0 20.7C0 23 1.9 24.9 4.2 24.9C6.5 24.9 8.4 23 8.4 20.7V9.8H8.8C13.9 9.8 18.8 8.8 23.4 6.9V14C22.7 13.5 21.8 13.1 20.9 13.1C18.6 13.1 16.7 15 16.7 17.3C16.7 19.6 18.6 21.5 20.9 21.5C23.2 21.5 25.1 19.6 25.1 17.3V5.6L25 0.6Z" fill="#553E96"/>
</svg>
