<svg viewBox="0 0 25 43" fill="none" xmlns="http://www.w3.org/2000/svg">
<path d="M18.3031 39V38.2C18.3031 37.1 17.4031 36.2 16.3031 36.2H7.40312C6.30312 36.2 5.40312 37.1 5.40312 38.2V39C4.20312 39.2 3.20312 40.2 3.20312 41.3V42.6H20.4031V41.4C20.5031 40.2 19.6031 39.2 18.3031 39Z" fill="#553E96"/>
<path d="M18.7984 4.7L19.2984 2.9L21.0984 2.3L19.2984 1.8L18.7984 0L18.1984 1.8L16.3984 2.3L18.1984 2.9L18.7984 4.7Z" fill="#553E96"/>
<path d="M4.3 29.1999L4.8 27.3999L6.6 26.8999L4.8 26.2999L4.3 24.5999L3.7 26.2999L2 26.8999L3.7 27.3999L4.3 29.1999Z" fill="#553E96"/>
<path d="M22.9016 9.49985L22.4016 8.09985L22.0016 9.49985L20.6016 9.89985L22.0016 10.2999L22.4016 11.6999L22.9016 10.2999L24.2016 9.89985L22.9016 9.49985Z" fill="#553E96"/>
<path d="M3.6 15.8999L2.2 15.4999L1.8 14.0999L1.4 15.4999L0 15.8999L1.4 16.3999L1.8 17.6999L2.2 16.3999L3.6 15.8999Z" fill="#553E96"/>
<path d="M14.3984 9.3999H9.39844V36.5999H14.3984V9.3999Z" fill="#553E96"/>
<path d="M14.6986 6.7998C14.5986 6.6998 12.3986 5.59981 12.2986 5.49981V5.39981V4.39981H12.6986C12.8986 4.39981 13.0986 4.19981 13.0986 3.99981C13.0986 3.79981 12.8986 3.5998 12.6986 3.5998H12.2986V3.19981C12.2986 2.99981 12.0986 2.7998 11.8986 2.7998C11.6986 2.7998 11.4986 2.99981 11.4986 3.19981V3.5998H11.0986C10.8986 3.5998 10.6986 3.79981 10.6986 3.99981C10.6986 4.19981 10.8986 4.39981 11.0986 4.39981H11.4986V5.39981C11.4986 5.4998 11.4986 5.49981 11.4986 5.49981C11.2986 5.59981 9.29861 6.6998 9.09861 6.7998C8.89861 6.8998 8.79861 7.0998 8.89861 7.2998C8.99861 7.4998 9.19861 7.59981 9.39861 7.49981L9.59861 7.39981V8.59981C9.59861 8.69981 9.69861 8.7998 9.79861 8.6998C10.5986 8.2998 10.2986 8.3998 11.5986 7.6998C11.6986 7.5998 11.8986 7.5998 11.9986 7.6998C13.3986 8.3998 12.9986 8.2998 13.7986 8.6998C13.8986 8.6998 13.9986 8.69981 13.9986 8.59981V7.39981C14.1986 7.4998 14.2986 7.59981 14.3986 7.59981C14.4986 7.59981 14.6986 7.4998 14.7986 7.39981C14.8986 7.0998 14.8986 6.8998 14.6986 6.7998Z" fill="#553E96"/>
<path d="M11.8984 10.7C13.2791 10.7 14.3984 9.58066 14.3984 8.19995C14.3984 6.81924 13.2791 5.69995 11.8984 5.69995C10.5177 5.69995 9.39844 6.81924 9.39844 8.19995C9.39844 9.58066 10.5177 10.7 11.8984 10.7Z" fill="#553E96"/>
</svg>
