<svg viewBox="0 0 29 38" fill="none" xmlns="http://www.w3.org/2000/svg">
<path d="M16.8766 23.8C17.5766 22.9 18.6766 22.1 19.7766 21.4C20.3766 21 20.8766 20.7 21.3766 20.3C22.4766 20.6 23.7766 20.6 25.0766 20.1C27.1766 19.2 28.7766 17.3 28.9766 15C29.0766 13.6 28.7766 12.3 28.0766 11.3C28.7766 10.2 29.1766 8.8 28.8766 7.3C28.4766 4.9 26.6766 2.9 24.2766 2.4C23.2766 2.2 22.2766 2.2 21.3766 2.5C19.6766 1 17.4766 0 15.0766 0C12.4766 0 10.1766 1.1 8.47664 2.8C7.27664 2.5 5.97664 2.4 4.57664 2.9C2.17664 3.7 0.476641 5.8 0.0766407 8.3C-0.323359 10.9 0.87664 13.3 2.87664 14.7C2.37664 15.7 2.27664 16.9 2.67664 18.1C3.17664 19.5 4.37664 20.6 5.77664 21C7.07664 21.4 8.37664 21.1 9.27664 20.4C9.77664 20.7 10.1766 20.9 10.6766 21.1C11.9766 21.7 12.8766 22.2 13.2766 22.9C13.0766 27.6 12.6766 33 11.7766 36C11.5766 36.6 12.0766 37.3 12.6766 37.3H14.8766H17.0766C17.7766 37.3 18.1766 36.7 17.9766 36C17.4766 33.1 17.0766 28.3 16.8766 23.8ZM13.3766 20.6C12.7766 20.2 12.0766 19.8 11.3766 19.5C11.0766 19.3 10.7766 19.2 10.4766 19.1C10.8766 18.6 11.0766 18.1 11.1766 17.5C11.8766 17.8 12.5766 18.1 13.3766 18.2C13.4766 18.9 13.4766 19.7 13.3766 20.6ZM16.6766 18.1C17.0766 18 17.4766 17.9 17.8766 17.8C18.3766 18.4 18.9766 19 19.5766 19.4C19.3766 19.6 19.0766 19.8 18.7766 20C18.0766 20.5 17.3766 20.9 16.7766 21.5C16.6766 20.3 16.6766 19.2 16.6766 18.1Z" fill="#00A3AD"/>
</svg>
