<svg viewBox="0 0 24 38" fill="none" xmlns="http://www.w3.org/2000/svg">
<path d="M20.9859 5.09961C20.2859 4.89961 19.6859 4.69961 18.9859 4.49961V2.39961C18.9859 1.89961 18.5859 1.39961 18.0859 1.29961C14.2859 0.699609 10.3859 0.699609 6.68594 1.29961C6.18594 1.39961 5.78594 1.79961 5.78594 2.39961V4.49961C5.18594 4.69961 4.48594 4.89961 3.78594 5.09961C1.88594 5.69961 0.585938 7.49961 0.585938 9.79961V26.7996C0.585938 26.5996 0.585938 26.6996 0.585938 26.7996C0.785938 28.7996 2.28594 30.3996 4.28594 30.7996L1.58594 35.1996C1.18594 35.9996 1.38594 36.9996 2.18594 37.3996C2.98594 37.7996 3.98594 37.5996 4.38594 36.7996C4.38594 36.7996 4.38594 36.7996 4.38594 36.6996L5.28594 35.3996H19.2859L20.1859 36.6996C20.5859 37.4996 21.5859 37.7996 22.3859 37.2996C23.1859 36.8996 23.4859 35.8996 23.0859 35.0996L20.3859 30.6996C22.3859 30.2996 23.8859 28.6996 23.9859 26.6996C23.9859 26.4996 23.9859 26.5996 23.9859 26.6996V9.69961C24.1859 7.49961 22.8859 5.79961 20.9859 5.09961ZM9.18594 5.09961C9.18594 4.89961 9.38594 4.69961 9.58594 4.59961C11.4859 4.29961 13.3859 4.29961 15.1859 4.59961C15.3859 4.59961 15.5859 4.79961 15.5859 5.09961V6.99961C15.5859 7.29961 15.2859 7.49961 15.0859 7.49961H9.58594C9.28594 7.49961 9.08594 7.29961 9.08594 6.99961V5.09961H9.18594ZM4.68594 24.2996C4.68594 23.0996 5.68594 22.0996 6.88594 22.0996C8.08594 22.0996 9.08594 23.0996 9.08594 24.2996C9.08594 25.4996 8.08594 26.4996 6.88594 26.4996C5.68594 26.4996 4.68594 25.4996 4.68594 24.2996ZM6.78594 32.7996L7.98594 30.9996H16.9859L18.1859 32.7996H6.78594ZM17.9859 26.4996C16.7859 26.4996 15.7859 25.4996 15.7859 24.2996C15.7859 23.0996 16.7859 22.0996 17.9859 22.0996C19.1859 22.0996 20.1859 23.0996 20.1859 24.2996C20.2859 25.4996 19.2859 26.4996 17.9859 26.4996ZM20.3859 12.2996L19.0859 17.9996C18.9859 18.3996 18.5859 18.6996 18.1859 18.6996H6.78594C6.38594 18.6996 5.98594 18.3996 5.88594 17.9996L4.48594 12.1996C4.38594 11.6996 4.68594 11.2996 5.18594 11.1996C5.28594 11.1996 5.28594 11.1996 5.38594 11.1996H19.6859C20.1859 11.1996 20.5859 11.5996 20.5859 12.0996C20.4859 12.0996 20.4859 12.1996 20.3859 12.2996Z" fill="#1F4397"/>
</svg>
