<svg viewBox="0 0 31 31" fill="none" xmlns="http://www.w3.org/2000/svg">
<path d="M29.6031 15.3H26.7031V14.3C26.7031 11.7 24.6031 9.5 21.9031 9.5C19.3031 9.5 17.1031 11.6 17.1031 14.3V15.3H14.2031C13.7031 15.3 13.2031 15.7 13.2031 16.3V26.8C13.2031 28.9 14.9031 30.6 17.0031 30.6H26.6031C28.7031 30.6 30.4031 28.9 30.4031 26.8V16.3C30.6031 15.7 30.2031 15.3 29.6031 15.3ZM24.9031 15.3H19.2031V14.3C19.2031 12.7 20.5031 11.4 22.1031 11.4C23.7031 11.4 25.0031 12.7 25.0031 14.3V15.3H24.9031Z" fill="#00A5E1"/>
<path d="M18.2 7.7H15.3V5.7C15.3 2.5 12.7 0 9.6 0C6.4 0 3.8 2.6 3.8 5.7V7.6H1C0.5 7.6 0 8 0 8.6V26.8C0 28.9 1.7 30.6 3.8 30.6H13C12.1 29.6 11.5 28.2 11.5 26.8V16.3C11.5 14.7 12.8 13.4 14.4 13.4H15.4C15.7 11.2 17.2 9.3 19.1 8.4C19 8 18.6 7.7 18.2 7.7ZM13.4 7.7H5.7V5.7C5.7 3.6 7.4 1.9 9.5 1.9C11.6 1.9 13.3 3.6 13.3 5.7V7.7H13.4Z" fill="#00A5E1"/>
</svg>
