<svg viewBox="0 0 35 29" fill="none" xmlns="http://www.w3.org/2000/svg">
<path d="M34.0594 1.28415C32.6485 0.733799 29.9208 0 25.4059 0C20.9851 0 18.1634 0.733799 16.7525 1.28415C16.2822 1.37587 16 1.8345 16 2.29312V3.02692C17.0347 2.93519 17.599 3.02692 17.6931 3.02692C18.0693 3.11864 18.3515 3.30209 18.4455 3.57727L19.9505 6.60419C20.1386 6.60419 20.3267 6.69591 20.4208 6.87936C20.6089 7.06281 20.797 7.15454 21.0792 7.24626C21.5495 7.33799 22.0198 7.24626 22.396 6.87936C22.7723 6.51246 23.2426 6.42074 23.7129 6.69591C24.2772 7.06281 24.3713 7.79661 23.901 8.25523C23.2426 8.89731 22.396 9.26421 21.4554 9.26421C21.3614 9.26421 21.3614 9.26421 21.2673 9.26421L23.2426 13.3918C23.3366 13.5753 23.4307 13.7587 23.5248 13.9422C25.7822 13.2084 28.3218 13.7587 30.1089 15.5015C30.4851 15.8684 30.5792 16.5105 30.203 16.8774C30.0148 17.0608 29.7327 17.2443 29.4505 17.2443C29.1683 17.2443 28.8861 17.1525 28.698 16.9691C27.4752 15.7767 25.7822 15.4098 24.2772 15.8684C24.8416 18.1615 24.8416 20.4546 24.1832 22.656C24.4653 22.7478 24.7475 22.8395 25.0297 22.9312C25.4059 23.0229 25.6881 23.0229 26.0644 22.9312C31.2376 21.6471 35 17.1525 35 11.8325V2.29312C34.8119 1.8345 34.5297 1.37587 34.0594 1.28415ZM32.3663 8.43868C31.7079 9.08076 30.8614 9.44766 29.9208 9.44766C28.9802 9.44766 28.1337 9.08076 27.4752 8.43868C27.099 8.07178 27.099 7.42971 27.4752 6.97109C27.8515 6.60419 28.5099 6.60419 28.9802 6.97109C29.2624 7.24626 29.5446 7.33799 29.9208 7.33799C30.297 7.33799 30.6733 7.15454 30.8614 6.97109C31.2376 6.60419 31.896 6.60419 32.3663 6.97109C32.8366 7.33799 32.8366 7.98006 32.3663 8.43868Z" fill="#553E96"/>
<path d="M17.5993 5.65275C17.4067 5.27975 16.9252 5 16.54 5C14.9991 5.09325 12.1099 5.65275 7.87246 7.51777C3.73131 9.38278 1.51627 11.2478 0.360601 12.2736C-0.0246222 12.6466 -0.120928 13.1128 0.167989 13.5791L4.40545 22.3446C6.71679 27.1937 12.2062 29.8047 17.5993 28.7789C17.9846 28.6857 18.2735 28.5924 18.5624 28.3127C22.7999 24.9556 24.2444 19.1741 21.8368 14.3251L17.5993 5.65275ZM13.2656 13.8588C13.9397 12.0871 15.9621 11.1545 17.792 11.8073C18.3698 11.9938 18.6587 12.5533 18.4661 13.1128C18.2735 13.6723 17.6957 13.9521 17.1178 13.7656C16.3474 13.4858 15.5769 13.8588 15.288 14.6048C15.0954 15.0711 14.7102 15.2576 14.3249 15.2576C14.2286 15.2576 14.036 15.2576 13.9397 15.1643C13.3619 14.9778 13.073 14.4183 13.2656 13.8588ZM9.22074 17.3091C8.83552 17.2158 8.45029 17.2158 8.16137 17.4023C7.77615 17.5888 7.58354 17.8686 7.39093 18.1483C7.19832 18.6146 6.81309 18.8011 6.42787 18.8011C6.33156 18.8011 6.13895 18.8011 6.04265 18.7078C5.46481 18.5213 5.17589 17.9618 5.36851 17.4023C5.65742 16.5631 6.33156 15.8171 7.19832 15.4441C8.06507 15.0711 9.02813 14.9778 9.89488 15.3508C10.4727 15.5373 10.7616 16.0968 10.569 16.6563C10.3764 17.2158 9.70227 17.4956 9.22074 17.3091ZM19.0439 19.8269C18.0809 22.4379 15.4806 24.1164 12.7841 24.1164C12.0136 24.1164 11.2432 24.0231 10.4727 23.7434C9.89488 23.5569 9.60596 22.9974 9.79857 22.4379C9.99119 21.8784 10.569 21.5986 11.1469 21.7851C13.5545 22.6244 16.1548 21.4121 17.0215 19.1741C17.2141 18.6146 17.792 18.3348 18.3698 18.5213C18.9476 18.6146 19.2365 19.2674 19.0439 19.8269Z" fill="#553E96"/>
</svg>
