<svg viewBox="0 0 32 32" fill="none" xmlns="http://www.w3.org/2000/svg">
<circle cx="16" cy="16" r="16" fill="#F4F4F4"/>
<path d="M25 15.3378C25 14.5984 24.4395 14 23.7468 14H8.25316C7.56051 14 7 14.5984 7 15.3378C7 15.9459 7.38734 16.4568 7.91139 16.6173V17.5124C7.91139 19.7892 9.50177 21.6719 11.557 21.9784V22.6351C11.557 22.8346 11.7119 23 11.8987 23C12.0856 23 12.2405 22.8346 12.2405 22.6351V22.027H19.7595V22.6351C19.7595 22.8346 19.9144 23 20.1013 23C20.2881 23 20.443 22.8346 20.443 22.6351V21.9784C22.4982 21.6719 24.0886 19.7892 24.0886 17.5124V16.6173C24.6127 16.4568 25 15.9459 25 15.3378ZM19.8597 21.2973H12.1403C10.1853 21.2973 8.59494 19.5995 8.59494 17.5124V16.6757H23.4051V17.5124C23.4051 19.5995 21.8147 21.2973 19.8597 21.2973ZM23.7468 15.9459H8.25316C7.93873 15.9459 7.68354 15.6735 7.68354 15.3378C7.68354 15.0022 7.93873 14.7297 8.25316 14.7297H23.7468C24.0613 14.7297 24.3165 15.0022 24.3165 15.3378C24.3165 15.6735 24.0613 15.9459 23.7468 15.9459Z" fill="#1F4397"/>
<path d="M9.30738 14C9.47541 14 9.61475 13.8226 9.61475 13.6087V10.0243C9.61475 9.34087 10.0533 8.78261 10.5902 8.78261C11.127 8.78261 11.5656 9.34087 11.5656 10.0243V10.6087H11.0533C10.8852 10.6087 10.7459 10.7861 10.7459 11C10.7459 11.2139 10.8852 11.3913 11.0533 11.3913H12.6926C12.8607 11.3913 13 11.2139 13 11C13 10.7861 12.8607 10.6087 12.6926 10.6087H12.1803V10.0243C12.1803 8.90783 11.4672 8 10.5902 8C9.71311 8 9 8.90783 9 10.0243V13.6087C9 13.8226 9.13934 14 9.30738 14Z" fill="#1F4397"/>
</svg>
