<svg viewBox="0 0 32 32" fill="none" xmlns="http://www.w3.org/2000/svg">
<circle cx="16" cy="16" r="16" fill="#F4F4F4"/>
<path d="M9.41914 15.2893V21.7612C9.41914 22.4427 9.96058 22.9961 10.6274 22.9961C11.2942 22.9961 11.8357 22.4447 11.8357 21.7612V15.2893C12.6526 15.1417 13.2491 14.4194 13.2548 13.5728V9.30291C13.2529 9.13592 13.1199 9 12.9565 9C12.7932 9 12.6602 9.13592 12.6602 9.30291V13.0738H11.6932V9.30291C11.6913 9.13592 11.5583 9 11.3949 9C11.2315 9 11.0986 9.13592 11.0986 9.30291V13.0738H10.1544V9.30291C10.1544 9.13592 10.0214 9 9.85609 9C9.69081 9 9.55972 9.13592 9.55972 9.30291V13.0738H8.59273V9.30291C8.59273 9.13592 8.46165 9 8.29637 9C8.13109 9 8 9.13592 8 9.30291V13.5709C8.0057 14.4175 8.60223 15.1417 9.41914 15.2874V15.2893ZM12.6526 13.6718C12.5918 14.2563 12.1111 14.699 11.5355 14.699C11.3721 14.699 11.2391 14.835 11.2391 15.0019V21.7631C11.2391 22.1107 10.9637 22.3903 10.6255 22.3903C10.2873 22.3903 10.0119 22.1087 10.0119 21.7631V15.0117C10.0119 14.8447 9.87889 14.7087 9.71551 14.7087C9.14177 14.7087 8.65923 14.2641 8.59843 13.6816L12.6507 13.6718H12.6526ZM21.688 17.3553V21.8175C21.688 22.4699 22.2047 23 22.843 23C23.4814 23 24 22.4699 24 21.8175V9.30291C24 9.13592 23.867 9 23.7036 9C22.8506 9 22.0337 9.34951 21.4315 9.96505C20.8293 10.5806 20.4892 11.4155 20.4892 12.2874V15.8563C20.4892 16.5825 20.9907 17.2078 21.688 17.3553ZM21.0819 12.2893C21.0819 10.9262 22.0812 9.78252 23.4054 9.62718V21.8175C23.4054 22.1359 23.1546 22.3922 22.843 22.3922C22.5315 22.3922 22.2807 22.1359 22.2807 21.8175V17.0835C22.2807 16.9165 22.1477 16.7806 21.9843 16.7806C21.4866 16.7806 21.0819 16.367 21.0819 15.8583V12.2874V12.2893ZM16 21.866C17.5711 21.8718 19.0758 21.2136 20.1567 20.0447C20.2707 19.9282 20.455 19.9262 20.5709 20.0408C20.6868 20.1553 20.6944 20.3417 20.5861 20.4641C19.5716 21.5534 18.219 22.2466 16.7599 22.4291C15.3009 22.6117 13.8247 22.2699 12.5842 21.4621C12.4455 21.3728 12.4056 21.1845 12.4949 21.0427C12.5823 20.901 12.7666 20.8602 12.9052 20.9495C13.8304 21.5515 14.9038 21.8699 16 21.866ZM14.5562 9.99417C14.541 9.91456 14.5562 9.83301 14.6018 9.76699C14.6455 9.70097 14.7138 9.65437 14.7917 9.64078C16.4408 9.3165 18.1487 9.67184 19.5412 10.6291C19.6495 10.7049 19.697 10.8427 19.6571 10.9689C19.6191 11.0971 19.5032 11.1825 19.3721 11.1825C19.3132 11.1825 19.2562 11.165 19.2068 11.1301C18.2588 10.4777 17.1399 10.1301 15.9962 10.134C15.6295 10.134 15.2629 10.1689 14.9019 10.2388C14.824 10.2544 14.7423 10.2388 14.6777 10.1922C14.6113 10.1456 14.5676 10.0738 14.5543 9.99417H14.5562ZM13.0572 18.7515C13.1693 18.6291 13.3574 18.6233 13.4771 18.7379C14.2807 19.5107 15.3826 19.8738 16.4749 19.7282C17.5692 19.5825 18.5419 18.9437 19.1251 17.9864C19.2163 17.8544 19.393 17.8155 19.526 17.9029C19.6609 17.9903 19.7046 18.167 19.6286 18.3087C18.9504 19.4214 17.82 20.1631 16.5509 20.332C15.28 20.501 14.0014 20.0796 13.0686 19.1806C12.9489 19.066 12.9432 18.8738 13.0572 18.7515ZM19.3892 13.3476C19.4367 13.4097 19.4595 13.4913 19.4481 13.5709C19.4386 13.6505 19.3968 13.7223 19.3322 13.7709C19.2695 13.8194 19.1916 13.8427 19.1137 13.8311C19.0359 13.8214 18.9637 13.7786 18.9162 13.7126C18.4754 13.1262 17.8751 12.6835 17.1912 12.4427C16.5053 12.2019 15.7663 12.1709 15.0653 12.3553C14.9874 12.3786 14.9057 12.3689 14.8354 12.3301C14.7651 12.2893 14.7138 12.2233 14.6929 12.1437C14.672 12.0641 14.6853 11.9786 14.7271 11.9087C14.7689 11.8388 14.8373 11.7883 14.9152 11.7709C15.7302 11.5534 16.5908 11.5864 17.3887 11.868C18.1867 12.1476 18.8839 12.6621 19.3968 13.3476H19.3892Z" fill="#1F4397" stroke="#1F4397" stroke-width="0.2"/>
</svg>
