<svg viewBox="0 0 32 32" fill="none" xmlns="http://www.w3.org/2000/svg">
<circle cx="16" cy="16" r="16" fill="#F4F4F4"/>
<path d="M17 21C17 21.197 16.9612 21.392 16.8858 21.574C16.8104 21.756 16.6999 21.9214 16.5607 22.0607C16.4214 22.1999 16.256 22.3104 16.074 22.3858C15.892 22.4612 15.697 22.5 15.5 22.5C15.303 22.5 15.108 22.4612 14.926 22.3858C14.744 22.3104 14.5786 22.1999 14.4393 22.0607C14.3001 21.9214 14.1896 21.756 14.1142 21.574C14.0388 21.392 14 21.197 14 21L15.5 21H17Z" stroke="#1F4397"/>
<path d="M15 11.0275C12.75 11.2762 11 13.1837 11 15.5V18C11 18.5523 10.5523 19 10 19V19C9.44772 19 9 19.4477 9 20V20C9 20.5523 9.44772 21 10 21H21C21.5523 21 22 20.5523 22 20V20C22 19.4477 21.5523 19 21 19V19C20.4477 19 20 18.5523 20 18V15.5C20 13.1837 18.25 11.2762 16 11.0275M15 11.0275C15.1642 11.0093 15.331 11 15.5 11C15.669 11 15.8358 11.0093 16 11.0275M15 11.0275V10.5C15 10.2239 15.2239 10 15.5 10V10C15.7761 10 16 10.2239 16 10.5V11.0275" stroke="#1F4397" stroke-linejoin="round"/>
<path d="M9 15.5005C9 14.6469 9.16813 13.8017 9.49478 13.013C9.82144 12.2244 10.3002 11.5079 10.9038 10.9043M22 15.5005C22 14.6469 21.8318 13.8017 21.5052 13.013C21.1785 12.2244 20.6997 11.5079 20.0962 10.9043" stroke="#1F4397" stroke-linecap="round"/>
</svg>
