<svg viewBox="0 0 32 32" fill="none" xmlns="http://www.w3.org/2000/svg">
<path d="M31.3 32H18.2C17.8 32 17.5 31.7 17.5 31.3V22.2C17.5 21.3 16.8 20.7 16 20.7C15.1 20.7 14.5 21.4 14.5 22.2V31.3C14.5 31.7 14.2 32 13.8 32H0.7C0.3 32 0 31.7 0 31.3V14.8C0 14.7 0 14.6 0 14.6L2.4 8.3C2.5 8 2.8 7.8 3.1 7.8C3.4 7.8 3.7 8 3.8 8.3L6.1 14.5C6.2 14.6 6.2 14.7 6.2 14.9V19H8.8V11.6C8.8 11.5 8.8 11.4 8.9 11.2L15.4 0.4C15.6 0.1 15.8 0 16 0C16.2 0 16.5 0.1 16.6 0.4L23 11.2C23.1 11.3 23.1 11.4 23.1 11.6V19H25.7V14.9C25.7 14.8 25.7 14.7 25.8 14.5L28.1 8.3C28.2 8 28.5 7.8 28.8 7.8C29.1 7.8 29.4 8 29.5 8.3L31.9 14.6C32 14.7 32 14.8 32 15V31.5C32 31.7 31.7 32 31.3 32Z" fill="#553E96"/>
</svg>
