<svg viewBox="0 0 25 37" fill="none" xmlns="http://www.w3.org/2000/svg">
<path d="M13.7637 15.4314C14.2637 15.6314 14.7637 15.8314 15.2637 16.0314C17.8637 17.2314 19.7637 19.2314 20.9637 21.8314C20.9637 21.9314 21.0637 22.0314 21.0637 22.1314C21.1637 22.4314 20.9637 22.7314 20.6637 22.7314C20.5637 22.7314 20.4637 22.7314 20.3637 22.7314C13.8637 22.7314 7.26366 22.7314 0.76366 22.7314C0.66366 22.7314 0.66366 22.7314 0.56366 22.7314C0.16366 22.7314 -0.13634 22.3314 0.0636599 21.9314C0.46366 20.9314 1.06366 19.9314 1.76366 19.1314C3.16366 17.3314 4.96366 16.2314 7.16366 15.5314C7.46366 15.4314 7.46366 15.3314 7.46366 15.1314C7.26366 13.9314 7.06366 12.8314 6.86366 11.6314C6.86366 11.4314 6.76366 11.1314 6.66366 10.9314C4.56366 7.83137 2.46366 4.63137 0.36366 1.43137C0.26366 1.33137 0.26366 1.23137 0.16366 1.13137C-0.0363401 0.731371 0.0636599 0.331371 0.36366 0.131371C0.66366 -0.0686291 1.16366 -0.0686291 1.36366 0.331371C1.76366 0.631371 2.06366 1.03137 2.36366 1.43137C4.06366 3.73137 5.66366 5.93137 7.36366 8.13137C7.46366 8.23137 7.56366 8.33137 7.76366 8.33137C9.66366 8.33137 11.5637 8.33137 13.4637 8.33137C13.8637 8.33137 14.1637 8.23137 14.5637 8.13137C17.6637 7.33137 20.7637 6.43137 23.7637 5.63137C24.0637 5.53137 24.3637 5.53137 24.6637 5.83137C25.0637 6.23137 24.9637 6.83137 24.3637 7.03137C23.5637 7.33137 22.6637 7.63137 21.8637 7.93137C19.4637 8.73137 17.1637 9.53137 14.7637 10.3314C14.6637 10.3314 14.5637 10.4314 14.4637 10.5314C14.2637 12.1314 13.9637 13.7314 13.6637 15.3314C13.7637 15.3314 13.7637 15.4314 13.7637 15.4314Z" fill="#4A3981"/>
<path d="M8.06094 24.5312C9.76094 24.5312 11.5609 24.5312 13.2609 24.5312C13.1609 24.9313 13.1609 25.4312 13.0609 25.8312C12.6609 28.2312 12.3609 30.7313 11.9609 33.1313C11.8609 33.9313 11.7609 34.7312 11.5609 35.5312C11.4609 36.0312 11.0609 36.3313 10.5609 36.3313C10.0609 36.3313 9.66094 36.0312 9.66094 35.5312C9.36094 33.8312 9.16094 32.1312 8.86094 30.3312C8.56094 28.4312 8.26094 26.5313 7.96094 24.6313C8.06094 24.7313 8.06094 24.6313 8.06094 24.5312Z" fill="#4A3981"/>
<path d="M13.4672 4.43125C13.4672 5.93125 12.1672 7.23125 10.6672 7.23125C9.16719 7.23125 7.86719 5.93125 7.86719 4.33125C7.86719 2.83125 9.16719 1.53125 10.6672 1.53125C12.2672 1.63125 13.4672 2.83125 13.4672 4.43125Z" fill="#4A3981"/>
</svg>
