<svg viewBox="0 0 56 29" fill="none" xmlns="http://www.w3.org/2000/svg">
<path d="M0 14.2112H10.6479L21.1972 3.7605L23.5634 6.22529C23.5634 6.22529 17.7465 10.0704 16.9577 14.2112C16.169 18.4506 16.3662 23.2816 16.3662 23.2816L12.5211 28.9013H2.85915L0 14.2112Z" fill="#553E96"/>
<path d="M19.125 1L23.956 5.83099" stroke="#553E96" stroke-width="1.8942" stroke-miterlimit="10"/>
<path d="M55.3085 14.2112H44.7592L34.2099 3.7605L31.8438 6.22529C31.8438 6.22529 37.6607 10.0704 38.4494 14.2112C39.2381 18.352 39.0409 23.2816 39.0409 23.2816L42.886 28.9999H51.5621L55.3085 14.2112Z" fill="#553E96"/>
<path d="M36.2841 1L31.4531 5.83099" stroke="#553E96" stroke-width="1.8942" stroke-miterlimit="10"/>
<path d="M37.0739 21.507C36.6796 21.507 36.4824 21.4084 36.1866 21.1127C35.7923 20.7183 35.1021 20.2253 34.0176 20.2253C32.9331 20.2253 32.243 20.8169 31.8486 21.1127C31.5528 21.4084 31.3556 21.507 30.9613 21.507C30.5669 21.507 30.3697 21.4084 30.0739 21.1127C29.6796 20.7183 28.9894 20.2253 27.9049 20.2253C26.8204 20.2253 26.1303 20.8169 25.7359 21.1127C25.4401 21.4084 25.243 21.507 24.8486 21.507C24.4542 21.507 24.257 21.4084 23.9613 21.1127C23.5669 20.7183 22.8768 20.2253 21.7923 20.2253C20.6092 20.2253 20.0176 20.8169 19.6232 21.1127C19.3275 21.4084 19.1303 21.507 18.7359 21.507C18.1444 21.507 17.75 22 17.75 22.4929C17.75 23.0845 18.243 23.4789 18.7359 23.4789C19.919 23.4789 20.5106 22.8873 20.9049 22.5915C21.2007 22.2958 21.3979 22.1972 21.7923 22.1972C22.1866 22.1972 22.3838 22.2958 22.6796 22.5915C23.0739 22.9859 23.7641 23.4789 24.8486 23.4789C25.9331 23.4789 26.7218 22.8873 27.1162 22.5915C27.412 22.2958 27.6092 22.1972 28.0035 22.1972C28.3979 22.1972 28.5951 22.2958 28.8908 22.5915C29.2852 22.9859 29.9754 23.4789 31.0599 23.4789C32.1444 23.4789 32.8345 22.8873 33.2289 22.5915C33.5246 22.2958 33.7218 22.1972 34.1162 22.1972C34.5106 22.1972 34.7077 22.2958 35.0035 22.5915C35.3979 22.9859 36.088 23.4789 37.1725 23.4789C37.7641 23.4789 38.1585 22.9859 38.1585 22.4929C38.1585 22 37.6655 21.507 37.0739 21.507Z" fill="#553E96"/>
<path d="M37.0739 26.5354C36.6796 26.5354 36.4824 26.4368 36.1866 26.141C35.7923 25.7466 35.1021 25.2537 34.0176 25.2537C32.9331 25.2537 32.243 25.8452 31.8486 26.141C31.5528 26.4368 31.3556 26.5354 30.9613 26.5354C30.5669 26.5354 30.3697 26.4368 30.0739 26.141C29.6796 25.7466 28.9894 25.2537 27.9049 25.2537C26.8204 25.2537 26.1303 25.8452 25.7359 26.141C25.4401 26.4368 25.243 26.5354 24.8486 26.5354C24.4542 26.5354 24.257 26.4368 23.9613 26.141C23.5669 25.7466 22.8768 25.2537 21.7923 25.2537C20.6092 25.2537 20.0176 25.8452 19.6232 26.141C19.3275 26.4368 19.1303 26.5354 18.7359 26.5354C18.1444 26.5354 17.75 27.0283 17.75 27.5213C17.75 28.1128 18.243 28.5072 18.7359 28.5072C19.919 28.5072 20.5106 27.9156 20.9049 27.6199C21.2007 27.3241 21.3979 27.2255 21.7923 27.2255C22.1866 27.2255 22.3838 27.3241 22.6796 27.6199C23.0739 28.0142 23.7641 28.5072 24.8486 28.5072C25.9331 28.5072 26.7218 27.9156 27.1162 27.6199C27.412 27.3241 27.6092 27.2255 28.0035 27.2255C28.3979 27.2255 28.5951 27.3241 28.8908 27.6199C29.2852 28.0142 29.9754 28.5072 31.0599 28.5072C32.1444 28.5072 32.8345 27.9156 33.2289 27.6199C33.5246 27.3241 33.7218 27.2255 34.1162 27.2255C34.5106 27.2255 34.7077 27.3241 35.0035 27.6199C35.3979 28.0142 36.088 28.5072 37.1725 28.5072C37.7641 28.5072 38.1585 28.0142 38.1585 27.5213C38.1585 26.9297 37.6655 26.5354 37.0739 26.5354Z" fill="#553E96"/>
</svg>
