<svg viewBox="0 0 38 38" fill="none" xmlns="http://www.w3.org/2000/svg">
<path d="M37.2674 36.2617L33.5094 29.1182C33.4793 29.0674 33.4321 29.0251 33.3762 29.0124L22.7551 26.1854L23.1159 24.5815C23.1245 24.5434 23.1202 24.5054 23.1116 24.4715L22.5017 22.6264C23.3521 22.5841 25.7486 22.3132 26.3027 20.5273C26.861 20.8616 27.3549 22.3555 27.5567 23.3246L28.3599 26.2489C28.3685 26.2828 28.4415 26.5959 28.7679 26.7568C28.8881 26.816 29.0213 26.8456 29.1673 26.8456C29.3949 26.8456 29.6569 26.7779 29.949 26.6383C31.0871 26.105 31.7356 25.6014 31.7614 25.5803C31.8172 25.538 31.8473 25.466 31.843 25.3983C31.8387 25.3306 31.7957 25.2629 31.7313 25.229C31.7056 25.2163 29.2188 23.8325 28.2096 20.6162C27.1187 17.1418 25.478 14.2259 24.1037 13.2991C23.9491 11.6106 23.6313 10.3029 23.4938 9.80354C23.6957 9.74006 23.9791 9.60041 24.1724 9.3211C24.4129 8.97408 24.4516 8.5128 24.2927 7.95418C23.8847 6.51954 23.292 5.33883 23.2104 5.18225C23.1631 5.04682 22.9398 4.64055 21.9391 4.59824C22.2226 3.99307 22.4931 3.04087 22.1152 2.38492C21.952 2.09715 21.5912 1.75436 20.8096 1.7459C20.2426 1.73743 19.8174 1.90671 19.5383 2.2495C18.9928 2.90968 19.2205 3.96767 19.2334 4.02269L19.4524 4.83522L18.5032 6.43067C18.3529 5.69854 18.1038 4.35278 18.0523 3.29479C17.9793 1.88132 17.0301 1.44966 16.6994 1.34386C16.5147 0.971448 16.0552 0.116593 15.6042 0.00656173C15.5398 -0.0103661 15.4711 0.00656173 15.4195 0.0446493C15.368 0.082737 15.3379 0.146216 15.3379 0.209696V0.916432L14.6379 0.383206C14.5649 0.32819 14.4661 0.323959 14.3888 0.374742C14.3115 0.425525 14.2771 0.514397 14.2986 0.603268L14.4704 1.28038L10.7639 3.00279C10.7639 3.00279 10.7382 3.01548 10.7253 3.02395C10.532 3.16783 10.2185 3.56987 10.4118 4.06501C10.6652 4.70827 11.0989 4.6998 11.6873 4.61939C12.2542 4.54322 13.2635 4.55592 13.7145 4.7125C13.5856 5.30074 13.4869 6.4476 13.4611 6.73537C13.2464 7.01045 12.2757 8.30966 11.7947 10.0363C10.9572 9.48191 9.93503 9.07141 9.88779 9.05449C9.84484 9.03756 9.79331 9.03333 9.75036 9.04602L6.15129 10.0532C6.07827 10.0744 6.02244 10.1294 6.00526 10.1971L5.27943 12.6855C5.26225 12.7448 5.27084 12.8082 5.3052 12.859C5.31809 12.8802 5.65738 13.3922 6.17705 13.4557C6.46481 13.4896 6.74397 13.3838 7.00166 13.1383C7.04461 13.096 7.07038 13.0368 7.06609 12.9733L7.01025 12.0676C6.99737 11.9153 7.01025 11.4625 7.2207 11.2424C7.31089 11.1451 7.43115 11.0985 7.59435 11.107C8.34595 11.1281 8.99017 10.98 9.23068 10.9123L11.2364 12.2073L9.31228 11.5133C9.31228 11.5133 9.28222 11.5048 9.26504 11.5006C9.24357 11.5006 8.69383 11.4413 8.22569 11.9364C7.82627 12.3596 6.37462 14.0143 6.31449 14.0863C6.26725 14.1413 6.25007 14.2132 6.27154 14.281L6.9673 16.7397C6.97589 16.7778 6.99737 16.8117 7.02743 16.8371C7.04891 16.8582 7.58576 17.3364 8.3846 16.8624C8.74966 16.6466 8.94722 16.435 8.99017 16.215C9.02024 16.0499 8.95152 15.9441 8.94722 15.9441L8.07967 14.4079L9.20062 13.1299C9.67734 13.5742 11.1161 14.7846 12.9328 15.1189C14.3716 15.3855 16.111 16.5281 17.0473 17.2052C16.7595 17.1968 16.4546 17.2264 16.2356 17.3661C16.0638 17.4761 15.9564 17.6411 15.9306 17.8485C15.819 18.6822 17.3608 21.6361 17.5369 21.9704C17.6743 22.2201 17.9879 22.9734 17.786 23.4389C17.7001 23.6336 17.5326 23.7648 17.2663 23.8367C16.0079 24.171 15.6472 24.1033 15.6386 24.1033C15.5312 24.0695 15.4238 24.1287 15.3809 24.2261L11.5241 23.1977C11.4898 23.1892 11.4511 23.185 11.4125 23.1977C1.09197 25.8173 1.04473 25.9908 1.00607 26.1474C1.00178 26.1685 0.997484 26.1939 1.00178 26.2151L1.53863 32.2414C1.54293 32.2922 1.5644 32.3302 1.60306 32.3683L5.57578 36.1644C5.61443 36.2025 5.66597 36.1983 5.7218 36.1983L37.0741 36.4606C37.1471 36.4606 37.2158 36.4776 37.2588 36.4141C37.2974 36.3506 37.3017 36.3252 37.2674 36.2575V36.2617ZM19.534 23.7351C19.5641 23.6928 19.5812 23.642 19.5769 23.5913L19.4524 22.1312L20.6163 23.659C20.6163 23.659 20.6378 23.6844 20.6549 23.6971C20.6549 23.6971 21.02 23.9975 21.0071 24.4123C20.9985 24.755 20.7451 25.1021 20.2598 25.4491C20.2383 25.466 20.2255 25.4872 20.2126 25.5083L18.5333 25.0597L19.534 23.7351ZM5.81199 35.8301L1.95953 32.1356L1.43985 26.3209C2.28593 25.9908 7.77044 24.5561 11.4683 23.6166L33.1744 29.3975L36.7262 36.1432L5.81629 35.8301H5.81199Z" fill="#553E96"/>
<path d="M5.80964 35.8301L1.95717 32.1356L1.4375 26.3209C2.28358 25.9908 7.76809 24.5562 11.4659 23.6167L33.172 29.3976L36.7239 36.1433L5.81394 35.8301H5.80964Z" stroke="#553E96" stroke-width="2" stroke-linecap="round" stroke-linejoin="round"/>
</svg>
