<svg viewBox="0 0 32 42" fill="none" xmlns="http://www.w3.org/2000/svg">
<path d="M18.2969 3C19.1253 3 19.7969 2.32843 19.7969 1.5C19.7969 0.671573 19.1253 0 18.2969 0C17.4684 0 16.7969 0.671573 16.7969 1.5C16.7969 2.32843 17.4684 3 18.2969 3Z" fill="#553E96"/>
<path d="M16.4 4C10.4 5.3 6 12 6 19.9C6 20 6 20 6 20.1C7.4 20.8 8.9 21.3 10.5 21.8C9.9 15.3 12 8.9 16.4 4Z" fill="#553E96"/>
<path d="M24.6012 19.8001C24.6012 14.3001 22.5012 8.9001 18.8012 4.8001L18.6012 4.6001C18.5012 4.6001 18.4012 4.6001 18.3012 4.6001C18.2012 4.6001 18.1012 4.6001 18.0012 4.6001L17.8012 4.8001C13.5012 9.5001 11.4012 15.8001 12.1012 22.2001C16.2012 23.1001 20.4012 23.2001 24.5012 22.3001C24.6012 21.4001 24.6012 20.6001 24.6012 19.8001Z" fill="#553E96"/>
<path d="M13.7016 26.6C14.6016 28.7 16.2016 30.4 18.3016 31.4C20.4016 30.5 22.0016 28.8 22.9016 26.6L24.0016 23.9C22.2016 24.2 20.4016 24.4 18.6016 24.4C16.6016 24.4 14.6016 24.2 12.6016 23.8L13.7016 26.6Z" fill="#553E96"/>
<path d="M28 29.4001C28.1 29.4001 28.2 29.3001 28.3 29.3001C29.5 27.1001 30.2 24.6001 30.5 22.1001C29 22.7001 27.6 23.2001 26 23.6001C26.1 25.6001 26.8 27.7001 28 29.4001Z" fill="#553E96"/>
<path d="M6.10156 21.8C6.30156 24.4 7.10156 26.9001 8.30156 29.2001C8.40156 29.2001 8.50156 29.3 8.60156 29.3C9.80156 27.5 10.5016 25.4 10.6016 23.3C9.00156 23 7.50156 22.5 6.10156 21.8Z" fill="#553E96"/>
<path d="M20.2031 4C24.1031 8.3 26.2031 13.9 26.2031 19.7C26.2031 20.4 26.2031 21.2 26.1031 21.9C27.6031 21.5 29.1031 21 30.6031 20.3C30.6031 20.2 30.6031 20 30.6031 19.9C30.5031 12 26.1031 5.3 20.2031 4Z" fill="#553E96"/>
<path d="M24.8031 26L24.3031 27.2C23.2031 29.8 21.2031 31.9 18.6031 32.9C18.5031 32.9 18.4031 33 18.3031 33C18.2031 33 18.1031 33 18.0031 32.9C15.4031 31.8 13.3031 29.8 12.3031 27.2L11.8031 26C11.4031 27.6 10.7031 29.2 9.70312 30.5C9.80313 30.8 9.90312 31.1 9.90312 31.4C9.90312 31.5 9.90312 31.5 9.90312 31.6C10.3031 32.2 10.8031 32.7 11.4031 33.2C12.2031 33.9 13.1031 34.6 14.1031 35C16.6031 36.2 19.4031 36.3 22.0031 35.3C23.0031 34.9 23.9031 34.4 24.7031 33.7C25.5031 33.1 26.2031 32.3 26.9031 31.5C26.9031 31.5 26.9031 31.4 26.9031 31.3C26.9031 31 27.0031 30.7 27.1031 30.4C25.9031 29.2 25.2031 27.6 24.8031 26Z" fill="#553E96"/>
<path d="M13.2972 36.9C13.2972 37.7 12.8972 38.5999 12.2972 39.2999C12.0972 39.4999 11.7972 39.6 11.4972 39.7C10.4972 39.9 9.89717 40.4999 10.2972 41.0999C10.2972 41.1999 10.3972 41.1999 10.4972 41.2999H13.9972L14.3972 39.7999C14.6972 38.7999 14.8972 37.7999 14.9972 36.7999C14.3972 36.5999 13.6972 36.4 13.0972 36.2C13.1972 36.4 13.2972 36.6 13.2972 36.9Z" fill="#553E96"/>
<path d="M24.4 39.7C24.1 39.6 23.8 39.4999 23.6 39.2999C22.9 38.5999 22.6 37.7 22.6 36.9C22.6 36.8 22.6 36.7 22.6 36.7C22.1 36.9 21.5 37 21 37.2C21.1 38.1 21.3 38.9999 21.5 39.7999L21.9 41.2999H25.3C25.8 40.7999 25.5 40.0999 24.6 39.7999C24.6 39.6999 24.5 39.7 24.4 39.7Z" fill="#553E96"/>
<path d="M29.4016 7.5002L30.0016 5.7002L31.8016 5.1002L30.0016 4.5002L29.4016 2.7002L28.9016 4.5002L27.1016 5.1002L28.9016 5.7002L29.4016 7.5002Z" fill="#553E96"/>
<path d="M3.7 18.9001L2.3 18.5001L1.8 17.1001L1.4 18.5001L0 18.9001L1.4 19.4001L1.8 20.8001L2.3 19.4001L3.7 18.9001Z" fill="#553E96"/>
</svg>
