<svg viewBox="0 0 46 36" fill="none" xmlns="http://www.w3.org/2000/svg">
<path d="M31.5766 24.2C30.0766 24.1 28.5766 24 27.0766 23.9C26.2766 23.8 25.6766 24.4 25.6766 25.2C25.6766 26 25.6766 26.8 25.6766 27.6C25.6766 28.8 25.5766 29.9 25.5766 31.1C25.5766 31.8 25.5766 32.4 25.6766 33.1C25.7766 34.2 25.1766 35.1 24.0766 35.3C23.7766 35.4 23.3766 35.3 23.0766 35.3C21.5766 35.2 20.0766 35.2 18.5766 35.3C17.8766 35.3 17.1766 35.4 16.4766 35.5C15.3766 35.6 14.2766 35.3 13.2766 34.8C12.7766 34.5 12.3766 34.3 11.9766 33.9C11.5766 33.6 11.6766 33.3 12.0766 33.1C12.5766 33 13.0766 32.9 13.5766 32.8C14.6766 32.7 15.6766 32.8 16.7766 33.1C17.3766 33.2 17.9766 33.3 18.4766 33.3C19.0766 33.3 19.3766 33.1 19.3766 32.5C19.4766 32 19.4766 31.5 19.4766 30.9C19.4766 29.3 19.4766 27.7 19.5766 26.1C19.5766 25.6 19.5766 25.1 19.5766 24.6C19.5766 23.6 18.9766 22.9 18.0766 22.6C15.9766 22.1 13.8766 21.3 12.0766 20C10.2766 18.8 8.87664 17.2 8.07664 15.2C7.37664 13.4 7.17664 11.6 7.57664 9.8C7.77664 8.8 8.27664 7.9 9.07664 7.2C9.37664 6.9 9.37664 6.7 9.17664 6.4C8.67664 5.8 8.17664 5.7 7.47664 5.8C5.57664 6.1 3.77664 6.4 1.87664 6.7C1.37664 6.7 0.976641 6.8 0.576641 6.8C0.0766407 6.8 -0.123359 6.6 0.0766407 6.1C0.476641 5.2 1.07664 4.6 2.07664 4.4C3.27664 4.2 4.47664 4 5.67664 3.7C5.97664 3.7 6.27664 3.5 6.47664 3.4C7.07664 3.2 7.57664 2.8 7.97664 2.4C9.07664 1.1 10.5766 0.4 12.2766 0.2C13.1766 0 14.0766 0 14.9766 0C16.4766 0.1 17.6766 0.9 18.4766 2.2C18.7766 2.8 19.0766 3.4 19.1766 4C19.3766 4.8 19.8766 5.2 20.5766 5.3C21.0766 5.4 21.6766 5.5 22.1766 5.6C23.9766 6.2 25.5766 7 26.9766 8.2C28.2766 9.3 29.2766 10.6 30.3766 11.9C31.3766 13.1 32.4766 14.4 33.5766 15.6C35.4766 17.6 37.6766 19 40.2766 20C41.7766 20.6 43.3766 21 44.9766 21.3C45.2766 21.3 45.5766 21.4 45.6766 21.7C45.7766 22 45.5766 22.2 45.3766 22.5C44.9766 22.8 44.3766 23 43.8766 23C41.9766 23.3 40.0766 23.6 38.1766 23.8C35.9766 24.1 33.7766 24.2 31.5766 24.2ZM31.8766 21.1C32.2766 21.1 32.5766 21 32.9766 21C33.4766 20.9 33.5766 20.7 33.3766 20.2C33.0766 19.5 32.7766 18.8 32.4766 18.1C31.6766 16.4 30.6766 14.8 29.6766 13.3C28.8766 12.1 27.9766 10.9 26.9766 9.9C24.7766 7.7 22.1766 6.5 18.9766 6.4C18.7766 6.4 18.5766 6.3 18.5766 6.1C18.4766 5.8 18.3766 5.5 18.2766 5.3C18.0766 4.6 17.8766 3.9 17.5766 3.2C17.0766 2.1 16.1766 1.4 14.9766 1.3C13.7766 1.2 12.6766 1.4 11.5766 1.7C10.5766 2 9.97664 2.6 9.77664 3.7C9.37664 4.4 9.57664 5 9.97664 5.5C10.2766 5.8 10.5766 6.1 10.8766 6.4C11.0766 6.6 11.0766 6.8 10.9766 7C10.8766 7.3 10.6766 7.5 10.3766 7.6C9.87664 8 9.47664 8.5 9.27664 9.1C8.77664 10.3 8.77664 11.5 8.97664 12.8C9.27664 14.6 10.0766 16 11.2766 17.3C12.3766 18.5 13.7766 19.4 15.2766 20C15.9766 20.3 16.5766 20.6 17.3766 20.7C17.8766 20.8 18.3766 20.7 18.7766 20.5C19.1766 20.3 19.1766 20.1 18.8766 19.8C18.7766 19.7 18.6766 19.7 18.4766 19.6C17.7766 19.2 17.0766 18.9 16.4766 18.5C14.5766 17.2 13.1766 15.5 12.5766 13.3C12.4766 12.8 12.3766 12.3 12.2766 11.7C12.2766 11.4 12.3766 11.2 12.6766 11.1C12.9766 11 13.0766 11.2 13.1766 11.4C13.3766 11.7 13.5766 12.1 13.6766 12.4C13.9766 13.6 14.5766 14.6 15.2766 15.5C16.3766 16.8 17.7766 17.8 19.3766 18.5C21.0766 19.3 22.8766 19.8 24.7766 20.2C26.0766 20.4 27.3766 20.6 28.6766 20.8C29.7766 21 30.8766 21 31.8766 21.1ZM21.4766 33.4C21.8766 33.4 22.1766 33.4 22.4766 33.4C22.8766 33.4 23.1766 33.3 23.5766 33.2C23.6766 33.2 23.7766 33.1 23.7766 32.9C23.8766 31.7 23.9766 30.6 23.9766 29.4C23.9766 27.8 23.9766 26.3 23.9766 24.7C23.9766 24.1 23.6766 23.6 23.1766 23.5C22.7766 23.4 22.4766 23.4 22.0766 23.3C21.6766 23.3 21.4766 23.5 21.4766 23.9C21.4766 24.7 21.4766 25.5 21.4766 26.3C21.4766 28.6 21.4766 30.8 21.4766 33.1C21.4766 33.3 21.4766 33.4 21.4766 33.4Z" fill="#553E96"/>
</svg>
