<svg viewBox="0 0 49 46" fill="none" xmlns="http://www.w3.org/2000/svg">
<path d="M28.6984 23.9001H19.6984C19.2984 23.9001 18.8984 24.2001 18.8984 24.7001C18.8984 25.2001 19.1984 25.5001 19.6984 25.5001H20.3984V30.2001H27.9984V25.5001H28.6984C29.0984 25.5001 29.4984 25.2001 29.4984 24.7001C29.4984 24.2001 29.1984 23.9001 28.6984 23.9001ZM24.7984 29.0001C24.7984 29.3001 24.4984 29.6001 24.1984 29.6001C23.8984 29.6001 23.5984 29.3001 23.5984 29.0001V26.5001C23.5984 26.2001 23.8984 25.9001 24.1984 25.9001C24.4984 25.9001 24.7984 26.2001 24.7984 26.5001V29.0001Z" fill="#553E96"/>
<path d="M40.1984 41.9C39.5984 41.9 39.2984 41.7 38.6984 41.2C37.9984 40.6 36.9984 39.7 35.0984 39.7C33.1984 39.7 32.1984 40.6 31.4984 41.2C30.9984 41.7 30.6984 41.9 29.9984 41.9C29.3984 41.9 29.0984 41.7 28.4984 41.2C27.7984 40.6 26.7984 39.7 24.8984 39.7C22.9984 39.7 21.9984 40.6 21.2984 41.2C20.7984 41.7 20.4984 41.9 19.7984 41.9C19.1984 41.9 18.8984 41.7 18.2984 41.2C17.5984 40.6 16.5984 39.7 14.6984 39.7C12.7984 39.7 11.7984 40.6 11.0984 41.2C10.5984 41.7 10.2984 41.9 9.59844 41.9C8.69844 41.9 7.89844 42.5999 7.89844 43.5999C7.89844 44.5999 8.59844 45.2999 9.59844 45.2999C11.4984 45.2999 12.4984 44.3999 13.1984 43.7999C13.6984 43.2999 13.9984 43.0999 14.6984 43.0999C15.2984 43.0999 15.5984 43.2999 16.1984 43.7999C16.8984 44.3999 17.8984 45.2999 19.7984 45.2999C21.6984 45.2999 22.7984 44.3999 23.4984 43.7999C23.9984 43.2999 24.2984 43.0999 24.9984 43.0999C25.5984 43.0999 25.8984 43.2999 26.4984 43.7999C27.1984 44.3999 28.1984 45.2999 30.0984 45.2999C31.9984 45.2999 32.9984 44.3999 33.6984 43.7999C34.1984 43.2999 34.4984 43.0999 35.1984 43.0999C35.7984 43.0999 36.0984 43.2999 36.6984 43.7999C37.3984 44.3999 38.3984 45.2999 40.2984 45.2999C41.1984 45.2999 41.9984 44.5999 41.9984 43.5999C41.9984 42.5999 41.0984 41.9 40.1984 41.9Z" fill="#553E96"/>
<path d="M28.6 23C28.5 20.8 26.6 19 24.3 19C22 19 20.2 20.8 20 23H28.6Z" fill="#553E96"/>
<path d="M19.8 32.7H20.5V40C20.7 39.9 20.9 39.7 21.2 39.5C21.9 38.9 22.9 38 24.8 38C26.4 38 27.4 38.7 28.1 39.2V32.7999H28.8C29.2 32.7999 29.6 32.5 29.6 32C29.6 31.5 29.3 31.2 28.8 31.2H19.8C19.4 31.2 19 31.5 19 32C19 32.5 19.3 32.7 19.8 32.7ZM23.7 33.7C23.7 33.4 24 33.0999 24.3 33.0999C24.6 33.0999 24.9 33.4 24.9 33.7V36.2C24.9 36.5 24.6 36.7999 24.3 36.7999C24 36.7999 23.7 36.5 23.7 36.2V33.7Z" fill="#553E96"/>
<path d="M24.3772 13C24.058 13 23.8984 12.8269 23.8984 12.7404V4.25961C23.8984 4.08654 24.2176 4 24.3772 4C24.6964 4 24.856 4.17308 24.856 4.25961V12.7404C25.0156 12.9135 24.6964 13 24.3772 13Z" fill="#553E96"/>
<path d="M24.3984 3C24.0651 3 23.8984 2.625 23.8984 2.4375V0.562501C23.8984 0.1875 24.2318 0 24.3984 0C24.7318 0 24.8984 0.375001 24.8984 0.562501V2.4375C24.8984 2.8125 24.7318 3 24.3984 3Z" fill="#553E96"/>
<path d="M25.9016 13.6C25.9016 12.6 25.2016 11.8 24.4016 11.8C23.6016 11.8 22.9016 12.6 22.9016 13.6C22.9016 13.6 22.7016 16.3 22.6016 18.5C23.1016 18.2 23.7016 18 24.4016 18C25.0016 18 25.6016 18.2 26.1016 18.5C26.0016 16.1 25.9016 13.6 25.9016 13.6ZM24.8016 16.4C24.8016 16.6 24.6016 16.8 24.4016 16.8C24.2016 16.8 24.0016 16.6 24.0016 16.4V14.4C24.0016 14.2 24.2016 14 24.4016 14C24.6016 14 24.8016 14.2 24.8016 14.4V16.4Z" fill="#553E96"/>
<path d="M17.1 12.8L2 36.6" stroke="#553E96" stroke-width="3" stroke-miterlimit="10" stroke-linecap="round" stroke-linejoin="round"/>
<path d="M15.8 15L12.5 12.8" stroke="#553E96" stroke-width="3" stroke-miterlimit="10" stroke-linecap="round" stroke-linejoin="round"/>
<path d="M32.2969 12.8L46.8975 36.5" stroke="#553E96" stroke-width="3" stroke-miterlimit="10" stroke-linecap="round" stroke-linejoin="round"/>
<path d="M33.6953 15L36.8953 12.8" stroke="#553E96" stroke-width="3" stroke-miterlimit="10" stroke-linecap="round" stroke-linejoin="round"/>
</svg>
