<svg viewBox="0 0 20 20" fill="none" xmlns="http://www.w3.org/2000/svg">
<circle cx="10" cy="10" r="9.5" stroke="#424753"/>
<path d="M8.76953 4.5H10.7795V9.435L10.3895 11.88H9.15953L8.76953 9.435V4.5ZM8.55953 14.01C8.55953 13.66 8.66953 13.385 8.88953 13.185C9.10953 12.975 9.39953 12.87 9.75953 12.87C10.1395 12.87 10.4395 12.975 10.6595 13.185C10.8795 13.385 10.9895 13.66 10.9895 14.01C10.9895 14.36 10.8795 14.64 10.6595 14.85C10.4395 15.06 10.1395 15.165 9.75953 15.165C9.39953 15.165 9.10953 15.06 8.88953 14.85C8.66953 14.64 8.55953 14.36 8.55953 14.01Z" fill="#424753"/>
</svg>
