<svg viewBox="0 0 21 23" fill="none" xmlns="http://www.w3.org/2000/svg">
<path fill-rule="evenodd" clip-rule="evenodd" d="M7 0.666992C7 0.39085 6.77614 0.166992 6.5 0.166992C6.22386 0.166992 6 0.39085 6 0.666992V1.91699H2.25C1.42157 1.91699 0.75 2.58856 0.75 3.41699V7.66699V20.667C0.75 21.4954 1.42157 22.167 2.25 22.167H19.5C20.3284 22.167 21 21.4954 21 20.667V7.66699V3.41699C21 2.58856 20.3284 1.91699 19.5 1.91699H15.75V0.666992C15.75 0.39085 15.5261 0.166992 15.25 0.166992C14.9739 0.166992 14.75 0.39085 14.75 0.666992V1.91699H7V0.666992ZM20 7.16699V3.41699C20 3.14085 19.7761 2.91699 19.5 2.91699H15.75V4.16699C15.75 4.44313 15.5261 4.66699 15.25 4.66699C14.9739 4.66699 14.75 4.44313 14.75 4.16699V2.91699H7V4.16699C7 4.44313 6.77614 4.66699 6.5 4.66699C6.22386 4.66699 6 4.44313 6 4.16699V2.91699H2.25C1.97386 2.91699 1.75 3.14085 1.75 3.41699V7.16699H20ZM1.75 8.16699H20V20.667C20 20.9431 19.7761 21.167 19.5 21.167H2.25C1.97386 21.167 1.75 20.9431 1.75 20.667V8.16699ZM4.25 11.167C4.25 10.8909 4.47386 10.667 4.75 10.667H6.5C6.77614 10.667 7 10.8909 7 11.167C7 11.4431 6.77614 11.667 6.5 11.667H4.75C4.47386 11.667 4.25 11.4431 4.25 11.167ZM9.5 11.167C9.5 10.8909 9.72386 10.667 10 10.667H11.75C12.0261 10.667 12.25 10.8909 12.25 11.167C12.25 11.4431 12.0261 11.667 11.75 11.667H10C9.72386 11.667 9.5 11.4431 9.5 11.167ZM14.75 11.167C14.75 10.8909 14.9739 10.667 15.25 10.667H17C17.2761 10.667 17.5 10.8909 17.5 11.167C17.5 11.4431 17.2761 11.667 17 11.667H15.25C14.9739 11.667 14.75 11.4431 14.75 11.167ZM4.25 16.417C4.25 16.1409 4.47386 15.917 4.75 15.917H6.5C6.77614 15.917 7 16.1409 7 16.417C7 16.6931 6.77614 16.917 6.5 16.917H4.75C4.47386 16.917 4.25 16.6931 4.25 16.417ZM9.5 16.417C9.5 16.1409 9.72386 15.917 10 15.917H11.75C12.0261 15.917 12.25 16.1409 12.25 16.417C12.25 16.6931 12.0261 16.917 11.75 16.917H10C9.72386 16.917 9.5 16.6931 9.5 16.417Z" fill="#8E99AF"/>
</svg>
