<svg viewBox="0 0 23 23" fill="none" xmlns="http://www.w3.org/2000/svg">
<path d="M0 18.3081C0 19.4428 0.398667 20.4088 1.196 21.2061C1.99333 22.0034 2.95933 22.4021 4.094 22.4021H17.71C18.8293 22.4021 19.7877 22.0034 20.585 21.2061C21.3823 20.4088 21.781 19.4428 21.781 18.3081V12.4201L19.067 14.6971V18.3081C19.067 18.6914 18.9367 19.0134 18.676 19.2741C18.4153 19.5348 18.0933 19.6728 17.71 19.6881H4.094C3.71067 19.6881 3.38867 19.5501 3.128 19.2741C2.86733 18.9981 2.737 18.6761 2.737 18.3081V4.69209C2.737 4.32409 2.86733 4.00209 3.128 3.72609C3.38867 3.45009 3.71067 3.31976 4.094 3.33509H10.902V0.621094H4.094C2.95933 0.621094 1.99333 1.01976 1.196 1.81709C0.398667 2.61443 0 3.57276 0 4.69209L0 18.3081ZM4.094 14.2371C4.094 15.5558 4.35467 16.8208 4.876 18.0321C5.12133 16.6214 5.658 15.3411 6.486 14.1911C7.314 13.0411 8.34133 12.1134 9.568 11.4081C10.7947 10.7028 12.144 10.3041 13.616 10.2121V14.2371L21.781 7.42909L13.616 0.621094V4.69209C12.328 4.69209 11.0937 4.94509 9.913 5.45109C8.73233 5.95709 7.72033 6.63943 6.877 7.49809C6.03367 8.35676 5.35133 9.36876 4.83 10.5341C4.30867 11.6994 4.06333 12.9338 4.094 14.2371Z" fill="#01B6C1"/>
</svg>
