<svg width="89" height="58" viewBox="0 0 89 58" fill="none" xmlns="http://www.w3.org/2000/svg">
<g clip-path="url(#clip0_2799_1324)">
<path d="M71.9 21.1C71.2 14.6 67.8 9 62.8 5.3C58.9 2 53.7 0 48.2 0C38.9 0 30.9 5.5 27.3 13.5C25.7 12.7 24 12.2 22.1 12.2C16.2 12.2 11.4 16.8 10.9 22.5C4.5 25.4 0 31.8 0 39.3C0 39.4 0 39.5 0 39.7C0 41.8 0.3 44 1 46.1C3.4 53.4 9.2 57.6 17.2 57.6C22.5 57.7 27.9 57.6 33.2 57.6C33.7 57.6 36.6 57.6 40 57.6V43.4H38.5H26.7L44.2 26L61.6 43.4H49.8H48.3V57.6C50.7 57.6 52.6 57.6 53 57.6C58.8 57.7 64.7 57.7 70.5 57.6C74.9 57.6 78.7 56.1 81.5 53.5C85.7 50.1 88.3 45 88.3 39.3C88.3 29.8 81.1 22.1 71.9 21.1Z" fill="#00D8E6"/>
</g>
<defs>
<clipPath id="clip0_2799_1324">
<rect width="88.3" height="57.7" fill="white"/>
</clipPath>
</defs>
</svg>
